<?xml version="1.0" encoding="utf-8"?>
<!-- Generator: Adobe Illustrator 24.3.0, SVG Export Plug-In . SVG Version: 6.00 Build 0)  -->
<svg version="1.1" id="Capa_1" xmlns="http://www.w3.org/2000/svg" xmlns:xlink="http://www.w3.org/1999/xlink" x="0px" y="0px"
	 viewBox="0 0 527.3 1069.4" style="enable-background:new 0 0 527.3 1069.4;" xml:space="preserve">
<style type="text/css">
	.st0{fill:none;stroke:#000000;stroke-miterlimit:10;}
</style>
<g id="Capa_2_1_">
	<g id="Capa_1-2">
		<path class="st0" d="M0,1028.2c225-18.4,174-337.4,52.2-369.1c24.8-29.3-17.2-76.3-6.1-95C65,547.8,162,702.8,187,721.8
			c6,20,57,149,75.7,142.8c8.3-1.8,142.4,212,150.9,204.1C420,1047.8,266,866.8,283,851.2c6-16.4-64-133.4-75-143.4
			c-4-24-135-180-151-181c27-12,31.7-78.1,34.3-83.6c88.7,13.6,150.4,9.3,163.5-8.1c18.1,8.6,95-9.8,97.6-21.1
			c109.5-15.3,174.5-2.3,174.4-6.8c-2.8-19.5-175.8-2.5-176.7-8.2c-13.2-18.3-94.2,25.7-96.5,23.1c-41.6-21.4-163.8,16.4-140.7-3
			c7.1-4.4-12.9-54.4-4.9-66.4c12.3,4.3,95-50,88-69.8c63,3.8,66-31.2,100.5-40.2c16.5-5,50.5,14,110.3-25.8
			c1.2-10.2-104.5,14.8-114.2,10.3c-63.6,2.4-62.6,33.4-107.9,41.1c-19.7-8.6-82.7,58.4-86.5,58.5C87,255.8,62,216,25.1,212.8
			c-1.1,0-1.1-5,0.9-4.6c53,16.6,73-47.4,64.2-70.6c19.8-5.8,2-32.9-0.6-37.4S85.9,87,89,85.8c22,11,45,43,57.3,45
			c12.7-1,77.7-111,80.7-114.1c5-2.9,18.6-9.3,15.8-13.6C230-4.2,229,5.8,221.2,9.4C208,14.8,152,123.8,144.5,113.3
			C140,105.8,92,68.1,86.5,65C63,37.8,23,27.2,0,27.8"/>
	</g>
</g>
</svg>
