<svg xmlns="http://www.w3.org/2000/svg" viewBox="0 0 394.98 1078.44"><defs><style>.cls-1{fill:none;stroke:#000;stroke-miterlimit:10;}</style></defs><g id="Capa_2" data-name="Capa 2"><g id="Capa_1-2" data-name="Capa 1"><path class="cls-1" d="M.24,1077.94c31.5-.43,117.28-82.73,128.39-101.08,38.11-62.35,62.11-189.35,46.18-299,3.93-24.31,19.93-6.31,21.6-1.7,8.33,2.39,30.33,29.39,24.16,41.67-4.83,6.72-48.83,209.72-47.62,213.69-.21,41,34.79,72,37.13,70.35,9.66-4.32-25.89-39.86-21.61-60.09s51.93-238.88,52.1-250.55c.17-14.68-45.3-56.94-48.56-58.31-23.27-11.37-44.27-76.37-47-78.77-35.22-46.6-32.12-52.07-31.17-62.83,3.95-13.77-5.35-42.35,4.8-49.56,12.15-5.21,78.15-29.21,84.57-32.19,3.58-2,92.29,25.62,96.44,26.3,10.14,4.68,50.49,3.58,60.32,4.13s32.82,5.55,34.45-.83c2.37-9.62-32.24-6-32.24-6L303.56,422S198.39,388.9,187.07,389.2c-24.33,1.31-72.33,21.31-73.42,18.36-14.91-60.05-54.91-87.05-56.44-104.33-.47-1.72,30.53-53.72,33.57-56.62,18-21.1,20.65-60.22,20.65-60.22s2.83-38.69,3.07-41.29c1.24-3.59-1.76-43.59,1.24-44.59,3-2,35.12-18.17,34.56-23.59s-30.56,11.59-33.56,9.59c-8-27,23-85,11-86-14-1-24,88-26,90-28.38,23-45.81,24.49-63.23,33.38C10.74,139.51,11.74,149.51,12.25,145c5.49-49.46-12-47.26-12-47.26"/><path class="cls-1" d="M33.42,267c7.32-2.49,12.32-17.49,17.44-22.42,31.88-36.07,55.88-62.07,46.52-103.94.36-4.13,3.36-25.13,1.36-31.14-16,6-68.73,30.73-75.36,49.37S43,195.49,41.86,212,14.74,259.51,21.08,266C22.74,267.51,26.09,269.49,33.42,267Z"/><path class="cls-1" d="M11.66,212c.08-3.49,5.75-12.49,9.42-12s8.12,9.48,8.39,12-5.7,10.51-8.71,10S11.58,215.49,11.66,212Z"/><path class="cls-1" d="M.24,291.85c39.5-4.34,43.5,57.66,54.93,65.7,32.57,20,25.69,46.15,25.63,47.05-5.06,30.91-46.91,36-49,37-6.08,2.95-3.62,47.73-18.08,70.84-10,19.11,0,18.11,1,35.11S.24,565.3.24,565.3"/><path class="cls-1" d="M.24,597.07c70.5,39.44,83.39,217.44,83.5,232-.11,64.39-19,198.39-83.5,203.61"/><path class="cls-1" d="M118.12,579.65c19.62-6.14,21.36,36.72,29,48.29s14.92,68,7.78,81.3,10.9,92.59-2.12,111.93-13,88.34-21.79,97.24c-10.24,10.1-41.19,56.42-47.21,53.26s20.75-41.5,18.86-53.83,37.11-83.78,23.11-97.06,12-96.82-2.52-109.55-17.48-65.72-7.48-78.72S83.49,593.8,118.12,579.65Z"/></g></g></svg>