<svg xmlns="http://www.w3.org/2000/svg" viewBox="0 0 315.55 1067.36"><defs><style>.cls-1{fill:none;stroke:#000;stroke-miterlimit:10;}</style></defs><g id="Capa_2" data-name="Capa 2"><g id="Capa_1-2" data-name="Capa 1"><path class="cls-1" d="M.52,771.19C0,789.43,10.72,913.42,23.87,917.43c74.15-20,87.15-160,105-158.1,41.11,5.1,13.28,117.88,13.2,155.49-.09,33.61,54.91,151.61,70.43,152C245,1068.43,178,977.19,178,915.31c22-145.88-11.93-193.4-46.95-229.14-14-14.74-10.21-56.57-.11-60.65,11.1-4.09,27.17-.13,37.63,10.89,16.47,16,5.47,89,18,102.45C205,767.43,224.4,858.92,239.71,852.67s-23.16-112.54-21.43-120.89C206,683.43,215,618.43,201.94,606.57c-16.92-20.14-60.45-22.83-71.19-34-11.73-10.16-7-20.64-15.88-27.9s-28-6.09-28.95-14.17C83,514.43,165.7,496.61,170.86,491c34.16-26.59,53.78-105.87,62.47-134.73S322.86,251.62,314.44,241c-12.42-14.59-106.09,80.65-104.26,87S196,427.43,157.48,453.29c-28.46,19.14-58.17,13.57-61.81,8.86C87,443.43,91,417.43,107.35,415,147,408.43,137,179.89,136.49,161.16,136,76.43,55-5.57,23,.85c-4,9.58,37,16.58,8.54,77.45C32,85.43,72,72.5,76.48,84c5.54,22.47-43.63,38-45.05,46.25C156,135.43,62,297.43,50.76,283.74,36,266.43.52,268.66.52,268.66"/><path class="cls-1" d="M.52,438.59H60.21C66,526.43,38,515.43,1,561.13"/></g></g></svg>