<svg xmlns="http://www.w3.org/2000/svg" viewBox="0 0 593.56 1064.66"><defs><style>.cls-1{fill:none;stroke:#000;stroke-miterlimit:10;}</style></defs><g id="Capa_2" data-name="Capa 2"><g id="Capa_1-2" data-name="Capa 1"><path class="cls-1" d="M.28,727c31.5-1.34,25.5-174.34,28.3-170.31,21.2,35,72.2,216,100.87,279.46,6.33,9.51-4.67,63.51,43.06,71.45,23.27,5.06,2.27,64.06,24.25,66.94,29,5.12,23-26.88,43.08-30,12.94-5.88,59.94,5.12,65.87-21.43,3.07-14.45,56.07,29.55,54.76,53.42-1.69,36.13,6.2,88.61,44.81,87.63,68.5-5.5-67.5-109.5-34.21-226.05,22-25.53,42-23.35,42.92-49.27.79-8.18-13.21-19.18-6.74-39.82,6.53-23.36,53.53-25.36,57.39-47.43,2.14-19.93-19.34-24.12-20.6-47s19.19-29,19.47-62.44c-4.73-33.47-73.76-85.44-70.75-105.95,60,13.48,116-33.52,118.75-104.91,9.27-27.61,27.27-225.61,62.11-266.45,27.16-36.16,23.16-74.16,4.58-83.69C398-80.76,176.73,139.59,73.61,280.81c-35.88,46.78-38.83,90.83-41.07,85.88-49.76-126,89.24-144,68.7-251.51-1.46-7.54-13.46-5.54-13.4,5.52,3.39,73.49-42.06,93.94-65.79,143.58C4.78,294.64,13.78,320.64.28,329.79"/><path class="cls-1" d="M87.34,379.29s19.48-84.64,96.58-128.74c14-7.09,57.75-96.25,79.65-108,21.84-10.16,95,35.25,68,61.39-58,65.54.66,56.39,42.84,89.56s-116.78,36.54-89.55,63.34c9.77,10.21,117.43,28.71,62,77.66-13.52,8.25-263.26,6.4-270-3.61S87.34,379.29,87.34,379.29Z"/><path class="cls-1" d="M77.11,515.39c18.87-3.62,236.79-12,198.87,62.3-2.2,4.95,159.83,46,91.78,81.17-77.24,39.94-13.78,75-22.95,77.08-95.2,25.48-62.63,57.21-74.09,56.66-59.52-6.13-60.35,37.29-68.17,35.76-10.55,2.36-23.91-36.88-37.79-34.3-3,.58-31-94.25-42.32-124.54C93.26,591.39,81.29,578.7,75.7,559.65c-1.92-7,29.09-9.59,29.65-15.36C105.88,538.88,65.78,517.64,77.11,515.39Z"/></g></g></svg>