<svg xmlns="http://www.w3.org/2000/svg" viewBox="0 0 1057.52 1069.67"><defs><style>.cls-1{fill:none;stroke:#000;stroke-miterlimit:10;}</style></defs><g id="Capa_2" data-name="Capa 2"><g id="Capa_1-2" data-name="Capa 1"><path class="cls-1" d="M629.47,872.53c2.56-2.86,19.56-19.86,24.95-21.22-2.61-3.37-9.39-118.64-.43-118.41s23,108.77,22,113.83c1.91,0,16.08,1.94,26.08,8.94,1-5,2-21,5.37-25.86,1.37-5.87,9.63-20.14,23.8-15.14s11.83,4,20.07,8.22c.25-4.78,1.76-43.22,3.49-46.49-.26-5.27-71.73-80.73-66.22-86s70.49,37.29,81.53,58.81c2-3.49,28-15.52,37-14.52,0-4-1-9-1.88-14.57-.89-1.57-5.12-11.43,6.72-18.51,2.84-3.09,12.16-7.92,17.16-8.92-5-6-9-19-8.58-23.21-1.58-4.21-104.42-45.79-103.57-50.23s89.15,5.44,112.63,22.36C832,639.52,860,606.67,864,606.67c-1-1-8-5-8.49-9.36-3.5-2.36-9.51-12.64-9.95-23.1S854,549.67,856,547.67c-3-1-11-5-14.08-7.8-3.08,1.19-120.92,24.8-121.65,19.66s86.73-34.86,99.54-37.17c-2.19-3.31-13.81-23.69-4.21-40.94-3.4,1.75-15.6,1.25-19.32,0-3.73.75-21.28,2.25-29.69-11.83-2.41-2.07-7.59-12.92-5.59-17.92-4,4-19,13-26.53,14.43C733,468.53,637,546.67,625.57,534c-4.46-6.68,68.46-70.31,78.81-72.49-3.66-2.18-23.35-24.82-20.06-40.35-3.7,6.47-17.29,8.53-23.63,6.62-4.33,3.09-111.66,66.91-115.63,58.86s78-74.95,86.79-76.49C627,405.67,626,385.67,630.31,381c-4.72,3.33-17.28,2.67-24.26,0-5,.33-124,49.67-127.3,40.91s93.28-53.24,99.46-54.32c-.82-2.09-9.18-30.92,0-41.48-5.82,3.43-12.18,1.56-15.71-.78C554,325,432,356.67,431.39,346.43S543,308.67,546.26,308.11c.22-4.57,1.77-26.44,9.77-31.44-11,5-45,5-51.32-12.07-1.31-.07-112.68,12.07-115.95,2.67C386,257.67,494,245.67,501.58,251.4c1.54-5.27.45-30.73,10.45-38.73-18,9-82-10-71.17-76.52,1.83-2.53-30.83,4.52-47.11,14-18.28,5.46-70.72,58.53-72.18,113.22-2.46,12.69,4.46,51.31-2.55,51.37S307,286.67,307.55,262,333,154.67,386.66,129.17a293.66,293.66,0,0,1,48.26-10.55c16.9-2,55.11-17,58.41-38.45C510.63,5.66,564,1.67,601.21.53s91.82,36.14,82.68,43-59.86-27.83-82.7-28c-40.16-.85-85.91,37.24-87.54,64.2-2.62,27,42.38,16,56.86,74.31.52,5.64,2.52,16.64-7.48,32.64,5-1,14,3,19.79,8.86C583,191.67,632,97.67,636.76,103c11.27,13.68-11.73,82.68-42,109.81.27,1.87,8.27,15.87-2.65,37,3.92-.14,10.92.86,19.33,2.48,1.59-3.62,56.59-99.62,75.7-97.2,6.89.58-37.11,89.58-63,108.31.93,6.27,2.93,16.27-7.21,33.37,7.14-1.1,16.14-2.1,27.19,1.09,2.95-3.19,77.95-82.19,85.43-73.17,8.52,9-24.48,59-66,86.4.48,2.58,8.48,13.58-.52,36.58,4-2,20-7,25.69-7.08C702,319.67,763,277.67,800.81,287.7c3.22,2-75.78,52-100.39,63,2.61,2,10.61,4,6.61,20,8-4,28-19,50.06-8,4.94-4,98.75-54.91,105.35-48S839,354.67,773.55,375.92A83.07,83.07,0,0,1,785,403.67c7-3,35-20,54.62-9.45C849,382.67,936,355.67,966.58,373c2.45,7.72-67.55,23.72-110.91,34.88C858,410.67,869,421.67,860,439.67c33-3,65,8,70.24,46.95,5.76-1.95,50.76-19.95,121.56,18.95.2,6.1-31.8-.9-116.08-6.77C937,501.67,947,518.67,923,540.67c4,3,29,21,27.53,36.51,7.47-2.51,104.33-21.52,106.4-14.52s-46.93,30-105.25,35.12C950,601.67,949,614.67,915,615.67c16,8,40,36,12.77,81.05,4.23.95,113.88,28.41,114.56,36.18S928,717.67,911,716.33c-3,3.34-5,6.34-27,12.34,1,4,1,22-1.34,33.85,3.34,3.15,88.34,55.15,88.62,74.58C970,840.67,869,793.67,853.56,782.3c1.47,4.37,10.47,51.37-24.93,78.41,3.4,6,65.93,94.1,62.17,99.53S807,910.67,806.71,871.16c-4.68.51-20.68,7.51-41.76-10.45.08,5,.08,22-3.3,33.11,5.38,5.85,69.3,106.24,62.84,109s-93.46-55.2-77.13-94.81c-3.33-.39-19.33-1.39-27.33-5.39-2,4-16,43-56.28,48.39.28,8.61-2.28,115.61-14.5,118.11-4.22.5-9.22-115.5-12.26-120.37-5-3.13-17-10.13-19-20.13-3,2-28,20-38.73,19.66-5.27.34-72.12,90.28-77.19,84.81S533,949.67,553.18,932.69c-1.15-2-4.15-10-3.15-16-11,9-50,32-82.5-4.95-1.5,2.95-74,89.87-78.77,86.41s58.27-106.46,65.6-111.7c-.33-4.76-.33-17.76,2.67-26.76-4,0-11,0-15.3-1.68C437,860.67,336,917.67,332,911.67s57-66,83.21-69.32c-.21-3.68-4.21-17.68,6.79-29.68-5-1-32-9-40.25-23.59-3.75,2.59-97.89,54.45-101.82,48-1.93-2.43,80.07-69.43,93.86-76.5C373,750.67,383,728.67,397,719.67c-3,0-19,1-23.3-.66-3.7.66-130.7,19.66-130.7,19.66L359.4,700.24l15.74-30.89-25-2.29S235,708.67,237.34,704.49c13.69-23.82,83.69-55.82,94.84-57.1-1.15-3.72-6.15-15.72,3.75-32.87-.9-1.85-2.9-5.85-2.9-8.85-3,1-8.75,2.54-12.37,1.77C317,613.67,222,672.67,220.21,665.23,216,649.67,288,597.67,305.29,595.14c-.26-3.47.74-11.47,3-20.52-4.22,1-25.22,10-37.62,8.47-3.6,2.58-93.6,63.58-96,60.65C169,636.67,235,566.67,246,560.64c-1.93-3-7.93-12-8.62-17.18-9.31,11.21-47.31,43.21-75.8,1.19C159,544.67-2,523.41.53,515,50,499.67,119,499.67,152.88,524.51c-11.85-16.84-3.85-38.84,21.7-43.09C167,475.67,46,417.67,52.63,391.9,58,384.67,186,461.67,215,477c6-.35,31,7.65,29,23.65,3-1,25-13,41.58-12.08C285,485.67,274,373.67,289.3,373c5.73-.28,20.73,107.72,21.27,121.74,6.46,2,26.46,19,20.77,50.77,2.69-1.79,12.69-7.79,15.76-9.1.93-3.69,38.09-122.77,48-120.73s-19.08,110-26.56,121.72c1.48,4.32,4.48,12.32-1.79,33.16,7.27-2.84,18.27-11.84,33.76-5.08.51-7.76,78.87-76.72,84.69-70.74s-49.18,77-66.71,91.52C429,597.67,435,628.67,417.08,649.1c2.95-.43,9.95.57,15,1.41,2-2.84,74.85-90.12,78.41-82.48C517,587.67,448,663.67,443.37,668.3c.66,3.37-1.34,25.37-9,39.06,1.66.31,19.66,1.31,26,8.8.63-2.49,92.63-80.49,98.21-67.06,2.42,21.57-75.58,78.57-85.39,83.8,2.81,7.77,3.81,43.77-3.19,55.77a98.92,98.92,0,0,1,19.26,2.73c1.74.27,12.74,2.27,17.74,12.27,1,1.94,3,13,3.43,20.75,4.57.25,17.57,1.25,23.52,2.06,1-2.81,48-108.81,58.44-103.05C598,726.67,567,840.67,564.25,846.62c1.78,3,7.78,19,7.38,25.91,3.4-1.86,12.13-7.19,19.76-11S616,852.67,629.47,872.53Z"/></g></g></svg>