<?xml version="1.0" encoding="utf-8"?>
<!-- Generator: Adobe Illustrator 24.3.0, SVG Export Plug-In . SVG Version: 6.00 Build 0)  -->
<svg version="1.1" id="Capa_1" xmlns="http://www.w3.org/2000/svg" xmlns:xlink="http://www.w3.org/1999/xlink" x="0px" y="0px"
	 viewBox="0 0 551.6 1067" style="enable-background:new 0 0 551.6 1067;" xml:space="preserve">
<style type="text/css">
	.st0{fill:none;stroke:#000000;stroke-miterlimit:10;}
</style>
<g id="Capa_2_1_">
	<g id="Capa_1-2">
		<path class="st0" d="M0.1,16.9c16-1.4,17.5,2.5,18.8,5C20,25.5,7,43.5,10,41.5c8-6,13-6,19.1-6.3c49.8,5.3,43.2,68.6,18,80.5
			C10.1,143.5,61,131.5,83.6,121C145.1,80.5,35,56.4,74.7,3.2c-7.9,31.7,41.4,59.3,47.5,78.8c11.9,40.5-28.1,53.9-33.8,59.2
			c-60.7,40.3-1.2,53.9,0.3,54.1c70.4-42.8,136.6-32.4,196.5-49.1c105.9-47.7,155-47.5,180.4-47.1c90.5-27.6,111.1,102.2,52.8,119.3
			C294,392.5,41,304.3,41,310.9c-36,32.6,475,40.6,494.4,163.9c5.7,67.7-85.1,89.5-97.7,89.6C308,602.5,168.8,586,132.4,570.8
			C28,551.5,19,482.5,33.2,453.9c-22.2-3.4-12.1,53.4-12.2,57c4,26.6-1.4,49.9-9.7,55.7c18.7,12.9,8.3,72.1,0,79.5
			c18.7,16.4,13.3,72.7,0,80.5c24.7,11.9,9.3,73.2,0,81.5c16.7,14.3,8.3,70.6,0,79c15.7,18.4,6.3,72.8,0,81.5
			C43,955.5,56,992.5,57,1003.5c2.5,29.5-8.5,62.5-22,63c-7.5,0.5-12.5-63.5-20.5-59.5c-7,7-2.3,26.7-14.2,26.7"/>
		<path class="st0" d="M38.2,239.3C7.6,214,86.6,232,115.5,214.1c14.1-11.9,132.1-30.1,198.1-45.1c97.1-30.9,207.6-33.5-35.8,28.7
			c1.8,5.3,60.6,15.8,57.8,24.3s-113-10.3-124.5-2.8c-5.5,4.6-109.5,23.9-119.5,27C83.6,250.1,62.5,254,38.2,239.3z"/>
		<path class="st0" d="M264,446c9.5,5,28.5,10.2,36.8,12.4c16.3,4.4,177.8,25.6,175.8,19.6c4.8-17.3-115.8-57.2-171.2-36.2
			C237.3,391,237,421,237,421S47.5,377.1,47.5,373s-4-10-12.4-15.2S21.5,368,20.8,371.1c-2.2,7.9-2.2,19.9,1.5,21
			c5.3,0.9,16.3-0.5,20.3,1.5c5,2,143,36.3,150,38.2c1.7,0.5,14.3,5,16,6.5C287.5,497.3,456.5,591,264,446z"/>
		<path class="st0" d="M0.1,79.7c25.5-2.8,39.7,20.9,27.5,20.9L0,100.9"/>
	</g>
</g>
</svg>
