<svg xmlns="http://www.w3.org/2000/svg" viewBox="0 0 1200.44 874.56"><g id="Capa_2" data-name="Capa 2"><g id="Capa_1-2" data-name="Capa 1"><path d="M1133.76,135.56c18-14,32-40,3.92-52.08-11.92-4.92-124.92-13.92-117.42,22.58-17.5-33.5-103.5-49.5-105-36,1-33-205-112-200-42-56.5-49.5-146.5,130.5-93,137-37.5,9.5.5,121.5,33.5,127.5-10,6,44,94,71,67-11,17,51,92,86,78-6,26,64,82,92,50-8,13,58,73,81,36-7,18,57,72,78,72-16,14,10,56,33,78-16-6-78,28-63,64-8-17-73-9-76,23-4-12-34-27-48-9-13-52-185.5-88.5-203.5-25.5,0-16-65-36-75.5-19.87,3.5-20.13-62-56.63-92-41.63,4-15-60.5-72.5-85-57,14.5-22.5-56-88-81-65,4-14-34-59-56-49,7-9-58-56-75-35-5-14-72-32-75-7-7-12-53-22-76-5-4.5-8.5-62.5-8.5-68,10-27,2-32,20-4,31,7,6,27,11,53,6,7,7,50.5,16.5,72,3-5.5,15.5,27,20,55,15-7,10,32,39,62,34-12,10,37,45,62,40-6,6,46,65,83,68-18,14,65,84,89,70-6,19,75.5,57.5,102.5,52.5-7,16,60,43,90,37-34,34,138.5,99.5,200.5,32.5-1,11,56,20,78-5,9.5,17.5,117-16,121-48,47,8,114.5-91.5,98-115,27-7,19-117-23-134,16.5-24.5-84-108-125-88,7-10-45-55-86.21-38.5,21.71-21-44.79-56.5-78.79-43.5,27-19-60-75-76-64,8-11-43-64-62-68,16-9-8-40-7-66,16-2,36.5-41.5,39.5-56.5,10,5,109.5,63.5,130.5,41.5-2,12,70,34,110,4C1008.76,191.56,1115.76,149.56,1133.76,135.56Z"/></g></g></svg>