<?xml version="1.0" encoding="utf-8"?>
<!-- Generator: Adobe Illustrator 24.3.0, SVG Export Plug-In . SVG Version: 6.00 Build 0)  -->
<svg version="1.1" id="Capa_1" xmlns="http://www.w3.org/2000/svg" xmlns:xlink="http://www.w3.org/1999/xlink" x="0px" y="0px"
	 viewBox="0 0 272.8 1064.3" style="enable-background:new 0 0 272.8 1064.3;" xml:space="preserve">
<style type="text/css">
	.st0{fill:none;stroke:#000000;stroke-miterlimit:10;}
</style>
<g id="Capa_2_1_">
	<g id="Capa_1-2">
		<path class="st0" d="M0.7,205c5.5-0.7,8.5,2.3,11.5,4.2C1.7,181.3,107.9-9.5,125,0.9S34.6,207.2,23.9,209.2
			c61.3,14,23.3,63,51.7,76.8c5.7,1.2,35.3,38.2,37.5,50.7c55.2-7.5,9.2-54.5,86.9-106.5c20.2-7,16.3,16.1,15.8,21.6
			c-44.5-1.5-44,51.8-62.3,78.6c6.8,19.8-29.7,24.9-34.4,37.9c20.2,51-24,68.4-36.4,68.2c-65.4-4.2-36.8,14.2-34.6,16
			c53.2,2.8,49.8,14.5,51,17.1c66.2-6.3,101,18.1,93.6,28.9s-27.4-1.1-39-4.2c-37.5-6.8-41.4,16.9-31.4,21.9s90,203,90.8,212.6
			c-0.8,8.4,57.2,34.4,59.3,42.8c0.9,33.5-54.1-16.5-49.3-6.8c8.2,19.4,88,229.4,13.1,261.4c-99.9,43-137.9-242-148.9-248
			c-22-18,7,48,0,57c-27,33.6,13.5,56.4-4.2,86.8c-17.8,14.3,5.6,37.8-5.1,57.5c-33.7,21.8,1.3,20.8-32.4,67.6
			c-11.3,14.2-34.3,16.7-44.8,16.7"/>
		<path class="st0" d="M0.7,571.7c12.5-0.4,42.4,87.8,46.5,118.2c-3,34.4-27-3.6-47,4.3"/>
		<path class="st0" d="M0.7,715.7c68.5,1.6,65.5,32.6,64,35.4c-29.5,44.2,7.6,46,0.6,78.6s-64.6,4.6-64.6,4.6"/>
		<path class="st0" d="M0.7,303c83.5,1.3,40.5,94.3,0,94.2"/>
		<path class="st0" d="M42.2,493.2c42-16.9,72.4,103.6,98.2,147.4c19.8,45.7,123.9,271,76.3,314.9s-52.5-60.9-105.5-210
			S0.3,510,42.2,493.2z"/>
		<path class="st0" d="M26.2,231.3c-6,0-12,7-12,12s12,15,17,15s8.6-7.1,8.3-13.6S32.2,231.3,26.2,231.3z"/>
	</g>
</g>
</svg>
