<svg xmlns="http://www.w3.org/2000/svg" viewBox="0 0 1118.99 880.5"><g id="Capa_2" data-name="Capa 2"><g id="Capa_1-2" data-name="Capa 1"><path d="M258.59,429.55c3,18.33,5,38.33,19.53,39.83-3.5,5.5-.5,53.5,39,42,146.5-79.5,8.5,227.5,48,212,24.5-6.5,144.5-343.5-40-266,.5-6.5-13.95-17.5-19.22-13.5,13.72-9,1.72-79-29.78-115.5,7.5,8.5,45.5,21.5,66,15-7,34,95,119,127,114,8.5,4.5,40.5,7.5,48.72,4.1-5.22,5.4-27.22,145.4-6.22,146.4-4,6,71,151,85,156-2,4,3,41,14,46,4,3-11,55,13,52s0-85.53,0-85.53,9-38.47-15-53.47c19-23-77-116-57-124s26-117,24.5-132.5c4.5,4.5,26.5,9.5,35,7-8.5,6.5-28.5,170.5,19,129-4.5,6.5,17.5,98.5,48,89-2.5,1.5,11.5,62.5,34,55-.5,17.5,12.5,57.5,23,55-1.5,9.5-22.5,82.5,9,79s9.5-83.5,12-92c20.5-21.5-26.5-53.5-23-60,10.5-20.5-36.5-47.5-32-57,12.5-24.5-45.5-76.5-28-85s1.5-90.5-4-99.5c5.5,3,39.5,7,48-3.5,25.5,12.5,166.5,6.5,195-26,38.5,9.5,184.5-75,192.25-111s-13.25,0-26.25-2c-32-7-1-32,30-38,25-9,3-22-27-21s-38-26,27-45c19-7-55-55-99-49s-49-19,5-50c16-11-24-39-107.5-11.5-31.5,11.5-30.5-25.5,13.5-50.5,62-30-146-49-246-5.23-26.5,13.73-23-46.77,0-66.77s-133,0-213,68c-27,23-41-26-31-46s-153.5,64.5-161,101c-8.5-6.5-90.5,11.5-110,34-8.5-5.5-71.5,10.5-82,39-2.5-7.5-127.5,13.5-54,135,13.5,24.5,72-3,72-3s-3.5,101.5,19,116c39.5,186.5-23.5,211.5,5,223s51.5-117.5,30-218c62.5,82.5,38.5,202.5,60,204s27.5-130.5-32.5-232c7-8.5-36-88.5-24.5-104,11.5,2.5,42.5.5,50-10-3.5,7.5-5.5,40.5,16.5,42.27-15.5,23.73,2,133.23,16,160.23-1,8-9,28,30,61,123-42-27,140,6,160,19,15,184-285,11-188,1-10-10-38-19-46C264.62,493.88,262.62,484.88,258.59,429.55Z"/></g></g></svg>