<svg xmlns="http://www.w3.org/2000/svg" viewBox="0 0 406.16 1075.1"><defs><style>.cls-1{fill:none;stroke:#000;stroke-miterlimit:10;}</style></defs><g id="Capa_2" data-name="Capa 2"><g id="Capa_1-2" data-name="Capa 1"><path class="cls-1" d="M.13,127.39c11.5,0,17.09,7.12,17.09,7.12,3.41-5,65.45-63.72,70.93-60.37S27.43,134.22,27,145.36c-.4,26.14,46.3,17.47,66.45,39.3,5.15,2.84,11.15,13.62,14.15,20.23,22,27.61,6,58.29,4,62.95-12,25.66-41,28.51-53,27.09-6,.57,27.94,29.34,29.47,45s5.44,13.42,7.49,13.51c5-51.9,26.26-64.11,39.65-68-2.6-13.9,5.25-79.68,3.82-91.79C135.63,152.5,190.63.5,196.63.5s-40.39,191.17-40.2,195.58-5.8,90.42-7.8,96.42S112.19,367,110.91,372.27c.72,5.23,1.72,86.23.72,90.23,2,12,47,61,78.18,62.6,26.82,0,57.82,59.4,60.82,64.4s135.72,43.4,140.86,49.2c10.14.8,15,6.16,14.06,10s-13.43.7-18.18-.24S253.63,608.5,241.63,603.5s-24.92-67.81-60.46-57.41c-11.54,4.41,22.22,49.73,31.84,65.57C378.63,876.5,379.63,1000.5,338.44,1020.58,297.63,1043.5,209,979.39,205.79,982.45s26.53,84.64,18.18,91.85S190.63,959.5,104.61,887.85c-24,11.65-66,87.59-104.48,87.59"/><path class="cls-1" d="M.13,849c50.5,2.5,55.18,14.5,56,32.5s-22.5,38-56,38"/><path class="cls-1" d="M.13,378.1C64.63,364.5,76.46,410,76.46,410c16.17,52.51-7.24,95.63-7.24,95.63C45.63,546.5.13,534.68.13,534.68"/><path d="M116.09,533.12c8.47,0,33.62,39.78,65.64,103.83,3,6,14.9,27.87,29.94,55.51,35.28,64.81,88.58,162.75,94.45,179.59.87,2.51,2,5.61,3.35,9.2,6,16.06,15,40.32,19,63.92,4.81,28.07,1,47.08-11.41,56.5a12.7,12.7,0,0,1-6.29,1.33c-23.93,0-82.41-35.54-95.6-44.33-7.07-4.71-48-45.88-93.2-93.73-39.91-42.25-84.37-91.2-89.45-101.87-9.78-20.53-3-95.12,2.84-119.19,5.71-23.62,55.17-94.78,79.76-110.52a1.9,1.9,0,0,1,1-.24m0-1a2.82,2.82,0,0,0-1.46.38c-25,16-74.46,87.29-80.23,111.15S21.63,742.5,31.63,763.5s168,186,183,196c13.45,9,72,44.5,96.15,44.5a13.53,13.53,0,0,0,6.85-1.5c33-25-2.13-106.55-10.57-130.78S192.63,656.5,182.63,636.5C173,617.24,130,532.12,116.09,532.12Z"/></g></g></svg>