<?xml version="1.0" encoding="utf-8"?>
<!-- Generator: Adobe Illustrator 24.3.0, SVG Export Plug-In . SVG Version: 6.00 Build 0)  -->
<svg version="1.1" id="Capa_1" xmlns="http://www.w3.org/2000/svg" xmlns:xlink="http://www.w3.org/1999/xlink" x="0px" y="0px"
	 viewBox="0 0 184.5 1070.3" style="enable-background:new 0 0 184.5 1070.3;" xml:space="preserve">
<style type="text/css">
	.st0{fill:none;stroke:#000000;stroke-miterlimit:10;}
</style>
<g id="Capa_2_1_">
	<g id="Capa_1-2">
		<path class="st0" d="M0.5,98.5c6.5,0,7.1,8.1,13.3,8.4C29,107.1,35.1,96.7,55.3,96c14.1-0.5,39.7,24.1,48.1,15.8
			c7.7-7.7-43.3-43.7-38.8-64C68,30.1,87.3,18.2,86.1,7.7c-0.2-9.6,14.8-9.6,14.4,0C100,19.1,85.9,35.5,88.4,44.3
			c7.6,19.8,53.6,55.8,53.9,67.4c0.6,9.3-14.1,25-13.2,34.2c-2.1,14.2,57.1,155.5,35.9,168.9c-14.5,5.9-29.9-94.8-57.2-153
			c-15.3,18.8-47,63.7-48.4,80.4S72.2,310,83.6,320S170,432.8,171,451s-34.9,99.5,10.5,154.8c7.4,9.3-3.6,15.3-11,8.8
			c-11.6-8.5-29.9-40-29.7-60.8s8.1-57.4,5.6-77.6C145,458.1,84,363.1,73.8,371.5c-7.8,6.6,16.4,36.2,18.8,40.4
			C148,529.1,118,680.2,139.9,755.1c2.5,5.4,0.9,29.2-8.6,42.6C91,874.1,105,1099.1,90,1066.6c-50-116.5,26.3-255.1,12.7-273.8
			C86,765.1,118,670.1,84,616.1c-8-27-4.6-37.8-7.3-39.4C57,578.1,49,837.5,0.5,835.3"/>
		<path class="st0" d="M0.5,262.4c9.5,3.8,22.1-15.1,33.3-12.2s10.8,14.7,8,17.3S29,282,0.5,282"/>
		<path class="st0" d="M31.3,307.1c-10.3,0-10,6.1-10.2,10.5s0.5,9.7,12.6,9.7s17.3-4.3,17.3-13.3C51.1,309.1,41.6,307.1,31.3,307.1
			z"/>
		<path class="st0" d="M0.5,352.1c9.5,28,21.3,162.3,18.4,204.6c83.1,24.4-18.4,28.6-18.4,28.6"/>
		<path class="st0" d="M0.5,627.6c0,0,21.7-0.9,21.7,8.3s-21.7,9.8-21.7,9.8"/>
		<path class="st0" d="M27.3,128.9c17.7-22.8,52.4-10.2,58,5s-43,82.4-38.2,42.2S26,134.1,27.3,128.9z"/>
	</g>
</g>
</svg>
