<svg xmlns="http://www.w3.org/2000/svg" viewBox="0 0 973.09 1061.81"><defs><style>.cls-1{fill:lime;}</style></defs><g id="Capa_2" data-name="Capa 2"><g id="Capa_1-2" data-name="Capa 1"><path id="path1428" class="cls-1" d="M170.07,216.4l56.7,98.17-56.7,98.17H56.69L0,314.57,56.69,216.4Zm576.25,98.17L803,216.4H916.4l56.69,98.17L916.4,412.74H803ZM733,955.69H619.57l-56.69-98.17,56.69-98.18H733l56.69,98.18ZM916.4,650.57l56.69,98.17L916.4,846.92H803l-56.69-98.18L803,650.57ZM789.65,640.08,733,738.26H619.57l-56.69-98.18,56.69-98.17H733ZM803,629.48l-56.69-98.17L803,433.14H916.4l56.69,98.17L916.4,629.48ZM733,520.94H619.57l-56.69-98.17,56.69-98.18H733l56.69,98.18ZM190,206.26l56.69-98.18H360.08l56.69,98.18-56.69,98.17H246.7Zm244.39-9.91L377.71,98.17,434.4,0H547.79l56.69,98.17-56.69,98.18ZM547.79,412.74H434.4l-56.69-98.17L434.4,216.4H547.79l56.69,98.17ZM733,304.43H619.57l-56.69-98.17,56.69-98.18H733l56.69,98.18ZM226.77,748.74l-56.7,98.18H56.69L0,748.74l56.69-98.17H170.07Zm321-98.17,56.69,98.17-56.69,98.18H434.4l-56.69-98.18,56.69-98.17Zm0,411.24H434.4l-56.69-98.17,56.69-98.17H547.79l56.69,98.17ZM246.7,955.69,190,857.52l56.69-98.18H360.08l56.69,98.18-56.69,98.17Zm0-631.1H360.08l56.69,98.18-56.69,98.17H246.7L190,422.77ZM547.79,629.48H434.4l-56.69-98.17,56.69-98.17H547.79l56.69,98.17ZM246.7,738.26,190,640.08l56.69-98.17H360.08l56.69,98.17-56.69,98.18Zm-19.93-207-56.7,98.17H56.69L0,531.31l56.69-98.17H170.07Z"/></g></g></svg>