<svg xmlns="http://www.w3.org/2000/svg" viewBox="0 0 616.57 1067.73"><defs><style>.cls-1{fill:none;stroke:#000;stroke-miterlimit:10;}</style></defs><g id="Capa_2" data-name="Capa 2"><g id="Capa_1-2" data-name="Capa 1"><path class="cls-1" d="M.05,80.74C48.55,85.5,55.1,65.58,67.32,63c36.23-2.54,53-15.52,52.12-25C121.55,16.5,152.55-6.5,153.55,2.5c2.35,52.8-67,69-79.81,85.36C69.55,93.5,68.55,99.5,67.84,103c-.29,4.5,21.9,17.45,23.31,25.47,3.4,8,11.22,42.88,11.81,45.46,4.59,8.57,53.75,49.44,65.67,50.51s21.22-9.67,43.57-9.3c66.35-38.64,45.35-61.64,83.13-105.61,24.22-30,87.16-60.08,98.19-63s11.13,9.46,9.08,14.24C393.55,82.5,358.55,96.5,343.67,102,331.55,108.5,282.55,213.5,232,241.53c-32.43,15-34.69,28.39-34.56,29.18C192.55,307.5,100,351.14,100,351.14,302.55,320.5,271.55,460.5,313.21,594.93c.34,2.57,137,8.76,138.69,11.16,22.65,11.41,57.65,122.41,79,144C551.55,767.5,605.45,787,616,799.24c-9.45,27.26-105.26-38.92-108.86-52.33-9.59-16.41-53.33-111.85-59-116.13s-127.77-4.26-129.7-2.27c1.07,23-18.36,124.5-23.15,131.25C370.55,815.5,401.55,868.5,405.7,896.9c24.85,117.6,107.55,137.88,116.2,167.74-16.35,16.86-112.35-50.14-139.35-160.33-11-50.81-79.21-99.78-99.11-108.79C268.55,815.5,191.55,998.1.05,998.1"/><circle class="cls-1" cx="110.55" cy="750.5" r="51.5"/><circle class="cls-1" cx="159.05" cy="500" r="51.5"/></g></g></svg>