<svg xmlns="http://www.w3.org/2000/svg" viewBox="0 0 340.24 1078.9"><defs><style>.cls-1{fill:none;stroke:#000;stroke-miterlimit:10;}</style></defs><g id="Capa_2" data-name="Capa 2"><g id="Capa_1-2" data-name="Capa 1"><path class="cls-1" d="M0,116.46C7,116.38,14.91,103,17,103s.76,15.82,7.4,17.61C32,122.38,36,93.38,53.82,69.23,59,62.38,101-14.62,148.47,3.16,122-3.62,45,66.52,37.48,137c35.53,11.43,84.11,83,16.82,101.7-49.29-1.27,1.56,31.07,1.63,47.4C41,345.38,115,313.38,128,312.38c21-2,100.65,23.72,60.83-14.64C154,255.38,178,176.38,152,136.43c-22-61.05,67-54.05,76-35.05,4,8,141.58,96.4,105.79,197.7-12.79.3-57.79-174.7-150.36-173.76-20.43,1.06,27,29,52.79,62-13.22,15,4.31,40.28,16.54,38.15-19.76,20.88-10.31,47.37,6,52.12,10.28,49.76-26.92,79.56-37.32,82.16-63.4,13.6-115.4,12.6-126.88.32C57,318.38,62.8,381.77,50.9,398.58,56,425.38,24.37,479.71,56.69,501c-5.68,35.34,49.57,75.5,55.44,93.42C123,574.38,168,507.38,189.42,479.84c22.59-55.46,75.59-35.46,66,1.84,1.55,19.7,46,155.93,49.79,161.82C316,659.38,233,868.38,202.66,867.8c-11.65-.42-9.09-9.88-9.09-9.88,1.92-10.17,21.35-5.78,23.8-17.66,19.64-22.88,46.41-112,47.52-122.46,31.12-44.42-6.7-128.06-8.29-136.74S242,492.38,226.8,487C219,499.38,146,619.38,142.94,622.25,137,669.38,86,625.38,76.93,660,75,680.38,75.83,747,75.42,751.2c11.59,5.18,58.5-92.05,72-104.44,11.55-19.38,56.55-92.38,63.12-94,34.43-7.34,42.43,30.66,14.21,82.85C218,755.38,159,828.38,179,948.64c-1,32.74,23,128.74,13,129.74s-17-36.45-15-41.23c-4-10.77-18.11-114-24.06-131.38C143,877.38,206,664.38,196.5,645.51,175,657.38,147.42,754.37,125.71,773.37c4.3,12-17.57,44.36-21.14,48.69s-5.17,43.13-5.87,51.22-.4,34.78-4.55,45.94-19,33.92-27.56,42.54S47,979.38,41.09,988.62c-12.08,20.76,4.39,73.14,3.65,76.95C34,1058.38,25.23,1024,23.62,1023.7,18,1025.38,12,1070.76,0,1070.76"/><path d="M35.17,166.55v1c18.74,0,29.28,18.48,30.43,21.88,5.59,16.67-1.6,25.15-6.15,27.29a16.45,16.45,0,0,1-6.55,1.38c-7.84,0-14.93-5.6-19.5-10.29-5.34-5.49-9.12-11.68-10.11-14.35-.06-.21-.17-.47-.33-.87-4.12-9.89-2-18.1,6.17-24.42a30.74,30.74,0,0,1,6-.62v-1m0,0a31.49,31.49,0,0,0-6.46.68C14,178.38,22,192.38,22.34,193.76c2,5.55,15.39,25.34,30.56,25.34a17.31,17.31,0,0,0,6.94-1.46c5.84-2.74,12.17-12.26,6.71-28.53-1.31-3.86-12.12-22.56-31.38-22.56Z"/></g></g></svg>