<svg xmlns="http://www.w3.org/2000/svg" viewBox="0 0 396.54 1072.37"><defs><style>.cls-1{fill:none;stroke:#000;stroke-miterlimit:10;}</style></defs><g id="Capa_2" data-name="Capa 2"><g id="Capa_1-2" data-name="Capa 1"><path class="cls-1" d="M0,.5c8.5.15,11.5,286.15,23,300.65,13.5,13.5,21,23.5,21,26s-20.5,9.5-17,10c15.5,1.5,13.44,24,12.5,26.25s58-27.75,72.5-52.25,26.5-94.5,28-97,141.5-109.5,147-104-118.5,107.5-128,126,3.5,28.5-26,89-83,61-83,61c10.5,5.5,29.5,13.5,38,14s136.5-22.5,145-23c115.5-17.5,138.14.5,146.32,23s-58.82,69.5-78.32,77-128.5,14.5-129,15,77.5,138.5,83,146,143.5,114.5,141,119-97.5-37.5-109-43-62.5-52.5-69-58-83.5-154.5-89-161-65-17-60.5-11.5,61.5,97,62,104.5-38,165.5-36.5,179c.5,18.5,117.5,298.79,104,304.64S43.51,776.65,43,769.15s44.5-167.5,44-174S20.41,458,21,464.82s15.55,47.83,13,102.33S18.51,683.56,0,683.56"/><path class="cls-1" d="M17,421.15c-.5-4.5-.5-15.5,13-18s25.08,5.5,26.29,9-13.79,9.5-19.29,10S17.51,425.65,17,421.15Z"/></g></g></svg>