<svg xmlns="http://www.w3.org/2000/svg" viewBox="0 0 809.5 1068.14"><defs><style>.cls-1{fill:none;stroke:#000;stroke-miterlimit:10;}</style></defs><g id="Capa_2" data-name="Capa 2"><g id="Capa_1-2" data-name="Capa 1"><path class="cls-1" d="M1.1,1067.64C65.6,1068,101.6,809.86,103.72,701,247.6,869.86,448.6,640,455.31,636.67c5.29-10.66,178.29-103.66,6-161C438.6,466,366.6,462,351.29,450.68,402.6,454,514.6,471,587.11,440.66,704.6,395,810.6,159,807.62,118.91c5-30.9-4-79.9-19.12-89.1C652.6-98,207.6,227,113.19,336.82,92.6,344,73.6,288,68.56,285.45c10-9.44-1-47.44,7.65-55.2,13.39-11.24,51-29.7,90.6-51.46C189.6,170,210.6,154,225.49,145.87c16.11-9.86,39.1-13,39.07-14.35-1-4.51-26.41-8.15-53.38-1.68C201.6,132,181.6,151,164.93,157c-23.33,8-73.33,67-122.24,45.54C24.6,181,1.1,185.9,1.1,185.9"/><path class="cls-1" d="M712,68.61C721.6,82,639.6,162,660.62,212.19c14,33.82,13,60.82,0,78C615.6,350,542.6,326,560,314.72,591.6,294,613.6,136,591.72,105.23,565.6,72,702.3,55.22,712,68.61Z"/><path class="cls-1" d="M470.69,155.21C421.6,147,228.23,317,230.6,332.85,232.23,348,240.6,434,268,402.7,338.6,359,349.6,426,410.31,388.21,425.6,377,492.2,260.62,493.4,238.81S503.6,164,470.69,155.21Z"/><path class="cls-1" d="M134.6,468c-30,18-60,99-53.5,137.5s129.41,127.9,123.46,72.2,27.6-91.18,48.32-112.94S380.6,548,374.6,516,164.6,450,134.6,468Z"/><path class="cls-1" d="M.1,277.86C13.6,275,36.6,284,85.58,359.52c5,26.49-23.1,31.76-27,28.12C70.6,337,12.09,311.44,1.08,313.48"/><path class="cls-1" d="M1.11,864.51c4,0,33.49,114,24.49,135.76s-19,37.86-24.5,38.3"/><path class="cls-1" d="M1.1,716c7.5,0,36.5,22.55,38.5,41.29s-31,83-38.5,83.88"/></g></g></svg>