<svg xmlns="http://www.w3.org/2000/svg" viewBox="0 0 402.91 1049.88"><defs><style>.cls-1{fill:none;stroke:#000;stroke-miterlimit:10;}</style></defs><g id="Capa_2" data-name="Capa 2"><g id="Capa_1-2" data-name="Capa 1"><path class="cls-1" d="M0,72.25c21.5,0,54.5,3,66-15.5s27.5-31.5,34-35c40.5-18.5,98.5-30.5,173-12S406,100,402.24,107.1c-10.73-.85-28.73-3.85-32.23-7.35C257.51-.75,135.56,39.19,121.78,56,113,66.75,104,73.17,108.27,81.21c16.24,8,71.7,75.88,76,82,36.27-17.92,48.8-41.88,56-38.4,11.23,4.48-21.33,55.58-28.05,57-12.72,2.45-8.43,12.56-5.57,17.5,10.85,15.95,23.85,54.95,18.81,61.21-3,2.74-10.39-2.73-11.68,0s11.92,19.51,18.82,21.62,56,10.91,57.95,20.51c1.95,18.61-41.05,7.61-43.29,15.85-2.76,7.76,4.24,31.76,1.74,39.26s-11.28,9.2-11.89,12.35C234.51,383.25,250.46,391,253,391.64c24.53,5.61,41.92,23,40.73,29.78s-33.55-2.19-36.88,8.32c-2.32,11.51,1.68,29.51-12.52,36.34-3.8,2.17-9.8-3.83-10.86-1.94-1.94,2.11,23.2,49.43,24.13,72.77.93,34.34,40.93,37.34,35.41,61.18-6.48,17.16-53.5-18.65-55.49-19.75,17,66.91,4.07,93.83,3,99.87s50,52,43,61-45.93-13.82-50-14.91c0,13.92-7.57,32.34-11.81,33.13-10.23,5.79-7.36,54.85-1.8,58.32,8.57,4.47,18.17,57.17,12.87,58.32-14.3-3.85-28.67-30.35-37-24.1-8.32,15.25-21.66,14.13-23.49,13.69,28.17,13.56,38.12,74.69,32.64,77.62s-33.35-29.93-40.41-26.5-4.06,10.44-12.71,12.28c-2.35.16-3.35-1.84-6.13-1.08-11.22,5.24-7.84,29.11-4,35.17s9.49,31.07-.35,38.57-24.07-44.11-34.45-40.31c-4.39,1.81.61,20.81-17.11,24.12-7.28.69-15.83-8.23-17.56-9.27-3.72,16,21.94,50.43,25.61,57.69,3.67,16.27-15.24,21.64-23.29,14S34.79,996,31.65,993.14s4.3,30.12-.92,34.61c-13.22,7.5-14.17-6.35-16.2-9.93-1-2.57-12-2.57-14.52-2.57"/><path class="cls-1" d="M0,90.25c27.5,0,35.43,33.06,63.32,3.81C80.44,74.31,202.49,232.6,183.5,240.42S0,245.46,0,245.46"/><path class="cls-1" d="M0,280.25c22.5,0,160.72-7.46,172.57,3.07s39.93,125.93,28.93,136.93c-74-18-166,0-201.5,0"/><path class="cls-1" d="M0,464.52c3.5,0,170.49-8.73,179.5,0s33.42,154.44,23,162.58c-23.43-11.85-96,0-202.5,0"/><path class="cls-1" d="M0,673c84.5,0,163.5-15.21,175.5,0s-15,152.21-34,160.21c-17-35-116-41-141.5-41"/><path class="cls-1" d="M0,843.25c50.5,0,112.5,16,112.5,28s-68,83-112.5,83"/></g></g></svg>