<svg xmlns="http://www.w3.org/2000/svg" viewBox="0 0 775.07 1074.28"><defs><style>.cls-1{fill:none;stroke:#000;stroke-miterlimit:10;}</style></defs><g id="Capa_2" data-name="Capa 2"><g id="Capa_1-2" data-name="Capa 1"><path class="cls-1" d="M.43,120.13S98.77-48.13,258.35,14.45C275.93,35,62.69-8.68,43.81,124.18,124.93,141,129.3,223.7,103.62,238.87s13.52,66.07,13.92,84.12c22.39-5.95,62.67-144.52,71-154.74C197.93,148,301.93,78,306.93,87S199.58,186.27,204.26,203.16,143.93,314,153.31,327.67C185.93,368,540.93,181,712.38,203.05c120.55,4,33.68,127.66,5.61,132.32-82.06,69.67-149.5,77.88-193.28,73.77,45.22,48.9-26.1,60-39.44,61-118.34,6.93-212.63-2.7-243.49-9.88-35.85-7.19-102.59-52.82-125.22-40.51C100.93,427,100,438,98.47,440.51c21.46-16.47,46.34.24,48.9,3.38,37.56-14.85,85.15,78.17,118.36,92.66,7.2.49,38.2,53.49,114.45,106.8,5.75,11.69,72.38,44.39,72.57,55.54s-9.42,11.54-14.12,11.84C259.93,579,269.93,548,260.2,566.15,258.93,567,167.93,467,142.93,463s-45,11-45,12,29.05,10.15,33.53,11.07c26.47,5.93,26.41,33.63,26.44,35.78,2,2.15,104,201.27,104,205.21,6,3.94,41.07,57.09,58,77,33,22.93,8,44.93-11.6,6.22C294.93,791,266.93,770,251.15,734.26c-28.21-32.24-54.42-112-54.42-112C199.93,667,126.93,507,120.93,508c-5,3-10.34,5-14.67,8.51C148.93,557,145.93,619,137.93,635c27,19,34,98,18,118,26,38-6.81,125.45-29.9,137.72C143.93,931,94.93,991,74.93,993c16,37-60,97.12-74.5,76.56"/><path d="M38.4,150.57c8,0,27.73,11.81,37.44,27.51,4.09,6.61,7.92,16.56,3.08,26.52a17.87,17.87,0,0,0-1.8,1.65c-2,2-4.51,4.51-9.37,4.51-4.21,0-9.61-1.9-16.06-5.65l-.13-.08-.15,0c-14.56-3.35-22.81-11.11-27.16-17-5.29-7.19-7.83-15.65-7-23.21,1-8.88,6.37-14.17,14.34-14.17h0a20.69,20.69,0,0,1,4.12.43l.33.06.3-.14a4.74,4.74,0,0,1,2-.37m0-1a5.7,5.7,0,0,0-2.47.47,21.58,21.58,0,0,0-4.32-.45c-24.46,0-21.41,47,19.58,56.38,7.4,4.31,12.67,5.79,16.56,5.79,7,0,9.51-4.8,12-6.5,12.88-25.8-27.7-55.69-41.31-55.69Z"/><path class="cls-1" d="M170.93,391c-5,4-15,10-40-1-20-9-17-29-11.12-29,11.12-1,43.12,13,50.12,13s15-5,21-7c102-29,151-22,218-40s123-53,187-60,92.23,5.66,97.61,14.33c2.39,4.67-61.61-2.33-96.61,5.67s-124,47-186,61-147,22-149,26,212,11,202,26-188-1-203-2C243.93,382,175.93,387,170.93,391Z"/><path class="cls-1" d="M.43,508.23c60.5,0,105.73,29.91,99.62,43.86S42.93,571.62.43,571.62"/><path class="cls-1" d="M.43,644.29c60.5,0,115.79,21,110.15,30.86s-50.65,40-110.15,40"/><path class="cls-1" d="M.43,767.27c58.5,0,137.85,19.77,122.67,40.27S54.93,855.15.43,855.15"/><path class="cls-1" d="M.43,891.18c48.5,0,88.72,12.39,80.11,22.62S31.93,943.41.43,943.41"/><path class="cls-1" d="M.43,250.12c29.5,0,73.5,77.92,73.5,104.92,0,56-41,88.62-73.5,88.62"/></g></g></svg>