<svg xmlns="http://www.w3.org/2000/svg" viewBox="0 0 865.51 1053.62"><defs><style>.cls-1{fill:none;stroke:#000;stroke-miterlimit:10;}</style></defs><g id="Capa_2" data-name="Capa 2"><g id="Capa_1-2" data-name="Capa 1"><path class="cls-1" d="M.05,114.26c79.5,0,220.5-129.63,238.44-112.14C252.55,10.63,79.55,133.63,68.74,147.7c-1.69,11.43,57,30.68,61.17,48.56s-4.46,76.84,17.34,81.86c26.3,4.51,66.3-23.49,98.44-53.78,33.86-34.71,33.36-94.21,58.5-114.35,2.86-2.86,91.36-58.36,101.58-49.25,10.78,10.89-83,90.08-82.37,127.24S182.53,338.13,188.29,349.13,636.87,80.64,845,225.63c93.59,109-168.21,218.86-216.56,257,0,0-119.56,70.53-234.46,74s-167.26-46.25-247.08-58S194,527.44,313.54,610.79s180.4,183,178.46,192.65S442.44,848.9,309.75,669c-39.2-58.39-157.2-93.39-157.73-89.21-.47,18.82,148.41,275.55,232.72,335.94,59.81,29.88,19.81,52.88,11.2,51.9-10.39-2-144.58-101.07-205.23-204.79C175.05,836.13,148.05,1038.11.05,1053.12"/><path class="cls-1" d="M.05,692.46c83.5,0,123.73-56.73,129.61-54.28s17,85.43,13.94,149.94-15.75,114.53-54.4,154S22.55,987.43.05,987.43"/><path class="cls-1" d="M.05,334.63c103.5,0,148.24,66.61,137.87,77-18.37,16-32.37-22-137.87-22"/></g></g></svg>