<svg xmlns="http://www.w3.org/2000/svg" viewBox="0 0 402.69 1069.86"><defs><style>.cls-1{fill:none;stroke:#000;stroke-miterlimit:10;}</style></defs><g id="Capa_2" data-name="Capa 2"><g id="Capa_1-2" data-name="Capa 1"><path class="cls-1" d="M48.81,267.83c12.5,0,18.48-1.61,20-3.06,5.51-5.44-2.93-22.68.29-25.56,5.22-3.88,28.22,23.12,17.77,43.55-2.55,5.57,54.25-11.73,61.85-13.08,90.6-23.35,107.32-7.51,113-4.93s11.64-6.42,11.14-17.92-16-31.58-19.25-32c-10.25,17.54-38.25,32.54-29.27-65.39,7-87.07-63.13-84.23-67-108.07,5.85-27.16,79,37,79.94,21.09.06-17.09-66.11-46.71-57.94-59.09,15-20,156,71,168.44,117.75,21.56,34.25,18,64.65,9.29,94,.27,58.3-49.34,86.87-79,97.09s-46.33,14.35-74,17.28c-27.69,6.93-66,6.1-73.86,5.52,4.17,11.41,5.17,32.41,5.17,38.41,5,4,8,8,11,11a18.79,18.79,0,0,1,20.18-9c18.82,3,12.82,22,45.22,18.61,3.6-1.59,31.6,36.41,85.65,23.31,17.95-5.9,10.82-51.73,21.39-63.82s22.56-4.08,21.39-3.17c-16.83,15.09-4.08,80.64-24.95,91.36s-89.21,4.22-110.55-14c-13.33-4.24-42.54-14.44-43.43-10.34,4.1,3.1,6.72,11.4,6.91,14.25,22.19-2.15,41.43,27.81,43.81,32.33,15.38,3.52,43.38,50.52,55.36,55.3,11,3.22,37.72,1.55,43.37-.78s17.53-43.31,30.09-49.16,23.38-4.08,20.47,4-15.92,7-17.41,10.54c-7.5,37.58-20.5,53.58-30,59.08s-43.19,4.6-53.89-.9c-11.61-4.6-71.61-56.6-74.49-63.5-5.12-.1-12.57-3.07-15.34-5.09,4.22,7,7.22,29,7.72,32.49,2.5,3.5,3.38,15.63,4,20.07,11.63-2.57,17,3.68,20.77,7.06,16.73,3.37,6.73,31.37,22.27,24.43,16.46-2.06,68.51,63.44,70.49,66.69,24-9.75,38.54,1.34,50.26.29,10.71-3,10.45-6.48,10.08-8.26-8.37-26.78,46.63-70.78,46.51-41.08-12.88,15.3-20.88,26.3-21.38,34.8-1.5,11.5-16.5,33.5-26,38-8.5,5.5-51.54,6.55-65.95,0-17.59-2.5-75.55-47.55-80.68-56.37-.87-21.18-12.87-21.18-22.37-22.68,4.5,10.5,15.5,86.5,13,95,12.5,5.5,42.7,43.81,45.88,48.88,8.18,6.06,27.75-2.64,44.18,9,4.44-14.37,26.67-61.28,48.31-31.08,9.13,10.71-41.94,60-50.37,60.38s-37.34-8.06-46.42-13.37-43-35.23-45.81-38.56c-2.86,10.66-24.52,69.51-32,79s-40.25,49.25-53.75,58.75S69.31,872,48.81,872"/><path class="cls-1" d="M89.18,846.25s12.13,16.08-1.33,30.17c2.46,6.91-1.54,50.91-4,54.41,20.5,3.5,41.5,56.5,34.71,66.76,43.79-9.26,58.09,26.61,59.94,33.17,5.85-20.43,51.85-40.43,60.85-38.43-22-44-23-101-17-111-12,2-13.64-4-15.82-8.52-10.18-4.48-7.18,25.52-7.18,38.52-8,50-54.75,60-63,51-11.75-14,27.67,9,17-43.29-35.33-55.71,19.28-66.91,21.14-66.31,7.86-8.4,25.86-2.4,27.86-.4,21-16,37,10.51,37,12.76,44-5.76,66,139.24,42,150.24,2,49-91,61-107,49-57,20-89-25-89-39-54,1-58-66-55-77-31-22-30.63-57.7-20.31-66.85-16.69-16.15-6.31-33.86-6.31-33.86"/></g></g></svg>