<svg xmlns="http://www.w3.org/2000/svg" viewBox="0 0 707.38 1069.86"><defs><style>.cls-1{fill:none;stroke:#000;stroke-miterlimit:10;}</style></defs><g id="Capa_2" data-name="Capa 2"><g id="Capa_1-2" data-name="Capa 1"><path class="cls-1" d="M293.88,836.83c-13.5-9.5-46.25-49.25-53.75-58.75s-29.16-68.35-32-79c-2.86,3.33-36.74,33.26-45.82,38.56s-38,13.7-46.42,13.37-59.5-49.67-50.36-60.38c21.63-30.2,43.86,16.71,48.3,31.08,16.44-11.63,36-2.93,44.18-9,3.18-5.07,33.38-43.38,45.88-48.88-2.5-8.5,8.5-84.5,13-95-9.5,1.5-21.5,1.5-22.37,22.68-5.13,8.82-63.08,53.87-80.68,56.37-14.4,6.5-57.45,5.45-65.95,0-9.5-4.5-24.5-26.5-26-38-.5-8.5-8.5-19.5-21.38-34.8-.12-29.7,54.88,14.3,46.51,41.08-.37,1.78-.63,5.22,10.09,8.26,11.71,1,26.28-10,50.26-.29,2-3.25,54-68.75,70.49-66.69,15.53,6.94,5.53-21.06,22.26-24.43,3.74-3.38,9.15-9.63,20.77-7.06.62-4.44,1.5-16.57,4-20.07.5-3.5,3.5-25.5,7.72-32.49-2.77,2-10.22,5-15.34,5.09-2.88,6.9-62.88,58.9-74.48,63.5-10.71,5.5-44.4,6.4-53.9.9s-22.5-21.5-30-59.08c-1.5-3.58-14.51-2.42-17.42-10.54s7.91-9.88,20.47-4S86.38,516,92,518.33s32.35,4,43.37.78c12-4.78,40-51.78,55.36-55.3,2.38-4.52,21.62-34.48,43.81-32.33.19-2.85,2.81-11.15,6.91-14.25-.89-4.1-30.1,6.1-43.43,10.34-21.33,18.25-89.67,24.76-110.55,14s-8.12-76.27-24.94-91.36c-1.18-.91,10.82-8.91,21.39,3.17s3.43,57.92,21.38,63.82c54.05,13.1,82.05-24.9,85.65-23.31,32.4,3.41,26.4-15.59,45.22-18.61a18.79,18.79,0,0,1,20.18,9c3-3,6-7,11-11,0-6,1-27,5.18-38.41-7.83.58-46.18,1.41-73.86-5.52-27.68-2.93-44.32-7.07-74-17.28s-79.3-38.79-79-97.09c-8.72-29.3-12.27-59.7,9.29-93.95C67.38,74.33,208.38-16.67,223.38,3.33c8.17,12.38-58,42-57.93,59.09.93,15.91,74.09-48.25,79.93-21.09-3.84,23.84-74,21-67,108.07,9,97.93-19,82.93-29.27,65.39-3.24.46-18.75,20.54-19.25,32s5.5,20.5,11.14,17.92,22.36-18.42,113,4.93c7.6,1.35,64.4,18.65,61.85,13.08-10.45-20.43,12.55-47.43,17.77-43.55,3.22,2.88-5.22,20.12.29,25.56,1.51,1.44,7.43,3.05,19.8,3.06s18.29-1.62,19.8-3.06c5.51-5.44-2.93-22.68.29-25.56,5.22-3.88,28.22,23.12,17.76,43.55C389,288.33,445.8,271,453.4,269.68c90.6-23.35,107.32-7.51,113-4.93s11.64-6.42,11.14-17.92-16-31.58-19.25-32C548,232.33,520,247.33,529,149.4c7-87.07-63.14-84.23-67-108.07,5.84-27.16,79,37,79.93,21.09C542,45.33,475.83,15.71,484,3.33c15-20,156,71,168.44,117.75,21.56,34.25,18,64.65,9.29,94,.27,58.3-49.34,86.87-79,97.09s-46.33,14.35-74,17.28c-27.68,6.93-66,6.1-73.86,5.52C439,346.33,440,367.33,440,373.33c5,4,8,8,11,11a18.79,18.79,0,0,1,20.18-9c18.82,3,12.82,22,45.21,18.61,3.61-1.59,31.61,36.41,85.66,23.31,18-5.9,10.81-51.73,21.38-63.82s22.57-4.08,21.39-3.17c-16.82,15.09-4.07,80.64-24.94,91.36s-89.22,4.22-110.55-14c-13.33-4.24-42.54-14.44-43.43-10.34,4.1,3.1,6.72,11.4,6.91,14.25,22.19-2.15,41.43,27.81,43.81,32.33C532,467.33,560,514.33,572,519.11c11,3.22,37.72,1.55,43.37-.78s17.53-43.31,30.09-49.16,23.37-4.08,20.47,4-15.93,7-17.42,10.54c-7.49,37.58-20.49,53.58-30,59.08s-43.19,4.6-53.9-.9c-11.6-4.6-71.6-56.6-74.48-63.5-5.12-.1-12.57-3.07-15.35-5.09,4.23,7,7.23,29,7.73,32.49,2.5,3.5,3.38,15.63,4,20.07,11.62-2.57,17,3.68,20.77,7.06,16.73,3.37,6.73,31.37,22.26,24.43,16.47-2.06,68.52,63.44,70.49,66.69,24-9.75,38.55,1.34,50.26.29,10.72-3,10.46-6.48,10.09-8.26C652,589.33,707,545.33,706.88,575c-12.88,15.3-20.88,26.3-21.38,34.8-1.5,11.5-16.5,33.5-26,38-8.5,5.5-51.55,6.55-66,0-17.6-2.5-75.55-47.55-80.68-56.37C512,570.33,500,570.33,490.5,568.83c4.5,10.5,15.5,86.5,13,95,12.5,5.5,42.7,43.81,45.88,48.88,8.17,6.06,27.74-2.64,44.18,9,4.44-14.37,26.66-61.28,48.3-31.08,9.14,10.71-41.93,60-50.36,60.38s-37.35-8.06-46.42-13.37-43-35.23-45.82-38.56c-2.86,10.66-24.51,69.51-32,79S427,829.33,413.5,836.83s-17.25,13.54-17.25,13.54c2.25,4,5.56,16.34-3.72,26,2.47,6.91-1.53,50.91-4,54.41,20.5,3.5,41.5,56.5,34.71,66.76,43.79-9.26,58.09,26.61,59.94,33.17C489,1010.33,535,990.33,544,992.33c-22-44-23-101-17-111-12,2-13.64-4-15.82-8.52C501,868.33,504,898.33,504,911.33c-8,50-54.75,60-63,51-11.75-14,27.66,9,17-43.29-35.34-55.71,19.27-66.91,21.14-66.31,7.86-8.4,25.86-2.4,27.86-.4,21-16,37,10.51,37,12.76,44-5.76,66,139.24,42,150.24,2,49-91,61-107,49-57,20-89-25-89-39-54,1-58-66-55-77-31-22-30.63-57.7-20.32-66.85-15.22-14.74-6.52-33.47-6.52-33.47Z"/></g></g></svg>