<svg xmlns="http://www.w3.org/2000/svg" viewBox="0 0 439.01 1056.29"><defs><style>.cls-1{fill:none;stroke:#000;stroke-miterlimit:10;}</style></defs><g id="Capa_2" data-name="Capa 2"><g id="Capa_1-2" data-name="Capa 1"><path class="cls-1" d="M0,167.52c4.5,0,14.36.67,17.93-1.37S95.5,14.11,203.83.5C229.5,1.11,80.5,50.11,30.56,177.41c-6.06,46.7,33.07,47.29,45.51,99.49,32.43,68.21,100.21,22.53,102.32,17.37,73.11-9.16,41.36-115.49,45.24-123.32S262,121.61,269,121.61c7-2,5.5-24.5,16.5-25.5s19,10,18,16-18,16-23,19-26.18,45.34-30,48.17c-8.82,19.83,3.48,50.65-5.76,94.74s-85.5,48.92-71.87,64,72.58,9.65,87.11,24.37-17.3,50.8-19.39,57.75c-13.09,40,2.48,30.13,9.69,28.55,35.22-7.59,57.8,45.14,59.51,63.27,8.71,23.14,48.71,66.14,50.71,89.88,18-1.74,37,14.26,40.71,20,6.29,4.28,32.13.12,36.21,6.2s-3.92,30.08-13.92,29.08-19-15-28-19-50-17-61-30-38-78-42-90c-15-47-45-46-50-21-2,11,7.22,80.45,3.61,131.72s33.27,65.44,37.83,67.86c47.56,24.42,2,207.57,54.26,244.49,8.3,5.93,13.5,19.65,17.4,23.29s24.9,8.64,23.9,15.64-20,16-26,14-6-12-8-20-18-18-20-25c-6-9-31.35-26.59-31-39.29s-16-292.71-62.12-154.56C198.5,901.11,148.5,1055.79,0,1055.79"/><path class="cls-1" d="M22.69,264.92c0-4.89-1-14.61,7.61-14.61S45.37,254,45.37,261s-3.16,15.86-11.61,15.86S22.69,269.81,22.69,264.92Z"/><path class="cls-1" d="M0,403.51c97.5,0,133.33-10.28,150.42-14.34,44.08-12.06,40.38,75-27.77,58.45C54.5,433.11,24.5,437.51,0,437.51"/><path class="cls-1" d="M0,689.17c3.5,0,130.5-145.06,131.5-153.06s-33-10-24-30,88-21,93-13c19,35-51,236-63,249s-69,26.15-62,46.08,56,58.92,59,98.92c4,80-107,119.79-134.5,119.79"/></g></g></svg>