<svg xmlns="http://www.w3.org/2000/svg" viewBox="0 0 399.11 1055.41"><defs><style>.cls-1{fill:none;stroke:#000;stroke-miterlimit:10;}</style></defs><g id="Capa_2" data-name="Capa 2"><g id="Capa_1-2" data-name="Capa 1"><path class="cls-1" d="M.1,498a38.1,38.1,0,0,0,16.18.34c10.82-1.84,5-18.13,9.43-19S42.6,495,45.6,487c7-42-23.77-58-17.88-63,6.88-6,54.88,21,37.93,105.55C260.6,400,133.27,1,140.94.5,147.6,0,310.6,415,82,568.51,278.6,479,385.57,316.67,398.6,316c1,12-96,246-328.25,288.41C298.6,652,312.6,949,302.48,961.86,235.6,705,146.45,671.48,130.6,667c137,169,52.75,387.83,40.88,387.92-4.88.08,50-165.91-31.94-306.91C147.6,900,19.6,935.53.1,935.53"/></g></g></svg>