<svg xmlns="http://www.w3.org/2000/svg" viewBox="0 0 565.48 1061.72"><defs><style>.cls-1{fill:none;stroke:#000;stroke-miterlimit:10;}</style></defs><g id="Capa_2" data-name="Capa 2"><g id="Capa_1-2" data-name="Capa 1"><path class="cls-1" d="M.5,81.65c10,0,27,61,24,69-13,1-13.77,19.13-11.89,23.56s7.8,23.65,22.34,22,21.55-17.6,20.55-27.6c-8-19-21-90-21-102.21,1-15.79,3-21.79,17-2.79,7,9,45,75,35,105s-13,28.6-15,35.8c-9,7.2-10,40.2,6.27,43,11.73-9.75,37.54-12.19,47.13-13,11.6-4.78,67-29.57,91.28-22.67C376.5,177.65,270.69,114.3,266.6,95c-14.1-28.32-45.1-75.32-79.8-81.43,24.7-58.89,177.7,97.11,160.48,161.67-16.78,40.44-77.78,71.44-115.74,65.48-31,21-104,13-114.84,32.37-5.2,36.59,77.8,14.59,165,43.85,28.84.74,70.63-20.21,81.73-20.74,45.11-4.52,75.79-71.11,88.45-75.32,3.66-30.2,25.66-15.2,21.66-.2,0,49-65,108-96,120s-52,18-89,18c-90-1-138-46-137.61-26.36,1.61,24.36,10.18,42.88,32.39,55.12C234.5,410.65,282.58,460.25,294,467c41.85,22.17,105.76,54.12,128.61,54.41,34.85-.71,84.85,32.29,119.51,22.63.34-21.34,28.34-16.34,21.84,7.53-5.5,23.13-46.65,20.35-89.58,18.74-87.92-4.61-165.19-55.43-194.55-74S216.62,450,211.56,446.82c-18.06-27.17-22.24,5.45-9.15,22.14s49.39,49.88,63.74,69.29c35.35,37.4,33.47,86.76,33.41,90.08-.06,13.32,42.94,63.32,35.79,99.78-18.85,10.54,26.15,86.54-4.62,139-10.23,78.53-60.14,148.7-63.69,155.12,5.46,35.41-39.2,39.54-39.82,38.92s8.28-10.51,8.28-14.51c-1-2-12,2-13.5-7.26,40.5,13.26,28.5-100.74,74.43-181.22-13.93-22.52,2.76-101.59-3.58-113C268.5,725.65,268.8,633,266.15,628.33s-25.45-25.8-26.55-36.24c-62.1-153.44,90.9,278-239.6,278"/><path class="cls-1" d="M0,279.24c23.5,0,48.5.41,34.5,38.41,2,50,35,86,28,134,20-21-26-170-6-170s89,78,89,201c0,83-59,107-81,116s-52,16-64,16"/></g></g></svg>