<?xml version="1.0" encoding="utf-8"?>
<!-- Generator: Adobe Illustrator 24.3.0, SVG Export Plug-In . SVG Version: 6.00 Build 0)  -->
<svg version="1.1"
	 id="svg8" inkscape:version="1.1.2 (0a00cf5339, 2022-02-04, custom)" sodipodi:docname="Colony Tiles.svg" xmlns:cc="http://creativecommons.org/ns#" xmlns:dc="http://purl.org/dc/elements/1.1/" xmlns:inkscape="http://www.inkscape.org/namespaces/inkscape" xmlns:rdf="http://www.w3.org/1999/02/22-rdf-syntax-ns#" xmlns:sodipodi="http://sodipodi.sourceforge.net/DTD/sodipodi-0.dtd" xmlns:svg="http://www.w3.org/2000/svg"
	 xmlns="http://www.w3.org/2000/svg" xmlns:xlink="http://www.w3.org/1999/xlink" x="0px" y="0px" viewBox="0 0 1700.8 850.4"
	 style="enable-background:new 0 0 1700.8 850.4;" xml:space="preserve">
<style type="text/css">
	.st0{fill:#00FF00;}
</style>
<sodipodi:namedview  bordercolor="#666666" borderopacity="1.0" id="base" inkscape:current-layer="layer1" inkscape:cx="469.25" inkscape:cy="237.75" inkscape:document-rotation="0" inkscape:document-units="mm" inkscape:pagecheckerboard="false" inkscape:pageopacity="0.0" inkscape:pageshadow="2" inkscape:window-height="2128" inkscape:window-maximized="0" inkscape:window-width="1824" inkscape:window-x="273" inkscape:window-y="0" inkscape:zoom="2" objecttolerance="2" pagecolor="#ffffff" showgrid="false" showguides="false">
	</sodipodi:namedview>
<g id="g1253" transform="matrix(0.26458333,0,0,0.26458333,199.80943,123.19876)">
	<path id="Insets" class="st0" d="M5072.1,2046.8l-1.4-7.7l-3.2-7.2l-5-5.9l-6.5-4.3l-7.5-2.9l-8.1-1.6l-8.2-0.4l-15.8-1.5
		l-15.8,0.4l-15.7,1.8l-15.7,2.9l-62.2,16.1l-199.5,58.5l-9.3,3.5l-10.2,3.2l-10.3,2.5l-10.1,1.2l-4.9-0.2l-4.7-1.2l-3.8-2.8l-1.2-2
		l-0.5-2.3l0.6-4.9l1.9-4.9l6.3-10l2.9-7.4l4.3-8.8l10.2-19.2l4.7-9.5l3.7-8.9l1.9-8.2l-0.5-3.7l-0.9-1.4l-1.5-0.9l-1.7-2.9l-1.7-4
		l-3.1-7.5l-0.8-1.1l-0.8-0.3l-1.3,2l-0.8,4.1l-0.7,6.1l-5.1,18.1l-6.5,17.7l-7.7,17.2l-8.5,16.8l1.5,3.6l0.1,3.8l-1.1,3.8l-2.2,3.7
		l-6.9,6.9l-8.5,7l-8.1,7.7l-3.3,4.3l-2.4,4.7l-1.2,5.1l-0.1,5.3l1,5.2l2,5l-3.2,9.6l-4.6,9l-5.9,8.1l-7.1,7.1l-8.1,6l-8.8,4.9
		l-9.4,3.7l-9.8,2.4l-10.1,1l-10.1-0.4l-9.9-1.9l-9.4-3.3l-8.8-4.7l-8.1-5.9l-7.1-7.1l-5.9-8.2l-4.2-9.8l-2.8-9.8l-4.1-18.9
		l-2.6-8.7l-3.9-8l-5.8-7l-3.8-3.1l-4.6-2.8l-4.8-4.4l-2.8-4.5l-1.5-4.5l-0.8-4.8l-0.7-5.1l-1.2-5.5l-2.4-6.1l-4.1-6.7l-6.8-14.9
		l-6-15.2l-4.6-15.6l-2.8-16.1l-1.5,1.2l-0.8,1.8l-0.5,4.9l0.1,5.5l-0.5,4.8l-3.9-0.3l-3.5,0.5l-2,2.1l-0.2,1.6l0.4,1.9l2.2,4.5
		l3,5.2l3,5.7l2.2,5.9l10.3,25.4l6.1,12.3l3.8,5.5l4.5,4.9l2,6l1.1,5.9v2.9l-0.7,2.7l-1.4,2.3l-2,1.8l-2.4,1.2l-2.8,0.5l-5.8-0.1
		l-6.2-1.1l-6.7-1.8l-29.2-10.2l-13.5-4.3l-6-1.3l-5.3-0.4l-101.2-29.9l-101.5-29.2l-15.8-3.6l-17.8-4l-18.8-3.6l-19.5-2.3l-9.8-0.3
		l-9.7,0.6l-9.5,1.7l-9.1,3l-8.3,4.7l-7.2,6.2l-5.8,7.5l-4.2,8.6l1.3,8.6l2.4,8.3l3.4,7.9l4.3,7.5l5.1,7l5.8,6.5l13,11.7l14.2,10.5
		l14.6,9.7l14.4,9.4l13.4,9.6l5.2,4.1l5.9,2.9l6.4,1.9l6.7,1l13.5,0.5l12.8-0.2l5.9,0l5.3,0.5l4.6,1.3l3.6,2.5l2.2,3.9l0.3,4.9
		l-1.5,6.1l-3.2,7.5l5.8,4.6l6.3,3.9l6.7,3.1l7.1,2.4l14.6,3l15,1.2l30.2-0.5l14.8-0.4l14.2,0.2l37.6-1.4l18.8-1.8l18.5-2.9
		l18.1-4.1l17.6-5.6l16.9-7.3l16.1-9.2l4-3.4l4.8-2.1l5.2-0.9l5.4,0.4l5.1,1.6l4.7,2.4l4,2.9l3,3.1l1.8,3.1l-0.3,3.1l-1,1.1
		l-1.5,0.5l-3.6,0.2l-7.7-1.7l-6.7-2.5l-6.5,4.6l-2.2,2.6l-0.6,2.7l1.6,2.5l3.4,1.9l4.6,1.4l5.4,1.1l25,3.8l11.5,2.4l4.8,1.9
		l3.9,2.8l7,2.8l3.2,1.9l1.1,1.2l0.4,1.3l-1.9,2.3l-3.4,1.3l-4.3,0.8l-5,0.7l-11.5,0.7l-11.9-0.2l-10.4-1.1l-4.3-0.8l-3.5-1.9
		l3.6,4.3l2.1,5l0.5,5.4l-0.8,5.7l-1.9,5.8l-2.8,5.8l-6.9,11.6l-6.6,11.6l-2.5,5.7l-1.6,5.7l-0.3,5.6l1.4,5.4l2.8,4.9l4,4l18.7,5.7
		l19,5l19.3,3.9l19.4,2.5l19.3,0.9l19.2-1l18.8-3.3l9.3-2.5l9.1-3.2l13-0.2l6.3-1.3l5.8-2.5l4.8-3.9l3.3-5.1l1.8-6l0.5-6.5l-0.6-6.5
		l-1.6-6.6l-2.4-6.8l-3.1-6.8l-7.8-13l-9.3-11.3l3.5-3.5l3.2-4.1l1.8-4.6l-0.1-2.3l-1.1-2.1l-1.9-1.5l-2.5-0.9l-3.1-0.3l-3.5,0.3
		l-7.8,2.5l-8.1,5l-8.2-2.5l-7.7-2l-6.4-1.8l-4.5-2l-1.1-1.2l0-1.3l2.9-2.6l2.5-1.3l3.3-1.3l4.2-1.5l5.1-1.7l9.7-1.3l9.8-2.4
		l19.9-4.9l9.9-1.2l4.9,0.2l4.8,0.9l4.6,1.5l4.2,2.2l3.8,2.9l3.3,3.5l31.7,29.8l14.8,15.7l6.4,8.5l5.6,9.2l0.5-1.7l1.1-1.2l1.5-0.1
		l1.7,0.9l3.5,3l3.9,4.2l8.3,9.5l4.1,4l3.8,2.7l22,20.2l11.3,9.5l12.3,8l6.7,5l6.1,4.4l11.4,7.9l11.5,8.3l6.3,5l6.9,5.8l4.1-1.3
		l2.4-1.8l0.7-2.6l-1.2-2.6l-2.6-2.5l-3.3-2.5l-8.4-5.5l-19.5-11.7l-8.5-5.9l-3.2-3.2l-2.3-3.6l-8.8-5.1l-9.4-7.1l-9.8-8.6
		l-10.1-9.8l-20.2-21.1l-9.7-10.5l-9.3-9.9l-4.9-2.9l-4.8-3.7l-9.6-9.3l-19-22.1l-9.5-10.5l-9.7-8.7l-5.4-3.4l-5.6-2.3l-5.8-0.8
		l-5.7,1.2l-1.7-1.2l-3.2-1.9l-4.3-1.9l-4.9-1.3l-5-0.4l-5,0.5l-4.7,1.5l-4.3,2.5l2.9-5.8l4.1-4.9l5.3-3.3l6.1-1.3l6.4,0.2l6.7,1.5
		l14.2,5.5l29.8,14.3l14.5,5.6l6.9,1.6l6.6,0.6l18.3,3.2l18.4,2l18.5,1.1l18.6,0.4l74.4-0.1l9.6-0.5l10.2-2l9.8-3.4l8.5-4.8l3.4-3.1
		l2.5-3.6l1.6-4.2l0.1-4.4l-1.2-4.3l-2.2-4.1l-6.1-7.2l17.8,1l17.7-1.6l17.4-4.1l16.8-6.3l16.2-8l15.6-9.4l14.9-10.4l14.3-11.1l7-4
		l6.4-4.9l5.7-5.7l5-6.4l4.3-7l3.5-7.4l2.6-7.8l1.5-8.1L5072.1,2046.8z M5019.5,2069.8l-14.1-1.1l-14.1-0.1l-14.1,0.9l-14,1.7
		l-27.9,5.6l-27.3,7.8l-29.9,12.1l-30.6,9.8l-15.6,4l-15.7,3.3l-15.8,2.5l-16,1.8l-2.5-0.1l-3.4,0.2l-8.9,1.2l-10.6,2l-11.1,2.5
		l-10.4,2.8l-8.6,2.9l-3.6,1.5l-2.5,2l-0.3,1.2l0.9,0.9l4,1.1l49.1,3.7l24.6,1.9l24.6,2.6l3.6,0.2l4.9,0.4l11.3,1.2l11.4,2.4
		l1.5,1.2l-0.4,0.6l-1.3,0.5l-7.8,1.2l-126.1-8l-11.9-2.5l-13.5-0.9l-28.5,0.9l-13.6,0.8l-12,0.5l-5.3-0.1l-4.7-0.4l-4.1-1l-3.5-1.7
		l-0.2-7.7l0.4-3.4l1.1-2.7l2-1.7l2.8-0.4l3.3,0.8l3.8,1.7l8.8,4.7l10.1,4.1l5.4,0.9h5.4l5.2-1.1l4.8-2.4l17.2-2.5l17.1-3.4l34-8.2
		l34.2-7.9l17.3-3l17.5-1.9l18.9-3.2l18.4-5l36-12.9l36.1-12.8l18.5-4.8l19-3l14.2-0.6l15-0.3l7.4,0.5l7.2,1.2l6.8,2L5019.5,2069.8z
		 M4777.7,2437.8l-0.4-2.4l-2.9-5l-3.8-4.1l-3.6-3.2l-7.6-10.4l-7.1-9.2l-13-16.2l-11.6-16.2l-5.4-9.3l-5.1-10.5l-13.9-30.1
		l-15.1-29.6l-30.8-59.3l-0.2-4.4l-1.1-4.2l-1.9-4l-2.4-3.6l-2.9-3l-3.1-2.4l-3.2-1.7l-3.1-0.8l-2.9,0.5l-2.1,1.8l-0.6,2.8l0.6,3
		l2.8,5.7l3.5,4.8l1.5,1.3l1.6,2l3.3,5l5.8,11.2l11.8,26.2l5.6,12.7l5.2,10.9l2.4,4.5l2.3,3.6l1.3,1l1.3-0.2l0.6-1.8l0.1-2.9
		l1.9,3.1l1.5,4.1l3.3,9.6l4,10.5l2.3,4.9l2.5,4.2l14.9,27.4l8.4,13l9.9,11.9l5.9,10.1l6.5,9.5l6.9,9.2l7.5,9.5l4.5,7.2l5.5,4.9
		l2.6,1.4l2.3,0.5l1.9-0.4l1.3-1.3L4777.7,2437.8z M4759.9,1942.8l-1.3-4l-1.1-1.7l-1.4-0.8l-1.7,0.5l-1.4,1.3l-1.7,4l-0.3,4.3
		l0.7,1.5l1.5,0.3l3.5-2.1L4759.9,1942.8z M4746.8,1951.9l-3.4-2.3l-3.6-0.6l-1.5,0.9l-1,1.7l-0.2,4.3l0.7,1.9l1.2,1.2l1.7,0.1
		l1.6-0.7l2.5-2.9L4746.8,1951.9z M4735,1959.5l-1-2.3l-2.3-0.5l-2.8,1.6l-1.7,2.4l0.2,1.2l0.9,0.9l3,0.3l3.2-0.6L4735,1959.5z
		 M4726.4,1966.3l-0.2-2.7l-0.7-0.8l-1.2-0.2l-2.7,0.8l-5.1,3.9l-4.6,4.5l-4.6,3l-4.8,4.2l-8.8,10l-3.4,5l-1.8,3.2l-1,3.7l0.9,1.2
		l2,0.1l4.6-2.3l8.9-6.6l4-1.9l3.6-2.5l6.2-6.3l4.7-7l3.2-6.4L4726.4,1966.3z M4725.5,1891.5l-0.2-2.1l-15.7-4.9l-16.2-2.8
		l-16.4-0.7l-16.4,1.3l-16.2,3.3l-15.6,5.2l-14.9,7.1l-13.8,8.9l-3.9,5.1l-4.1,5.8l-8.8,12.7l-9.6,12.6l-5,5.7l-5.2,5l-5.6,4.1
		l-6,2.8l-6.1,0.8l-6-1.7l-5.1-3.7l-4.3-5.1l-3.6-6.1l-3.1-6.6l-3.5-7.5l-4.3-7.1l-5-6.6l-5.6-6l-6.1-5.4l-6.6-4.8l-14.4-8
		l-15.6-5.8l-16.4-3.7l-16.8-1.7l-16.7,0.3l-3.6-1l-3.8-0.3l-7.6,0.8l-7.4,1.9l-6.8,2.6l-5.7,2.8l-2.7,1.5l-2.4,2.4l0.8,1.1l2.2,0.1
		l4.9-0.8l9.6-2.8l15.1-0.7l15.2,0.3l15.1,1.5l14.9,2.8l14.4,4.2l13.7,5.7l12.8,7.5l11.7,9.3l6.7,7l5.7,7.8l4.5,8.8l1.4,4.7l0.6,4.7
		l-0.3,4.6l-1.5,4.3l-2.6,3.8l-3.5,3l-4.2,2.3l-4.7,1.6l-9.7,1.8l-6.2,3.2l-5.3,4.5l-4.4,5.5l-3.5,6.3l-2.6,6.8l-1.7,7l-0.8,6.9
		l0.2,6.6l1.3,6.3l2.6,5.9l4.1,4.5l2.6,1.5l2.9,0.8l6.1-0.1l6.1-2l5.8-3.2l5.3-3.8l6-3.8l6.3-3.1l6.6-2.4l6.8-1.7l7-0.9l7-0.2l7,0.6
		l7,1.3l14,4.1l14.4,5.2l15,5.4l15.8,4.6l4.1-4.8l3.1-5.4l1.9-5.9l0.7-6.1l-0.4-6.2l-1.4-6.2l-2.3-6.1l-3.1-5.8l-8-10.8l-10.1-9.3
		l-5.7-3.8l-6.1-3.2l-6.4-2.4l-6.6-1.5l-1.1-6.1l0.3-6.1l1.4-6.1l2.5-5.9l3.4-5.7l4.1-5.5l10.3-10.3l12.2-8.9l13.3-7.2l13.5-5
		l6.6-1.6l6.3-0.9l4.6-2.6l5.1-1.6l11.1-1.1l23.7,1.8l10.9,1.4l9.1,0.9l3.6,0l2.8-0.4L4725.5,1891.5z M4662.3,2356.6l-1-6.1l-1.9-6
		l-2.4-5.7l-0.1-4.8l-1-4.6l-2-4.2l-2.9-3.5l-3.8-2.4l-4.5-1.2l-4.7-0.1l-4.7,0.8l-4.5,1.7l-4,2.6l-3.3,3.4l-2.3,4l-0.8,4.5l0.5,4.6
		l1.7,4.4l2.6,4l-3.1,3.8l-3.4,3l-3.9,1.9l-4.1,0.4l-4-1.2l-3.9-2.3l-7.5-6.3l-7.2-6l-3.6-2l-3.7-0.9l-3.8,0.5l-3.9,2.2l-4.1,4.3
		l-4.2,6.6l-1.8,4.4l-2.5,4l-3.7,2.5l-4.5,0.3l-4.3-1.8l-4.2-3.1l-8.5-8l-8.4-7.7l-4.5-2.8l-4.5-1.2l-2.1,0.2l-2,0.9l-3.3,3.2
		l-2.5,4.8l-2.2,6.7l-6.4,2.3l-6.7,0.7l-3.2-0.8l-2.9-1.5l-2.4-2.2l-1.7-2.8l-1.8-6.8l-0.5-7.4l0.2-7.2l0.3-6.1l-10-3.3l-5.6-1.1
		l-5.6-0.2l-5.4,1.1l-2.4,1.2l-2,1.8l-2.6,4.7l-0.8,5.5l-4,11.2l-1.2,5.9l-0.4,5.9l0.3,5.9l1.1,5.7l2,5.4l3,4.9l3.9,4.3l4.5,3.7l5,3
		l5.5,2.5l6,1.9l6.4,1.4l14,1.3l27.9,2.5l28.1,0.7l28.1-0.6l28.1-1.3l12.3-1.8l12.2-2.6l11.9-3.9l5.7-2.6l5.3-3.2l4.6-3.9l3.8-4.6
		l2.7-5.3l1.3-5.8L4662.3,2356.6z M4660.3,2411.6l-0.6-5.3l-2.1-4.3l-1.9-1.4l-2.3-0.8l-5,0.1l-5.4,1.9l-5.7,2.9l-4.8-0.2l-4.8,0.5
		l-4.4,1.7l-3.2,3.2l-1.5,4.3l-0.3,5l1.7,10.6l2.2,10.1l0,4.3l-1.5,3.4l-3.1,2.1l-4.5,0.3l-6.2-1.4l-8.2-2.9l-0.9-2.7l-0.2-2.9
		l0.9-6.2l3.1-12.2l-0.3-5.1l-1.2-2l-1.9-1.3l-2.7-0.5l-3.3,0.1l-3.9,0.6l-4.4,1.1l-8.7,8l-8.3,6.6l-8.2,4.8l-4.1,1.5l-4.1,0.8
		l-4.1,0.1l-4.1-0.7l-3.9-1.4l-3.7-2.1l-3.5-2.8l-3.5-3.5l-3.5-4.2l-3.5-5l-6.4-2.5l-6.5-1.5l-3,0.1l-2.7,0.9l-2.1,1.8l-1.2,2.5
		l-0.2,6.3l1.2,6.8l1.8,6.9l1.4,6.3l-5.6,4.2l-3.2,1.4l-3.4,0.7l-3.4-0.2l-3.3-1l-2.9-1.7l-2.5-2.4l-1.8-2.9l-1-3.3l-0.3-3.4
		l0.4-3.3l1.2-3.2l1.9-3.1l2.6-2.9l3.3-2.6l-1.6-4.4l-2.7-3.8l-3.5-3.3l-4.2-2.7l-9.5-3.6l-9.9-1.2l-4.8,0.6l-4.3,1.6l-3.5,2.8
		l-2.1,4l-0.4,4.5l0.9,4.8l4.1,9l-0.5,7.7l0.5,7.7l1.8,7.4l3.2,6.8l4.7,5.9l5.8,4.7l6.7,3.7l7.3,2.8l15.6,3.6l16.5,1.9l16.4,1
		l15.1,0.9l14.4-1l14.8-0.3l30-0.8l14.6-1.5l14-2.9l13.2-4.7l6.2-3.2l5.9-3.9l0.3-3.4l0.8-4.2l2.6-10.3l5.6-23.9L4660.3,2411.6z
		 M4635.9,2501.4l-0.6-4.8l-1.1-1.9l-1.8-1.3l-4.8-0.9l-5.4,0.7l-6,1.8l-6.4,2.5l-8.7-0.5l-8.7,0.5l-8.6,1.4l-8.3,2.2l-8,2.9
		l-7.5,3.6l-6.8,4.2l-6,4.7l-3.6-5l-4.5-4.1l-5.2-3.4l-5.7-2.7l-12.3-3.6l-12.6-1.9l-12.5-0.6l-11.7,0.5l-10,1.3l-4.1,0.9l-3.4,1
		l3.5,7.1l4.2,9.5l4.8,8.8l5.6,7.9l6.5,6.7l7.7,4.9l8.7,2.7l9.2,0.7l9.2-1.3l90-0.3l5.5-7.4l6-8.8l5.7-9.2l4.7-9.3l1.7-4.8
		L4635.9,2501.4z M4630.1,2097.9l-1.5-5.8l-2.3-6.1l-6.6-12.7l-8.6-12.3l-9.6-11l-10.4-9l-5.5-3.5l-5.8-2.8l-6.1-1.9l-6.2-0.3
		l-5.8,1.5l-4.9,3.5l5.3,2.7l6.1,0.9l5.8,2.3l5.3,3.4l4.7,4.3l8.2,10.4l7.2,11.5l6.7,11.1l3.4,4.9l3.5,4.2l3.8,3.3l4.3,2.1l4.5,0.6
		L4630.1,2097.9z M4618.3,2252.8l-6.3-1.5l-6.5-0.5l-6.5,0.4l-6.4,1.2l-12.4,4l-12,4.7l-11.8,3.8l-5.9,1l-5.8,0.1l-5.7-0.9l-5.6-2.2
		l-5.6-3.5l-5.6-5l-19.2-0.1l-8.7-0.7l-7.7-1.3l-3.1-1.6l-1.2-1.2l-0.3-1.4l1.3-3.1l2.7-2.6l3.9-2.6l4.9-2.8l5.9-3l6.9-3.1l14.6-4.1
		l15.1-2.6l15.4-0.9l15.3,0.8l15.1,2.9l7.3,2.4l6.9,3.2l6.4,3.9l5.7,4.7l4.9,5.5L4618.3,2252.8z M4612.3,2013.7l-0.9,5l-2.6,3.9
		l-4.3,1.9l-4.9,0.1l-5-1.3l-9.4-4.5l-4.6-0.8l-4.3-1.9l-7.7-5.8l-6.2-7.5l-4.3-8l-1.4-4.1l-0.5-4l0.7-3.8l2.2-3.1l3.4-1.8l4.1-0.7
		l8.5,0.8l6.6-0.5l6.5,1.4l5.9,2.9l5.3,4.1l4.5,5l3.6,5.6l2.7,5.8l1.7,5.7L4612.3,2013.7z M4602.6,2518.9l-0.5,6.6l-1,3.1l-1.9,2.4
		l-2.7,1.1l-3-0.5l-3.1-1.7l-2.8-2.5l-2.3-3.1l-1.4-3.4l-0.2-3.2l1.4-2.5l2.9-1.4l3.3-0.3l6.8,1.1L4602.6,2518.9z M4599.6,2562.1
		l-0.8-4.5l-1.3-1.7l-1.9-1.1l-8.9,0.7l-8.1-1l-8.1,0.6l-3.9,1.1l-3.5,1.8l-3.1,2.4l-2.5,3l-3.1,7.4l-1.2,8.3l0.1,9.1l0.9,9.7
		l0.6,4.5l1.2,1.6l1.7,0.8l4.3-0.2l4.2-1.8l8.2-5.7l8.2-7.8l7.8-8.8l6.1-9l2.1-4.6L4599.6,2562.1z M4597,2149.3l-0.5-5.2l-2.1-5.2
		l-2.8-4.8l-18.6,3.8l-8.3,3.3l-3.4,2.7l-1,1.8l-0.2,2l0.6,2l1.2,1.8l3.6,2.7l4.4,2l5,1.3l5.4,0.7l5.6-0.1l5.2-1.3l4-3l1.3-2.3
		L4597,2149.3z M4549.8,2574.7l-0.4-4.6l-1.7-4.3l-2.9-3.7l-3.9-2.9l-4.4-2.1l-4.7-1.5l-9.8-1.4l-9.4,0.5l-8.3,2.4l-3.2,2.2
		l-1.9,3.2l5.6,7.2l5,6.8l6.6,8l7.1,7.9l7.1,6.8l7.5,5l4.1,1.1l2-0.3l1.7-0.9l1.9-3.7l0.5-4.8l-0.4-5.6l-1-6.2l2-4.4L4549.8,2574.7z
		 M4546.8,2032.6l-8.2-2.6l-6.6,1.1l-6.4,1.9l-12,5.7l-11,7.7l-9.7,9.3l-8.3,10.6l-3.5,5.8l-2.9,6.1l-2.1,6.3l-1.1,6.4l0.1,6.4
		l1.4,6.3l14.1-19.6l16.1-19.8l9-9.3l9.6-8.6l10.3-7.6L4546.8,2032.6z M4543.9,1986.9l-0.2,4.4l-2.7,8.7l-3.7,5.4l-4.7,4.6l-5.3,4
		l-5.7,3.3l-6,2.5l-6,1.8l-5.7,1l-5.3,0.2l-4.8-0.8l-4.2-2.2l-2.8-3.5l-0.6-4.6l0.9-4.7l1.9-4.6l5.2-8.6l2.6-2.8l3.4-2.7l8.4-4.8
		l9.4-3.6l9.3-1.9l4.6-0.2l4.3,0.6l3.7,1.7l2.8,3.1L4543.9,1986.9z M4540.1,2142.6l-1.9-3.5l-3.5-2.2l-4.3-0.8l-9,0.6l-4.3-2
		l-4.1-0.9l-3.7,0.3l-3.1,1.5l-2.2,2.6l-0.8,3.3l0.4,3.9l1.5,4.4l2.1,4.5l2.8,4l3.7,3l4.5,1.5l4.7-0.2l4.6-1.6l4.3-2.6l3.7-3.4
		l2.8-4l1.7-4.3L4540.1,2142.6z M4517.5,2520.9l-0.4,3.1l-1.9,2.8l-2.8,2.3l-6.4,3.4l-5-5l-2-2.9l-1-3.2l0.5-3l2.4-2l3.6-1l4.1,0
		l4,1l3.3,1.9L4517.5,2520.9z M4475,2135.3l-0.3,4l-1,3.8l-1.9,3l-2.7,1.4l-3.3-0.6l-3-1.8l-5.3-5.4l-63.3,2.8l-31.7,2.2l-31.6,3.1
		l-4.2-0.5l-4.9-0.2l-11.2,0.3l-25.2,2.4l-12.5,1.3l-11.5,0.6l-10-0.4l-4.1-1.1l-1.3-1.1l-0.6-1.6l12.1-0.8l19.8-2.5l19.6-1.8
		l38.4-3.6l24.2-0.8l24.1-1.8l-14.4-6.6l-15.1-4.8l-15.5-3.4l-15.8-2.5l-32-4.1l-15.8-2.6l-15.5-3.5l-14.9-4.5l-14.7-5.2l-29.3-11.1
		l-29.5-9.9l-15-3.7l-15.3-2.5l-3.9-1.3l-5.1-0.8l-11.7-0.8l-11.6,0l-10.4,0.3l-4.4,0.2l-3.7,0.1h-2.9l-1.7-0.2l0-0.3l0.7-0.3
		l1.6-0.5l2.4-0.6l13-2.8l18.8-1.3l18.7,1.1l18.6,3.1l18.4,4.7l18.3,5.9l18.1,6.6l35.5,13.5l19.3,4.2l19.4,3.5l38.9,6.2l19.3,3.5
		l19.2,4.3l18.9,5.4l18.6,6.9l31.4,0.6l15.6-0.4l7.5-1l7.2-1.7l2.5-4.9l1.9-1.9l2.4,0l1.8,1.8l1.2,3L4475,2135.3z M4464.1,2212.7
		l0-2.3l-0.8-1.8l-1.9-0.4l-2.3,1l-4.8,3.9l-4.8,4.9l-16.8,35.3l-17.7,33.9l-17.4,33.3l-16,33.8l-4.1,3l-3.3,3.6l-2.3,4l-1.4,4
		l-0.4,3.9l0.5,3.4l1.5,2.6l2.3,1.3l2.6-0.6l2.4-1.7l3-4.1l2.1-4.3l1.5-3.9l29.2-53.6l27.5-54.1l3.4-4.6l4-6.6l4.1-7.9l4-8.5
		l3.4-8.5L4464.1,2212.7z M4449,2178.1l-0.4-1.3l-1.2-0.9l-1.6-0.3l-3.7,0.7l-8.6,3.4l-2.9,4.6l-3.6,4.6l-8.8,9.1l-20.4,17.7
		l-9.7,8.7l-8.1,8.8l-3.2,4.5l-2.3,4.7l-1.2,4.8l0.2,5h-5l-4.8,1.2l-4.5,2.2l-4.4,3l-8.3,7.6l-8,8.8l-16,18.2l-8.3,7.7l-8.7,5.7
		l-5.1,5.3l-6.7,5.5l-8,5.7l-8.8,5.9l-18.8,12.2l-17.8,12.7l4.3,2l4.7,0.4l4.8-1.2l4.6-2.4l8.9-6.7l8.2-6.9l10.3-6.6l9.8-7.8
		l9.9-7.6l10.8-6.1l29-27.4l14.4-14.1l13.7-14.7l-0.6,3.5l0.2,1.6l1,0.5l1.8-1.2l2.4-2.5l2.7-3.4l3.2-4.2l7.2-9.8l7.8-10.1l7.8-9
		l4-3.5l4.4-2.3l2.5-1.7l3.1-2.4l7.1-6.2l7.5-7.4l6.7-7.5l5-6.7l1.4-3.2L4449,2178.1z M4413.1,1998.9l-1.3-3.9l-1.9-3.6l-5.1-6.9
		l-6.5-6.6l-6.9-6l-6.9-4.6l-7.1-2.7l-3.5,0.3l-1.3,0.9l-0.8,1.4l8.9,10.3l9.6,9.7l20.5,18.1l1.4-1.1l0.8-1.5L4413.1,1998.9z
		 M4372.1,1962.6l-0.2-3.1l-1.7-2.4l-2.6,0.6l-2.2,2.3l3.2,3.6l2.1,0.7L4372.1,1962.6z M4369.4,2380.3l-3.4,1.5l-3.7,2.5l-7.2,6.8
		l-2.9,3.8l-2.2,4.1l-1,4.2l0.9,4l-5.7,4.8l-4.2,4.3l-5.8,7.7l-5.4,7.7l-3.8,4.3l-5.1,4.9l5.3,0.2l5.2-1.8l4.7-3l4.2-3.7l7.4-8.7
		l6.5-9.8l5.7-10l4.7-9.5l3.5-8.2l1.3-3.3L4369.4,2380.3z M4363.6,1953.5l-1.3-3.3l-1.4-1l-1.8-0.3l-3.5,1.4l-1.2,1.3l-0.4,1.6
		l0.6,1.6l1.3,1.1l3.6,1.1l3.9,0.3L4363.6,1953.5z M4353,1945.7l-0.3-2.2l-1.2-2.1l-3.5-3.6l-2.1-1.2l-2.2-0.4l-1.6,0.8l-0.9,1.9
		l-0.4,4.7l4.2,2l4.5,1.4l2.2-0.1L4353,1945.7z"/>
</g>
<path id="path3257" inkscape:connector-curvature="0" class="st0" d="M715.9,17.5c11.1-2.4,17.5,10.5,23.1,18.2
	c6.3,7.7,7.5,16.8-3,21.1c-13.1,9.6,3.7,20.5,9.9,21.5c-10.5,3.5-1.7,24.1-15.8,17.4c-8.9-3.6-20.1,1.1-27.5-0.9
	c6.5-7.5,10.2-18.3,8.5-28.8c-0.9-9.4,11.8-23.3-1.8-27.9c-12.7,1.1-23,10.9-30.9,20.3c-7.3,9.2-11.9,21.6-9,33.3
	c2.8-6.2,1.7-15.1,7.7-20.9c3.6-7.1,10.7-13.3,17.1-18.3c3.6-5.7,19.2-6.9,8.9,0.4c-5.3,3.1-6.7,8.1-8.7,11.8
	c1.3,2.9-3.1,3.7-1.6,6.2c-7-0.4,0.2,4.9-2.8,7.6c-5.6-1.1,1.9,5.6-1.4,6.7c-2.2,2.2,0.7,13.5,4.5,17.2c8.7,7.5,21.8,5.1,32.6,5.2
	c6.7-4.7,13-8.1,12.8,2.3c1.3,4.9,3.9,9.4,2.6,14.6c-0.2,4.3,2.8,8,2.7,12.4c-7.2,5-4.4,15.7-13.3,20.4c-3.1,4.2-5.1,12.5-7.6,2.8
	c-8.4-10.5-14.5-22.8-23.8-32.7c-13.2-2.4-9.2,19.4-14.8,27.4c-4.5,12.1-9.5,23.6-3.6,36.1c5.9,13.5,8.7,29,19.5,39.9
	c3.1,3.7,7.5-2.8,1.3-2.1c-5-5.7-7.9-13-10.5-19.9c-0.9-3.4-1.9-6.8-2.9-10.3c-2-5.6-4.5-11.6-4.5-17.6c4.2-14,6.6-28.3,10.4-42.5
	c6.3-0.8,10.8,14,15.6,19.8c5.6,6.4,8.2,23.6,19.4,18.6c10.7,5.7,3,23,5.5,33.3c-1.4,12.9,4.4,27.9,17.7,31.9
	c10.9-2.3,17.9-13.9,17.9-24.6c1.2-12.2,0.6-24.4,1.1-36.7c2.7-8.7,14.7,2.3,16.5-9.4c7.1-11.2,13.4-22.9,20.9-33.7
	c5.3,5.3,5.6,20.2,9.2,28.9c3.1,9.5,6.2,19.4,0.3,28.7c-3.2,10.5-5.4,21.1-11.9,30.5c-0.7,5.5-10.3,2.3-3.7,6.9
	c8.3-7,13.4-17.8,16.8-28.2c3.7-9.1,6.4-18.4,8.8-27.8c-3.8-13.5-9.7-26.5-12.4-40.4c0.5-13.7-13.7-10.1-16.6-0.2
	c-6.7,9.2-13,18.8-19.2,28.3c-3.5-7.3-14.9-13.5-13.8-23.3c-8-6.1-0.5-16.6-1.4-25.6c3.2-5.6,1.8-19.3,10.9-9.6
	c9.8,4,21.2,1.3,31.3,0c8.1-2.7,11.3-16.3,9.6-20.6c-3.6-1.8,5.1-8.8-2.9-7.1c1.4-4.8,3.2-6.6-1.8-7.8c2.7-4.4-4.3-2.5-1-7.6
	c-4.5-4.6-7.8-9.7-13.5-15.4c4.1-0.7,7.4,0.8,10.9,2.6c2.8,2.4,5.4,4.6,8.1,7c2.9,2.3,4.5,5.5,7.7,7.3c2.2,3.2,3.8,5.9,5.9,9.1
	c1.7,3.4,2.6,6.1,3.5,9.9c-0.3,4.1,1.6,12.7,2.9,3.1c1.3-19.2-13.5-34.7-28.3-44.5c-6.9-7.3-23.3-3.6-18.2,8.3
	c6.9,12.5,0.2,28.4,9.2,40.2c10.1,10-11,2.3-16.4,4.1c-7.6,1.5-19.6,5.9-16.7-7c-1.1-5.7-12-11.7-0.4-11.8
	c15.9-4.3,6.1-21.1-4.4-25.5c0.1-8.5,6.7-17,12-23.8c3.4-5.7,12.3-10.6,15.9-9.4c-10.4-3.6-17.5,8.5-23,15.6
	c-3.5,4.4-7.9,21.7-9.8,9.3c-0.9,0.2-4,5.9-5.7,2c-0.9-7.7-3.9,9-5.6,0.8c-5.1-11.2-11.8-23.8-23.8-28.6
	C720,15.8,716.4,15.8,715.9,17.5L715.9,17.5z M745.4,63.2c-0.2,9.7-16.1,9.2-10.3-1.4C737.3,57.2,747.9,55,745.4,63.2z M771.4,63.2
	c3,15.6-18.2,1.7-9.4-5.5C765.9,57,769.9,59.7,771.4,63.2z M745,143.9C737.4,139.5,751,140,745,143.9z M761.2,144.3
	C755.4,138.8,768.5,141,761.2,144.3z M710.8,187.7c5.9,8.7,7.1,23.8,17.8,26.7c2.1-0.8-5.8,10.6,3,9.5c6.2-2.5-1.6-14,2.1-20.2
	c-5.9-3.8-7.1-13.4-13-19.6c-6.5-9.8-12.7-20-19-29.8c-13.1-1.8-8.4,13-4.6,19.7c2.8,18.6,7.2,36.8,12.2,54.9
	c1.9,9.8-0.1,19.8-1.2,29.3c-0.8,8.3-1.8,16.1-3.5,24.1c2,9.7,4.5-7.5,5.8-10.4c0.5-10.8,3.6-21.5,5-32.5
	c-0.8-18.3-7.5-35.8-10.2-53.9c-2.3-5.6-0.5-12.4,2.9-3.7C709.1,183.8,709.9,185.7,710.8,187.7L710.8,187.7z M772.6,216.8
	c-6.6,10.9,12.1,7.2,4-0.9c-2.5-2.8,8.5-1.1,7.2-7c8.1-9.2,9.2-23.2,17.7-31.9c-0.2,9.5-2.9,18.9-4.7,28.2
	c-2.9,12.1-6.7,24.4-6.2,36.9c3.1,10.7,3.3,22,6,32.5c-0.5,4.7,5.2,17.3,4.4,5.9c-1.5-9.2-3.7-18.6-3.9-28c-2.2-9.9-2.1-20.3,1-29.9
	c4-15.9,8.7-31.8,10.4-48.2c2.5-7.4,9.9-20-3.5-20.7c-6,7-10.4,15.7-15.7,23.5c-6.6,7.9-10.8,21.2-16.8,25.6
	C772,207.6,773.2,212.2,772.6,216.8L772.6,216.8z M739.6,234.5c-2.4-7.1-7.2-12.3-11.3-3.2C724.2,235.8,748.3,241.2,739.6,234.5z
	 M769.8,237c11.4,2.3,7.2-13.4,0.3-10.4C769.9,231.8,757.2,240.8,769.8,237z M730,240.5c-1.8,13.3,15.8,0.4,22.4,7.1
	c7.5-4.8,16.6,1.1,23.4-2.2c3.3-14-14.6-4.5-20.5-1.9C749,245.7,733.3,232.3,730,240.5L730,240.5z M736.3,248.3
	c-9.1,2.5,3.6,13.6,8.7,6.1c8.6-6.7,27.7,10.7,27.3-5.4c-10.4-4.2-20.5,2.2-31-2C739.6,247.1,738,248.1,736.3,248.3L736.3,248.3z
	 M748.5,264.5c4.5,10,12.6-4.6,15.2-7C757.2,253.2,730.2,253.8,748.5,264.5z M743,262.1c-0.3,3.4,2.7,7.4,1,11.3
	c-0.9,3.3-3.1,13.6,0.8,4.6c0.9-7.5,5.2-7.7,5-0.2c3.2,14.7,6.7-5.6,8.3-6.4c1.7,3.5,2.3,7.7,5.3,10.4c-0.9-6.4-3.6-12.9-0.9-19.2
	c-4.4,0.7-10.7,14.3-15,2.7C746.4,263.9,744.9,262.5,743,262.1L743,262.1z"/>
<path id="path2050" inkscape:connector-curvature="0" class="st0" d="M321.8,504c1.9-5.8-4.2-21.9-3.1-7.2
	c1.5,16.6-11,35.6-28.5,36.6c2.5-12.9-11.1-25.2-21.9-13.9c-16,0.9-8.5,19.4,2.4,23c8.5,6.3-10.7,22.8-21,19.2
	c-9.3-3.8-27.2-12.1-11.1,0.1c12.5,7.7,34.2,4.5,37.8-11.8c4.2-13.8,15.8-11.4,26.7-14.9C314,528.7,320.4,516.1,321.8,504L321.8,504
	z M250.7,518.6c-3.8,6.1-11.2,19-7.2,22.6C246.9,534.9,256.7,525.7,250.7,518.6z M243.9,506.2c-3.4,1.7-4.2,7.6-6.6,10.9
	c-1.9,3.9-3.9,7.7-5.8,11.6C236.9,526.1,246.5,513.4,243.9,506.2L243.9,506.2z M275.1,510.7c5.3-21.5-27.2-8.7-21.2,5.7
	C259.2,525.6,271.8,517.4,275.1,510.7z M238.3,496c-7.7-2.1-19.4,13.8-16.9,16.2C227.7,507.8,235.6,503.8,238.3,496z M302.6,501.7
	c-8.7,0.4-17.3,0.8-26,1.1c5.7,7,20.3-0.3,26-0.3V501.7L302.6,501.7z M264.8,494.9c3.2-16-22.3,0.5-17.7,9.5
	C253.3,509.3,262.1,500.3,264.8,494.9z M204.4,497.2c7.2,1.8,23.4-5.8,21.6-10.8C217.5,485.3,211,493,204.4,497.2z M258.2,483.6
	c1.5-18.9-28.4-2.9-20.5,9C245.2,499.1,255.6,491.3,258.2,483.6z M210,479.1c-6.5-1.9-23,9.3-20.2,11.8
	C196.7,487.7,206.8,487.1,210,479.1z M292.4,482.5c-8.3,1.1-16.6,2.3-24.8,3.4c1.1,6.4,6.2,2.9,10.4,1.9c4.8-1.4,9.6-2.8,14.4-4.1
	v-0.7V482.5z M245,469c-5.7-16.6-25.9,10.1-13.9,15.6C238.3,483.8,244.2,475.9,245,469z M220.2,454.7c-10.8,3.9-17.1,25.2-0.7,25.5
	C231.8,479.1,237.3,451.8,220.2,454.7z M188.6,470.1c-7.9,2.3-15.8,4.5-23.7,6.8c6.6,2.3,24.5,1.6,24-5.7l-0.2-0.7L188.6,470.1z
	 M321.8,449.8c1.3,9.1,2.8,18.1,4.5,27.1C326.1,468.4,332.7,453.8,321.8,449.8z M281.2,464.4c-7.9,2.6-15.8,5.3-23.7,7.9
	c2.4,5.9,6.5,2.5,10.3,0.2c4.4-2.4,8.9-4.6,13.4-6.9v-0.7V464.4z M373.7,461.8c-2.3-5.7-26.7-12.4-18.3-5.8
	c9.3,5.1,18.9,9.7,27.3,16.3C381.4,467.6,377.3,464.7,373.7,461.8z M213.4,455.4c-5.3-11.8-22.7,2.6-23.4,11.2
	C197.9,480.7,213.3,466.8,213.4,455.4z M310.5,443c-5.9-3.6-5.2,3.3-6.4,7.3c-1.3,5.5-2.5,10.9-3.7,16.4c4.6,0.4,3.5-7.2,5.7-10.2
	C307.5,452,309,447.5,310.5,443z M265.3,449.8c-7.5,3.4-15.1,6.8-22.6,10.2c2.4,6.3,6,3,9.7-0.3C256.7,456.3,261,453.1,265.3,449.8
	L265.3,449.8z M193.1,436.6c-8.9,1.2-27.5-1.5-19.6,13.2c3.4,18.4,26.7,10.5,27.3-4.6C201.1,440.7,197,437.6,193.1,436.6
	L193.1,436.6z M246.2,438.5c-7.7,0.8-21.5,7.8-21.1,14C233.6,452.5,240.9,443.6,246.2,438.5z M358.8,440.7
	c-3.9-15.1-22.4-11.5-20.5,3.9C334.9,457.6,366.3,451.8,358.8,440.7z M169,446.9c-8.2-0.4-16.3-1.1-24.5-1.7
	c6,4.5,22.7,8.3,25.2,3.6C169.5,448.2,169.3,447.6,169,446.9L169,446.9z M232.6,436.2c-7.7,0.8-23.5,6.3-22,12.6
	C219.1,448.4,226.8,440.5,232.6,436.2z M325.2,427.7c-14.9,5.9-9.8,24.9,5.8,21C343.5,446,338.2,421.6,325.2,427.7z M294.7,429.4
	c-3.9,1.4-6.1,6.3-9.3,9.1c-2.5,1.8-7.2,10.1-5.3,9.3C285.3,443.1,298.8,438.5,294.7,429.4z M395.1,443c-11.9-0.3-23.4-3.2-35-5.6
	C365.4,449.7,386.7,445,395.1,443z M223.6,431.7c-7.9,1.5-15.8,3-23.7,4.5c-0.4,7,5.3,2.8,9.3,1.7c4.8-1.7,9.6-3.4,14.4-5v-0.7
	V431.7z M307.7,431.7c-4,15.4,12.9,2.5,14.4-5.2C325.5,412.8,308.7,426.8,307.7,431.7z M190.8,422.9c-8.2-3-27.1-8.5-21.8,7.3
	C173.1,441.5,203,435,190.8,422.9z M164.9,423.8c-6.5-0.7-23.4,5.7-21.5,7.8c7.3,0.1,14.4-2.3,21.5-3.3
	C164.9,426.8,164.9,425.3,164.9,423.8z M316.7,414.8c-1.3-19-31.9-2.4-21.2,11.3C302.5,440.4,315.2,423,316.7,414.8z M286.8,410.2
	c-3.8,5.1-9,9.4-11.9,14.9c-4.9,12.4,4.8-0.8,8.6-5C285.6,417.3,287.6,413.9,286.8,410.2L286.8,410.2z M334.2,424.9
	c4.3,7.8,17.1-6,19.6-12.2c0.3-2.1-7.2,4.4-10.1,5.8C340.5,420.7,337.4,422.8,334.2,424.9L334.2,424.9z M221.3,424.9
	c-8.3-0.4-16.6-0.8-24.8-1.1c-2.1,6.7,4.6,3.7,8.6,3.7c5.4-0.5,10.8-1,16.2-1.5v-0.7L221.3,424.9L221.3,424.9z M322.9,417
	c5.1,10.7,24.5-11.7,18.9-9.9C335.5,410.4,329.2,413.7,322.9,417z M213.4,413.1c-3.6-1.1-8.7-5-11.5-4.4c-2.2,8.9,14.7,8.8,21.1,9.8
	c5.6-0.6-6.6-3.5-9.3-5.3L213.4,413.1z M190.8,398.6c-11-18.8-29.9,15.8-12.5,20c12.5,8.6,31.6-14.9,14.6-18.7L190.8,398.6z
	 M300.3,406.9c10.2-0.1,14-14.9,0.6-11.9c-13.9-2.5-15.7,24.3-2,12.8L300.3,406.9z M282.3,396.7c-1.3-7.1-5-2.4-8.3,0.6
	c-4.8,4-10,7.5-11.9,13.7c2.5-1.3,7.1-5,10.3-7.2C275.7,401.4,279,399.1,282.3,396.7L282.3,396.7z M338.7,397.8
	c-7.9,2.6-15.8,5.3-23.7,7.9C321.4,413.2,334.6,402.7,338.7,397.8z M229.2,406.9c-6-4-19.2-14.8-23.7-6.9c7.7,2.8,15.8,5.3,23.7,8
	v-0.7V406.9z M217.9,384.3c-12.6,5,16.7,21.2,12.9,15.8C226.5,394.8,222.2,389.5,217.9,384.3z M198.7,399.9c14-4.5-6.2-15-9-21.3
	C177.8,385.3,188.5,399.9,198.7,399.9z M274.4,378.6c-9.1-3.8-18.3,19.6-14.5,18.6C264.7,391.1,269.5,384.8,274.4,378.6z
	 M172.8,394.4c-8.7-1.1-17.3-2.3-26-3.4c8.3,2.6,16.6,5.3,24.8,7.9C172,397.5,172.4,395.9,172.8,394.4L172.8,394.4z M334.2,389.9
	c-7.5,1.1-15.1,2.3-22.6,3.4c-2,7.1,4.4,2.9,8.3,2c4.8-1.4,9.5-2.9,14.3-4.3v-0.7V389.9z M305.6,387.7c4.8-17.3-22.5-20.3-23.4-3.1
	C279.4,401.9,300.2,397.4,305.6,387.7z M225.8,374.1c-8.3,3.4,3.6,16.5,7.8,20.9c4.6,3.5-2.2-7.1-3-10.1
	C229.1,381.3,227.4,377.7,225.8,374.1L225.8,374.1z M259.7,369.6c-1.9,7.9-3.8,15.8-5.6,23.7C257.5,391.8,268.3,372,259.7,369.6z
	 M239.4,366.2c-6.7-0.5-3.4,5.5-2.9,9.6c1,5.1,1.9,10.2,2.9,15.2C239.4,382.8,239.4,374.5,239.4,366.2z M213.8,366.2
	c-2.6-16.1-22.7-6.4-21.7,6c-2.6,12.4,16.3,25.2,22.6,10.7C216.8,377.6,215.9,371.5,213.8,366.2L213.8,366.2z M246.2,362.8
	c-0.9,7-4,22,1.2,23.5C247.6,379.1,254.7,367.1,246.2,362.8z M328.5,366.2c-7.2,3.4-14.3,6.8-21.5,10.2c1,6.7,4,5.2,7.8,1.1
	C319.5,373.7,324,369.9,328.5,366.2L328.5,366.2z M185.2,377.5c-7.2-3.8-14.3-7.5-21.5-11.3c1.5,3.7,6.7,5.6,9.7,8.6
	c3.2,1.4,7.7,8.2,10.1,6C184.1,379.7,184.7,378.6,185.2,377.5z M296.4,368.3c2.4-14-26.7-4.9-21.2,7.1
	C281.6,381.1,291.3,372.3,296.4,368.3z M227,366.2c3.6-12.8-15.9-27.1-13.4-6.7C213.1,366.6,225.3,379.3,227,366.2z M278.9,363.2
	c15.8-3.6,5.5-20.5-6.6-19.5c-12.1,0.8-19.2,25.1-2.8,25C273.7,369.1,276,365.4,278.9,363.2L278.9,363.2z M246.2,349.3
	c6.6-17.9-27.5-10.5-19.7,5.3c1.1,15,19.8,10.4,19-3L246.2,349.3z M295.8,358.3c5.2,10.7,24.6-11.6,18.9-9.9
	C308.4,351.7,302.1,355,295.8,358.3z M262.7,348.2c5.2-15.1-18.2-8-16,4c-3.8,13.7,13.5,10.1,14.2-0.8l0.9-1.7L262.7,348.2z
	 M182.9,336.9c4.8,7.2,9.6,14.4,14.7,21.5C201.7,349.4,190.2,339.8,182.9,336.9z M302.6,327.8c-4.2,6.2-16.9,14.6-14,22.6
	c4.9,0.7,4.9-6.6,7.5-9.7C298.3,336.5,300.4,332.1,302.6,327.8z M198.7,326.7c4.9,6.8,9.8,13.5,14.7,20.3c10.4-2.7-4-12.9-7.5-16.7
	C203.8,328.8,201.4,327.4,198.7,326.7L198.7,326.7z M268.4,326.7c-1.4,3.3-8.4,8.6-6.1,10.5c8.3,0.5,15.2-18.3,13-17.9
	C272.9,321.7,270.6,324.2,268.4,326.7z M242.8,335.7c-0.8-8.3-1.5-16.6-2.3-24.8c-2.7,1.9-0.8,8.5-1.7,12.2c0.3,4-1.4,9.9,0.2,12.6
	C240.2,335.7,241.5,335.7,242.8,335.7L242.8,335.7z"/>
<path id="path1428" inkscape:connector-curvature="0" class="st0" d="M1314.2,62.4l15.4,26.7l-15.4,26.7h-30.9l-15.4-26.7l15.4-26.7
	H1314.2z M1471,89.1l15.4-26.7h30.9l15.4,26.7l-15.4,26.7h-30.9L1471,89.1z M1467.4,263.6h-30.9l-15.4-26.7l15.4-26.7h30.9
	l15.4,26.7L1467.4,263.6z M1517.3,180.6l15.4,26.7l-15.4,26.7h-30.9l-15.4-26.7l15.4-26.7C1486.5,180.6,1517.3,180.6,1517.3,180.6z
	 M1482.8,177.7l-15.4,26.7h-30.9l-15.4-26.7l15.4-26.7h30.9L1482.8,177.7z M1486.5,174.9l-15.4-26.7l15.4-26.7h30.9l15.4,26.7
	l-15.4,26.7H1486.5z M1467.4,145.3h-30.9l-15.4-26.7l15.4-26.7h30.9l15.4,26.7L1467.4,145.3z M1319.6,59.7L1335,33h30.9l15.4,26.7
	l-15.4,26.7H1335L1319.6,59.7z M1386.1,57l-15.4-26.7l15.4-26.7h30.9l15.4,26.7L1417,57H1386.1z M1417,115.9h-30.9l-15.4-26.7
	l15.4-26.7h30.9l15.4,26.7L1417,115.9z M1467.4,86.4h-30.9l-15.4-26.7l15.4-26.7h30.9l15.4,26.7L1467.4,86.4z M1329.6,207.3
	l-15.4,26.7h-30.9l-15.4-26.7l15.4-26.7h30.9L1329.6,207.3z M1417,180.6l15.4,26.7L1417,234h-30.9l-15.4-26.7l15.4-26.7
	C1386.1,180.6,1417,180.6,1417,180.6z M1417,292.5h-30.9l-15.4-26.7l15.4-26.7h30.9l15.4,26.7L1417,292.5z M1335,263.6l-15.4-26.7
	l15.4-26.7h30.9l15.4,26.7l-15.4,26.7C1365.9,263.6,1335,263.6,1335,263.6z M1335,91.9h30.9l15.4,26.7l-15.4,26.7H1335l-15.4-26.7
	L1335,91.9z M1417,174.9h-30.9l-15.4-26.7l15.4-26.7h30.9l15.4,26.7L1417,174.9z M1335,204.5l-15.4-26.7L1335,151h30.9l15.4,26.7
	l-15.4,26.7C1365.9,204.5,1335,204.5,1335,204.5z M1329.6,148.1l-15.4,26.7h-30.9l-15.4-26.7l15.4-26.7h30.9L1329.6,148.1z"/>
<path id="path1730" inkscape:connector-curvature="0" class="st0" d="M397.7,263c-6.4,2.8-12.5-4.1-14.7-9.5
	c-2.5-5.1,2.2-9.4,2.1-14.5c0.1-3.6,3.6-5.9,6.8-3.7c5.9,2.1,4,9,1.6,13.1c-2.5,4.1-4.2,11.9,2,13.4
	C396.6,261.9,400.1,261.3,397.7,263L397.7,263z M448.7,206.7c-1.6,9.2-12.2,11-20,11.2c-9.7,0.6-22.4,0.7-28-8.7
	c-2-3.4-0.8-7.3-1.8-10.9c5.1-5.3,13.1-1,19.3-0.2c9.3,2.1,18.3-2.2,27.5-2.3c5.2,0.2,4.5,6.2,3.2,9.6
	C448.8,205.7,448.8,206.2,448.7,206.7L448.7,206.7z M448.8,103.6c-4-1.8-4.1-7.2-7.1-10.1c-0.7-5,6.4-4.9,9.8-6.1
	c9.2-2.5,19.1-4.9,28.3-1.3c-0.9,4.2-1.9,8.5-1.9,12.8C468.4,101.5,458.7,104.1,448.8,103.6L448.8,103.6z M380.7,31.3
	c4-3.1,7.7-8.2,13.1-8.2c2.8,2.9-5,4.3-6.2,7.2c-7.1,6.8-9.1,16.9-8.5,26.3c-2.6,8.8-11.2,16.4-20.5,16.6c-4.4,0.1-6.7-4.2-10.8-4.9
	c-7.1-3.7-4-13-0.6-18.2c6.9-10.4,19.8-14.7,27.2-24.6c4.8-3.1,10.4-5.9,16.2-6.2c0.1,3.4-5.6,3.4-7.5,6.1c-2.7,2.6-6.5,5.4-7.2,9.1
	C377.7,34.1,379.3,32.4,380.7,31.3L380.7,31.3z M495.9,71.1c-8.2,5.6-18.1-1.6-23-8.4c-5.2-5.7-1.9-13.6-4.3-20.3
	c-1.9-7.6-7.4-13.9-14.2-17.6c4.2-3.2,8.8,2.4,12,4.8c1.9,1.3,7.8,8.4,6.4,2.6c-3.5-6-10.8-8.5-15.8-12.8c3.2-1.3,7.6,0.9,10.9,2.1
	c10.7,6.6,19.5,16,29.9,23.1c4.9,5.6,10.2,14.1,6.2,21.5C502.3,69.5,497.9,68.4,495.9,71.1L495.9,71.1z M497.3,106.5
	c5.7,1.3-3.4,5.2-0.9,8.2c1.5,6.7-0.2,17.4-8.7,17.7c-6.2-0.7-12.8,0-18.5-3.1c-5.4-2.9-11.3-4.6-16.5-7.6c-4.1-2.9,0-9.7,4.4-7
	c2.6,3.2,7,1.8,10,4.4c5.4,3.3,12.8,9.9,18.9,4.5c2.8-0.6,7.6-0.8,6.2-5.6C491.7,113.5,491.7,107.3,497.3,106.5L497.3,106.5z
	 M362.4,270c1.3-10.3,9.6-18.8,8.3-29.5c2-2.4,7.2-0.1,8.6,2.7c2.3,4,0.3,8.7-1.1,12.5c0,7.1-2.8,15.4-9.1,19.2
	C366.2,276.3,361.3,273.3,362.4,270L362.4,270z M392.3,283.1c-2.9-8.2,10.2-14.9,15.5-8.2c1.5,2.7,7.7,5,5.1,8.1
	c-4.7,4.3-11.7,8.3-18.2,6.7C391.9,288.4,394.2,285,392.3,283.1L392.3,283.1z M407,115.4c-5.9-8.5,1.1-18.7,7.2-25
	c-2.5-3.7,0.9-9.5,4.5-11.1c1.1,2.4-2.9,6.7,2.1,7.2c3.3-0.3,9.1,1.8,10-2.8c-3.7-4.9,2.9-4.9,3.2-0.1C435,88.5,435.6,94,440,97
	c6.2,7.1,5.1,20.1-4.4,23.8c-4.4,2.9,3.4-1,4.6-2.5c2.6-2.6,8.1-2.7,7.9,2c2,4.3,4.2,10.9-0.8,14.2c-4.9,2.9-10.7-0.2-16,0.6
	c-9.4,0-18.8,0.5-28.2,0.8c-6.7-2.3-5.4-11.8-2.2-16.6c2.8-4.5,7.8-1.5,10.5,1.3c5.5,3.3,2.2-0.3-0.9-2.1
	C409.3,117.6,407.9,116.8,407,115.4L407,115.4z M423,124.2c5.1,1.5,4.5-1.7-0.4-0.7C420.3,123.9,421.3,123.8,423,124.2z
	 M406.4,175.1c13.7,2.7,28.5,3.3,41.5-2.4c6.4-0.6,6.3,7.7,4.7,11.9c-1.3,3.8-2.9,8.7-7.7,8.8c-11.4,3.3-23.5,2.7-35.2,1.7
	c-10.7,0.8-18.2-13.3-12.4-22C400.4,173.7,403.4,174.4,406.4,175.1z M368.6,76.4c-6.1,2.9-1.9,10-0.5,14.6c1.1,2.7,0.1,8.8-3.9,6.3
	C354,94.1,345,84.2,345.4,73.2c0.4-4.4,5.7-3.7,7.4-0.5c3,5.4,9.9,1.3,14.1-0.2c3.6-2.9,7.1,0.5,3,3.4
	C369.5,76.1,369,76.3,368.6,76.4L368.6,76.4z M443.2,173.1c-14.1,3.2-29,2.9-42.8-1.4c-5.2-1.7-8.2-7.5-6.4-12.8
	c-1.3-4.6,4.2-5.2,7.2-3.5c4.9,2,10,3,15.3,3.1c10.2,0.9,20.9,0.3,30.5-3c3.7-3.1,8.9-0.1,8.7,4.5c0.8,5.6-2.3,12.2-8.7,12.1
	C445.7,172.4,444.4,172.8,443.2,173.1L443.2,173.1z M479.4,156.9c-7.4-4-13.6-9.8-19.2-16c2.2-4.4-5.7-1.1-5.9-5.7
	c-3.1-3.6,1.3-8.5,5.3-6.4c3.9,0.6,3.1,5.9,6.7,6.1c6.7,4,8.2,15.1,17,15.9c3.1-2,6.5,1.6,9.3-0.7c2.5-4.6,3.1-12.5,9.6-13.2
	c5.8,0.8,0.9,3.5-1.4,3.9c-2.6,6.7-2.9,16.7-11.1,19C486,160.4,482.6,158.5,479.4,156.9L479.4,156.9z M349.6,137.8
	c5,2.8,3.3,10.4,7.9,13.2c4.3-0.4,9.4,1.5,13.1-2c4.6-3.5,6.3-9.6,11.5-12.4c3.6-3.2,7.2-10.3,12.9-7.9c1.9,4.2-2.1,9.7-5.9,11.4
	c-4.7,6.3-10.7,12.6-18.1,16.1c-4.9,2.4-11.9,6.6-16.2,0.8c-3.4-4.6-4.3-10.5-6.1-15.8c-3.2,1.1-7.1-4.8-1.9-4.1
	C347.7,137.2,348.7,137.3,349.6,137.8L349.6,137.8z M391.1,115.4c3-3.4,9-0.3,6.8,4.1c-3.2,5.5-10.5,5.8-15.6,8.7
	c-8,3.7-17.6,5.4-26.1,2.6c-7.1-5.9,1-17.4-6.4-23.3c3.7-2.5,7.2,1.4,6.7,5.1c0.7,3.5-0.6,9.8,4.3,10.2c6.9,5.4,15.9,0.7,21.6-4.2
	c2.9-1.3,6.9,0.6,8.4-3L391.1,115.4z M371.2,166.6c2.8-2.2,5.7-8,9.5-5.9c1.3,1.4,0.2-5.8,4-6.6c2.1-2.7,7.8-2.9,6.8,1.8
	c-0.3,3.3-0.8,8-5.3,7.6c-4.5,0.2-0.4,5.6-4.9,7.1c-8.3,8.1-18.5,15.6-30.2,17.2c-7.5-0.7-8-9.8-10.5-15.3c-0.8-3.6-4.3-5.8-6.7-7.6
	c-0.4-4.7,5.6-1.4,7.5,0.1c3.6,2.2,4.6,6.4,4.3,10.3c2.1,4.9,7.9-0.4,11.7,1.3c4,2.2,6.9-0.5,8.7-3.8
	C367.9,170.6,369.5,168.6,371.2,166.6L371.2,166.6z M370.8,275.1c2.8-5,9.2-3.2,12.3,0.3c2.9,3.4,9,5.5,7.5,10.8
	c-1.3,5.8-8.8,3.2-12.5,1.7c-4.4-2.2-9.4-4.4-12.5-8.2C365.4,276.6,370.2,277.7,370.8,275.1L370.8,275.1z M351.2,193.1
	c5-4.1,10.1,3.3,10.8,7.8c0.8,3.3,6.6-1.3,9.6-0.2c4.2,0.8,4.7-5.5,7.6-7.7c2.3-3.2,4.9-6.1,7.8-8.4c1.2-3.4,5.5-6.9,5.8-1.2
	c1,4.4-3.5,7.9-5.5,11.5c-5.3,6.9-12.8,12.8-21.4,14.5c-8.3-1.4-6.9-14.5-15.5-15.4l0.4-0.6L351.2,193.1z M429.9,239.5
	c-12.7,4-24.7-8.6-25.4-20.6c3-3,7.5,1.2,11.1,1c8.7,1.6,17.7,0.6,26.1-2.2c4.9,4.1,0.1,10.9-2.8,14.7
	C436.5,235.5,433.7,238.4,429.9,239.5L429.9,239.5z M370.8,85.3c9.4-3.5,19.2,0.5,28.6,2c4.1,0.8,10,4.4,7,9.2
	c-2.9,8.5-13.2,8.1-20.3,6.2c-5.2-1.5-12.9,0.1-15.1-6.3c-1.3-3.1-2.4-7.6-1.2-10.5l0.6-0.3L370.8,85.3z M453.5,148
	c-1,7.5-10.3,7.3-16.1,7.8c-11.6,0.6-23.5,1.3-34.9-1.3c-2.9-0.9-7.7-3.4-7.3-6.1c7.9-4,16.6,1.5,24.9,1.1c11-1.1,22.4-0.2,33.2-3.5
	C453.4,146.6,453.4,147.3,453.5,148z M489.4,205.6c-4.9,6.7-13.9,2.3-19-1.9c-4.5-3.9-9.3-8.4-12-13.5c-3.9-1.8-2.9-10.5,1.8-9.6
	c1.7,2.9,2.9,5.1,5.9,6.9c4,4.6,5.8,13.7,13.3,13.3c2.9,1,7.2,2.2,8.5-1.9c1.7-3.7,5.2-8.9,9.8-6.4c-0.4,3.2-5.9,4.1-7.1,7.6
	C489.4,202,491.2,203.9,489.4,205.6z M416.8,241.5c5.2,3.5,11.8-1.9,16.8,1.2c4.1,8.2-5.4,19.3-14,15c-5.8-3-6.1-10.6-5.7-16.3
	C414.4,239.7,416.1,240.6,416.8,241.5L416.8,241.5z M497.7,71.7c2.3-4.4,7.2-0.9,5.9,3.1c-0.4,11.4-10.3,20.1-20.5,23.3
	c-6.8-5.9,4.7-14.8-1-21.2c-2.9-0.6-7.4-5-2.3-5.5c5.3,1.3,11.9,7,16.9,2.1C497.1,73,497.4,72.4,497.7,71.7z M424.9,271.2
	c-2.4,8.9-18.6,7.6-17.8-2.2c1-4.1,3.8-7.7,5.9-11.4c3.8-3,5.8,4.4,9.6,2.5c4.4-0.7,7,4.5,3.9,7.7
	C425.6,268.8,425.1,269.8,424.9,271.2L424.9,271.2z M464.6,153c4.5,0.8,1.3,6.6,3.4,8.1c3.2-2.9,6,1.9,8.3,3.9
	c3.7,3.8,6.6,8.2,9.9,12.4c4.9-0.7,9.9-2,14.7-0.6c4.4-4.1,3.6-13.5,10.9-14.7c5.1-0.3,4,3.6-0.1,4.5c-5.4,2.3-1.9,9.1-4.9,13.1
	c-2.8,7.3-12.4,9.9-18.6,5.3c-9.8-3.6-17.4-11.1-24.1-18.8c1.6-5.6,2.8-3.3-2.2-2.3c-4-1.9-5.8-8.7-2.9-12
	C461.1,150.6,462.8,152.6,464.6,153L464.6,153z M397,138.3c6.8-5,15.6-0.2,23.2-0.6c3.7-0.8,6.9-0.6,10.7,0
	c7.4,0.4,16.5-4.5,22.6,1.6c-1.7,7.8-11.4,7.2-17.6,7c-6.2-0.1-12.3,0.3-18.4-0.3c-6.7-0.5-15.1,2.3-20.3-3.1
	C396.3,141.4,395.4,139.6,397,138.3L397,138.3z M380.4,234.2c5.9-1.7,3.1,9.4-1.7,7C375.6,238.9,377.5,235.7,380.4,234.2z"/>
<path id="path2252" inkscape:connector-curvature="0" class="st0" d="M105.2,149c5,1.8,1.4,7.7-1.9,9.1c-3,2.2-8.1,2.4-10-1.3
	C96.5,152.7,100.2,150.6,105.2,149L105.2,149z M177.8,168.2c-6.9-2.5-15.5-3.2-20.3-9.4c11.3,1,20.4,9.8,31.8,10.4
	c5.2,1.1,3.5,3.6-0.9,2.2C184.6,171,181.2,169.5,177.8,168.2L177.8,168.2z M63.5,69.4c-1.2-4.4,4.6-5.2,3.7-0.2
	c0,5.4,1.4,11.3-0.7,16.4C64,84,64.7,78.8,64,75.8C63.7,73.7,64,71.4,63.5,69.4L63.5,69.4z M101.3,63.9c3.4-4.1-4.5-5.9-4.5-1.4
	C97.2,64.5,100.4,67.3,101.3,63.9z M102.1,83.9c-2.7-3.8-5.5,2.1-8,3.4c-4,3.6,3.9,1.3,5.9,1.2c2.4,0.5,9.9,1.6,4.5-1.6
	C103.7,85.9,102.9,84.9,102.1,83.9z M86,90.8c-8.9,0.9-17.2-8.6-13.4-17.2c2.4-3.7,4-8.5,8.6-10.1c3.8-2.3,9.9-2,12-6.4
	c-1.4-5.7-7.9-8.2-11.3-12.7c-3-2.7-5.6-7.9-0.7-2.6c4.6,3.8,8.7,8.2,13.5,11.6c2.9,0.4,6.5-2,9,0.6c5.6-4.4,10.5-9.6,16.2-13.8
	c-3.6,5.6-9.5,9.5-13.5,14.8c-2.5,4.6,4.2,6,7.3,7c4.5,1.1,8.9,3.5,10.6,8.1c6.2,7.4,0.9,20.6-9,20.6c-5.3-1.2,0.1,2.9,1.3,4.7
	c3.2,2.9,5.7,9.9,0.5,12c-10.8,2-22-0.9-32.8,0.8c-6.7-0.7-5.5-9.6-2.3-13.5C82.4,92.5,90.9,89.7,86,90.8L86,90.8z M34.5,163.6
	c-9.1,3.7-18.5,6.9-28.1,8.6c-0.1-3.7,5.5-3.3,8.1-4.2c8.4-0.9,15.2-6.1,22.7-9.2c6.5-0.9,2.6,3.4-1.4,4.2
	C35.4,163.1,34.9,163.3,34.5,163.6L34.5,163.6z M63.2,60.3c-1.9-6.9-2.1-14.1-4.8-20.7c-1.1-5.2-3.1-10.3-4.1-15.4
	c1.4-2.2,2.5,6.2,3.7,8.3c2.8,9.4,6.4,18.7,8,28.4C66,63.5,63.3,62,63.2,60.3L63.2,60.3z M131.9,76.2c0.3-3.6-2.4-9.2,1.8-11.4
	c3.8-0.1,0.6,7,1.4,10c-0.3,3.5-0.3,7.3-1.3,10.7c-2.8-0.6-2.4-5.6-2-8.1C131.8,77.1,131.8,76.6,131.9,76.2z M110.5,232.5
	c-5.6,8.2-18,5.9-23.2-1.5c-1.9-2.5-5.3-7.5-0.4-8.7c8.4-1,17.5-2.5,25.6,0.7C116.8,225.9,112,229.7,110.5,232.5L110.5,232.5z
	 M156.8,224c-0.6,4.6,0.3,9.6-0.6,14.3c-0.8,5.6-0.1,13.5,6.6,15c4.8,4,13,3.2,15.6-2.9c2.7-4.4,1.7-9.6,1.3-14.3
	c1.3-6.2-4-11.4-10-11.7C165.5,224.2,160.7,222.9,156.8,224z M137.8,184.8c-5.7-6.2-10-15.2-18.8-17.3c-4.5-1.3-1.4,4.6-1.4,7
	c4.1,16.7,14.7,31.5,28,42.1c2.7,1.9,7.8,4.7,7.2-0.8c-0.7-10.8-7.7-19.8-13.1-28.7C139.1,186.2,138.5,185.5,137.8,184.8
	L137.8,184.8z M19.7,248.9c0.8,7,9.2,7.7,14.4,5.4c3.7-1.3,8.7-2.7,8.6-7.5c1.4-7.6-0.2-15.2-0.5-22.8c-5.1-1.6-10.2,1.8-15.4,0.5
	c-7.4,1-7.3,10.1-7.2,15.8C19.6,243.2,19.4,246,19.7,248.9L19.7,248.9z M100.5,241.1c7.4-1.8,14.6-7.5,16.7-15
	c1.2-6.1-6.5-7.1-10.8-8.1c-7.8-1.4-16.7-0.9-23.5,3.2c-3.8,7,3.5,13.6,9.1,16.9C94.6,239.5,97.3,241.4,100.5,241.1L100.5,241.1z
	 M43.7,214.2c3.7-14.8,12.3-28.3,23.3-38.8c6.9-6.2,16.7-13.2,14.7-23.7c-0.8-6.1-4.4-12.2-10.2-14.6c-6.8,6.6-9.8,15.9-15.4,23.3
	c-10.7,17.7-20.8,35.8-30.2,54.2c-2.6,2.4-2.5,7.6,1.8,7.8c5.1,0.7,10.5-0.5,15.1-2.9C43.1,217.7,43.3,216,43.7,214.2z M64.2,209.8
	c-4.5,7.6-16.5,7.9-19,16.9c0.5,6.1-2.1,12.5,0.1,18.3c3.1,3,6.7-2.1,9.6-3.5c13.8-10.5,25.3-23.6,36.3-37
	c5.3-6.7,7.8-15.1,7.7-23.5c2.1-8.8-7.6-13.3-10.9-20.1c-1.7-4.5-0.3-8.1,2.4-2.4c5.1,6.3,16.8,5.7,19.6-2.5
	c3.8-1.6,2.5,4.2,1.3,5.9c-1.3,3.9-6.1,3.6-7.2,7.6c-6.5,12-2.5,27,6.1,36.9c10.4,14.2,23.2,26.4,37.1,37.2c1.8,2.9,6.9,3.4,7.3-0.8
	c0.9-3.8-0.5-7.6,0.9-11.3c0.6-9.1-9.4-12.3-15.3-17c-11.9-12.2-23.2-27-25.1-44.5c3.8-8.4-5.3-17.1-1.1-25.3
	c9.4-8.1,8.9-22.6,4.5-33.2c5.8-6.2,1.4-17.7,10-21.9c4-3.4,5.4,1.3,2.4,4c-1.7,3.1-5.7,4.6-5.2,8.7c-0.7,8.8-1,17.9-0.8,26.6
	c3.7,7.1,10,13.8,18.4,14.4c5.2,2.9,11,7,12.6,13c0.3,3.3-7.4,4.6-6,0.3c1.4-4.8-4.2-10.3-8.6-8.6c-0.6,6.1,5.5,10.4,7.6,15.8
	c12.1,21.7,26,43,32.2,67.2c1.2,8.5,4,19.8-4.2,25.7c-10.4,3.7-20.4-3.6-28.9-8.7c-3.3-1.9,1,6.3,1,8.8c0.5,4,3.3,8.1,2.2,12
	c-3.5-3.7-4.6-9.5-6.1-14.4c-1.2-12.8-13.5-19.5-21.2-28.2c-8.8,5.8-12.7,18.5-24.2,20.1c-10.3-1.9-16.1-11.7-21.7-19.6
	c-8.5,4.3-16.1,11.2-20.8,19.5c-3.5,7.7-2.8,18-10.2,23.5c1.9-7.1,4.2-14.2,6-21.3c-2.7-1.4-6.2,3.5-9.3,4.5
	c-6.3,3.8-14.9,7.1-21.8,3.2c-8.4-8.9-4.9-22.3-1.5-32.6c8.6-24.3,22.8-46,35.3-68.4c2.4-1.3,5-6.1,1.3-7.4
	c-3.8,0.5-6.6,4.4-8.1,7.7c3.2,3.6-0.3,4.5-4,4c-4.4-1.9,0.2-6.8,2.4-8.7c4.1-3.6,8-8.1,13.9-8.4c5.7-1.3,7.9-8.2,12.9-10.9
	c1.5-2.9-0.1-7.3,0.3-10.8c-0.6-4,1.8-8.1-0.3-11.7c-1.5-4.1,1.8-9.1-2.2-12.1c-1.6-2.5-5.3-4.9-4.8-8c6.5,0.2,9.9,6.9,10.2,12.7
	c-0.3,3.7,3.1,6.6,2.7,9.9c-1.1,9.3-4.4,19.7,1,28.2c5.8,2.4,6.3,9.3,4.4,14.5c-3,8.2,0.4,17.2-2.9,25.3
	C78.9,191,70.8,200.1,64.2,209.8L64.2,209.8z M54.1,216c15.2-11.5,26-29,28.6-47.9c-0.9-4.2-5.8-1.3-7.2,1
	c-9.9,9.6-20.4,19.4-24.9,32.8c-1.9,5-5.4,10.2-4.7,15.7C47.8,220.9,52.1,217.5,54.1,216z M149.2,170.6c-6.7-11.2-12.9-23-20.9-33.2
	c-4.1-2-4.5,3.5-7,5.2c-7.3,8-4.4,21.7,4.6,27.1c11,8.7,19.3,20.3,25.3,32.7c4.1,5.9,1.9,15.5,8.8,19.3c3.5,0.7,7.1,0.8,10.7,1.3
	c5.6-0.3,3.2-7.4,1.6-10.5C165.2,198.2,156.8,184.6,149.2,170.6z M90.1,144.8c-10.3-5.4-10.7-19-8.2-28.9c1.7-5.2,9.5-8.4,13.9-4.9
	c4.9,6.9,0.6,15.9,2,23.6c-0.5,3.7,1.9,10.3-3,11.6C93.1,146.2,91.6,145.4,90.1,144.8z M117.9,132.5c-0.8,7.4-8.7,15.9-16.6,12.4
	c0.8-11.3,0.1-22.5,0.3-33.8c2.7-2.8,8.3-2,11.4,0.2C119.5,116.2,118.9,125.4,117.9,132.5L117.9,132.5z M136,49.2
	c2.9-8.8,4.3-18.3,9.1-26.4c-3.5,12.8-7.3,25.5-9.8,38.5c-3.2,1.6-2.5-5.5-1.3-7.3C135.1,52.6,135.4,50.8,136,49.2z"/>
<path id="path35450" inkscape:connector-curvature="0" class="st0" d="M559.8,661.9c0-2.1-0.2-4.3-0.7-6.5
	c-1.7-8.5-11.4-10.7-18.8-10.1c-20.5,2.6-40.2,11-57,23C468.5,679.5,454,691,440,702.8c-4.5,0-5-6.1-7.7-8.8
	c2.1-2.9-0.5-6.6,1.3-9.5c4.8-3.6,10.7-5.8,15.8-8.9c5.1-2.1,9.6-6.4,15-7.5c5.3-0.9-3.4-1.9-5-1.2c-4.4-0.2-6.6,3.8-10.5,5
	c-6.5,3.3-13.1,11.2-21,7.8c-2.5-2.9-6.6-3.9-10-1.9c-4.1,2.4-10.1,5.4-13.8,0.6c-8.2-3.6-15.2-10.7-24.3-11.9
	c-6.7,0.8-3,1.4,1.4,2.4c7.6,4.5,15.5,8.7,23.4,12.8c3.9,1.7,5.7,3.8,4.4,7.8c2,4.3-0.7,8-3.4,11.2c-2,4-6.6,1.9-7.9-1.4
	c-19.1-16.2-38.4-32.8-60.9-44.2c-13.9-5.1-28.6-11.9-43.7-9.1c-8.9,1-12.1,11.4-10.3,19.1c3.8,17.4,13.8,33,25.5,46.2
	c10.6,12.7,28.9,13.5,44.2,11.7c3.4,0.1,8.2-2.1,10.6-0.1c-5.4,0.3-10.9,1.1-16.1,2.4c-6,2.1-13.3,3.2-17.3,8.5
	c-3.1,6.9,4.9,11.7,9.1,15.8c11.4,11.3,24,24.2,41.1,25.2c9.1,0.7,19.2-1.9,24.3-10c1.5,20.8,2.1,42.8,13.2,61.2
	c2.1,4.7,7.5,2,9-1.6c9.9-18.3,11.1-39.7,12.3-60c4,8.1,14,10.9,22.4,10.3c15.5,0.5,27.7-10.2,38.1-20.3c3.8-4.8,10.2-6.7,13-12.2
	c3.9-7.8-4.3-15.7-12-15.5c-6-2.4-13.3-1.6-18.9-4.3c12,0.5,25,3.2,37-0.5c16.1-4.7,24.5-20.3,32.5-33.6
	C554.7,680.2,559.6,671.2,559.8,661.9L559.8,661.9z M553,654.1c0.2,1.9-1.3,3.9-3.5,4.4c-0.7,6.2-2,12.3-3.5,18.3
	c-0.9,3.6-1.7,8.9-2.3,2.3c0-4.5,1.4-8.9,1.5-13.4c0.8-5.3-1.1-10.4-4-14.7c1.3-3.9,6.9-1.4,9.5,0.1
	C552.2,651.9,552.9,653,553,654.1L553,654.1z M542.4,695.4C541.9,701.7,537,692.5,542.4,695.4L542.4,695.4z M536.9,703.7
	c-0.3,3.8-6.4,0.8-3-1.9C535.1,701.9,536.1,702.7,536.9,703.7z M534.9,657.6c0.1,4.1-1.4,8.6-1.2,12.5c-2.1,3.6-2.6,8.2-3,12.5
	c0.4,4.5-4.1,5.7-1.7,0.4c-1.6-8.5,1.8-17.4-1-25.7c3.2-3-4.6-5.7-0.7-7.1c1.7-0.7,3.6-0.4,5,0.6
	C534.3,652.9,534.9,655.2,534.9,657.6L534.9,657.6z M529.2,713.5c-0.1,1-1.1,1.9-3.5,1.5c-3-0.2-4.5,4-7.8,4.2
	c-4.5,0.8-2.5-4.6-1.8-6.8c-0.1-4.8,6.2-1,9-1.1C527.6,710.7,529.2,712.2,529.2,713.5z M522.9,691.9c-0.5,8.7-7.2,16.3-14.5,20.5
	c-1.4,1.8-9.3,1.7-6.2-0.4c7.7-3.7,17.6-10.6,15.4-20.4l-0.2-0.6l-0.3-0.6c0.9-3.9-3.1-5.8-5.3-8.3c0.4-3.9-0.4-5.6-3-9
	c-1.8-4.7-3-12.5,2.5-15.2c5.1-2.8,1.9,4,0.5,6.1c3.1,4.1-2.2,10.8,3.2,13.9C517.7,682.3,521.8,686.6,522.9,691.9L522.9,691.9z
	 M506.1,685.3c0.5,0.7-6.4,2.2-2.8,6c-4.2,1.2-9.2,0.5-13.2,2.7c-1.9,1.9-1.9,6.2-2.8,9.2c2.1,1.9,1.4,6.3-0.7,8.5
	c-1.9,0.5-1.2,1.2-1.2,2.6c-2.7,4.8-9.8,1.3-13.9,4.2c5.1-8.6,9.8-17.6,12.1-27.5c5.9-4.2,13.3-6.7,20.6-6.1
	C505.5,685,506,685.2,506.1,685.3L506.1,685.3z M501.2,665.2c0,0.9-0.7,1.8-2.1,1.8c-3.4,1.2-1.3-1.2-0.8-2.7
	C499.8,662,501.3,663.7,501.2,665.2L501.2,665.2z M498.2,730.8c-0.2,1.5-2.1,3.1-4.5,3.1c-5.9-1.6-12.3-4.8-18.8-3.3
	c-7.3,0.9-8.4,8.9-12.5,13.6c-2.7,3-3.9,6.7-2.6,10.6c-1.1,7.8-11.7,8.1-17,4.3c-3.6-1.8-3.3-6.4-5.9-8.7c-2.3-2.2-7.6-3-7.6-6.5
	c2.7-1.3,6.9-1.3,7.5-5.2c2.1-6.5-2.7-16.1,4.8-20l0.4-0.2c2.4-1.5,0.4,6.8,4.6,4c4.5-2.8,6.6,3.5,2.5,5.5c4.9-0.9,9.7-1.9,14.6-2.7
	c10.5-2.2,21.1,0.3,31.2,3C497.4,728.6,498.3,729.7,498.2,730.8L498.2,730.8z M491.9,738.5c0.1,1-0.7,2-2.7,1.3
	c-2.4,0.4-1.5-2.4-0.2-3C490.8,736.3,491.8,737.4,491.9,738.5L491.9,738.5z M491.1,672.4c-3.8,3.2-7.3,6.6-12,8.6
	c-5.2,3.2-0.3-5,2-6C483.6,673,488.6,668.6,491.1,672.4z M490.8,743c0,0.3-0.1,0.6-0.3,0.9c-1.4,0.8-2.1,0.2-3.2-0.6
	C483.3,740.6,490.5,741.1,490.8,743L490.8,743z M487.2,747.6C485.3,747.9,486.5,745,487.2,747.6z M482.6,750.9c0,1.2-1.4,2.5-2.9,2
	c-4.7-0.5-2.7-5.2,1.3-3.8C482.1,749.4,482.6,750.2,482.6,750.9z M475.3,755.3c0,0.6-0.3,1.2-0.8,2c-1.6,0.7-3.3,1.4-4.9,2.1
	c-4.4,0.8-4.9-3.9-1.3-5.4C470.4,752.3,475.3,752.9,475.3,755.3z M473.1,698.5c0,0.7-0.4,1.5-1.5,2.5c-0.4,5.3-3.2,10.2-4.5,15.3
	c-0.2,1,0.2,2.2-0.9,2.8c-3,4.7-11.9,0.4-7.9-4.5c5.3-3.4,7-9.8,9.9-15C469.5,696.3,473.1,696.5,473.1,698.5z M468,688.5
	c0.1,1.4-0.4-0.4-0.3-2.5C467.9,687.2,468,688,468,688.5z M463.1,766.9c0,1.5-3.4,4.4-5.3,4.8c-4.3,2.9-8.8,0.1-12.4-2.5
	c-1.2-1.1-2.5-2.2-3.5-3.5c-2.2-4.1,4.5-2,5.9-0.3c3.4,3.7,8.7,3,12.7,0.8C462.4,765.8,463.1,766.2,463.1,766.9L463.1,766.9z
	 M458,739.8c0.8-7.5-12.6-10.2-15.5-3.5c-0.5,2.6-1.7,5-0.7,7.7c1.8,5.4,5.2,12.6,11.5,13.1c5.6-2.2,0.8-8.3-1.1-11.5
	C450.6,741.2,458.2,743.7,458,739.8L458,739.8z M456.9,698.8c0.2,2-5.6,4.4-4.2-0.3c1-0.3,2-0.6,2.9-0.9
	C456.5,697.9,456.9,698.4,456.9,698.8z M435.8,768.6c-0.4,1.7-0.8,8-3.9,6.4C428.5,772.3,431.5,766.2,435.8,768.6z M435.5,783.7
	c0,1.3-0.6,2.7-1.6,3.5c-3.2,1.2-5-3.1-2.1-4.9C434.3,779.9,435.5,781.5,435.5,783.7z M435.2,759.3c0,1.9-0.6,3.9-2.6,4.6
	c-7.9,0.6-16,0-23.9,0c-1.9-1.2-3.3-7.3,0.1-8.3c3.6,1.2,5.8,3,9.2,0.1c2.4-0.6,7.1-1.3,8.1,1.1l0,0c0.8,3.5,6.1-1.4,8.5-0.7
	C435,757,435.2,758.1,435.2,759.3L435.2,759.3z M435.2,708.2c-0.2,2.1-1.9,3.9-4.6,3.4c1.4-6.1-3.4-12.7-9.8-12.9
	c-6.4-0.6-9.3,6.1-8.8,11.5c-1.9,4.2-6.6-1.7-5.5-4.5c2.1-2.9,5.3-4.5,7.2-8c2.5-3.8,8.4-7.6,12-2.9c2.6,3.3,6,6,8.1,9.6
	C434.9,705.5,435.3,706.9,435.2,708.2z M434.2,796.1c0.2,2.4-3.7,5.2-3.6,1.2c-0.8-2,1.8-3.2,3.2-2.2
	C434.1,795.4,434.2,795.8,434.2,796.1z M431.6,805.3c0.1,0.5-0.1,1.4-0.5,3.1C427.5,810.7,431.3,803.3,431.6,805.3z M424.4,817.5
	c-1.9,1.9-4.4,2-6.9,2.4C415.2,815.7,422.2,817.4,424.4,817.5z M422.9,781c-1.1,0.3-2.3,0.7-3.4,1
	C411.9,782.5,419.4,779.7,422.9,781z M422.4,804.2c0,0.3-0.2,0.7-0.4,1.1c-3.9,5.2-4.9-0.5-3.9-4.3c0-0.1,0-0.3,0-0.4
	c-0.8-0.3-1.6-0.7-2.1-1c-3.9-1.9-2-7.5,2.3-5.7c-0.1,2.3-0.1,4.5-0.2,6.8C420.1,801.6,422.6,802.5,422.4,804.2L422.4,804.2z
	 M419.1,768.8C417.7,769.3,416.1,768.4,419.1,768.8z M412.8,743.7c-1.3,5.2-8.2,5.3-10.7,9.6c-1.4,4.5-5,8.9-10.3,8.5
	c-6.8,0.6-13.1-7.3-8.6-13.4c-3-1.9-5.6-5-5.6-8.8c-3.9-9-16.7-12.1-25-7.1c-1.8,1.8-4.4,1-6.4,0.4c-4.1-1-2.7-5.8,1.3-5.2
	c12.7-3.2,26.1-4.1,39.1-1.6c4.8,2.1,6.5,1.2,3.9-3.7c3.7,0.8,9.4,0.4,9.5-4.6c5.6,2.9,5,10,4.9,15.3
	C404.1,738.3,407,744.4,412.8,743.7L412.8,743.7z M412.4,807.4c0,1.7-0.7,3.2-2.2-0.7C411.6,803.8,412.4,805.7,412.4,807.4z
	 M411.9,783.8c0,0.5-0.3,1-0.7,1.5c-1.4,4-3.4,0.5-4.8-1.3C404.8,779.5,412.2,780.6,411.9,783.8L411.9,783.8z M411.9,796.6
	c0.2,3.1-4.8,3.7-3.6-0.3c-0.6-2.5,2.8-1.7,3.5-0.3C411.8,796.2,411.9,796.4,411.9,796.6L411.9,796.6z M408.2,767.9
	C407.1,770.5,404.6,765.7,408.2,767.9z M401.2,763.2c0.1,0.3-0.2,1-0.8,1.9c-2.7,3.7-5.8,7.1-10.7,7c-4.1,0.4-12-1.3-9.9-6.9
	c3.7,4.2,9.9,3.4,14.1,0.6C395.7,765.1,400.9,761.7,401.2,763.2L401.2,763.2z M400.4,742c0.1-1.6,0-3.1-0.5-4.7
	c-0.2-4.1-4-5.4-7.6-4c-2.3,1.3-7.7-0.6-7.9,2.4l0.3,0.4l0.4,0.5c-1.5,4,2.4,6.1,4.5,8.5c-0.2,3.7-4.7,6.6-3.4,10.8
	c1.3,4.1,5.7,0.1,7.5-1.6C397.1,751.2,400.1,746.7,400.4,742L400.4,742z M389.7,699.4c0,0.3,0,0.7-0.1,1c-1.2-0.4-2.4-0.8-3.7-1.1
	c-2.9-1.1-9.6-4.2-6.8-7.6C383.8,688.3,389.6,694.4,389.7,699.4L389.7,699.4z M385.3,718.3c0,0.2,0,0.3-0.3,0.5
	c-4.3,6.5-13.5-1.6-11-7.6c-4.1-4.1-2.7-10.6-5.9-15.2c9.3,3.1,9.6,14.8,15.8,21.2C384.1,717.5,385.1,717.8,385.3,718.3L385.3,718.3
	z M374.9,685c0,0.3-0.2,0.7-0.7,1C371.9,682.4,375,683.6,374.9,685z M372.9,754.8c-0.4,2.8-4,5.4-5.5,2c-2.4-3.4,3.1-4.9,5.4-3.1
	C373,754.1,373,754.4,372.9,754.8L372.9,754.8z M368.9,717.4c0.4,2.3-6.9-2-9.4-0.8c-3-1.2-3.2-5.5-6.2-7c-0.1-4,2.9-7.9,0.3-11.8
	c-0.7-5.6-7.5-5.8-11.9-6.4l0,0c-0.8,0-1.7,0-2.5,0c-0.8,0.6,2-4.6-2.7-5.8c-0.5-2.5,6.5,0.1,8.7-0.3c9,0.8,17.6,8.5,16.2,18
	c4.2,3.4,5.3,8.8,7.4,13.5C368.8,717,368.8,717.2,368.9,717.4L368.9,717.4z M365.4,751c-0.1,1-0.8,1.9-2.1,1.8
	c-4.8,0.3-4.6-4.8,0.3-3.9C364.9,749.1,365.5,750.1,365.4,751L365.4,751z M365.2,681.1c0.1,1-0.5,1.6-2.4,0.7c-0.8-1-1.5-2-2.3-2.9
	c-3.6-3-3-9.2,1.2-3.6C363,676.1,365,679.4,365.2,681.1z M360.8,746.9c0.2,1.4-1.7,3.3-4.4,1.9c-3.2,0.3,0.3-2.6,1.3-3
	C359.8,745.4,360.7,746.1,360.8,746.9z M356.3,741.6c-0.2,1.7-4.4,5.4-4.7,2.1c-0.4-1.8,2.2-1.9,3.2-2.8
	C356,740.7,356.4,741,356.3,741.6L356.3,741.6z M354.1,737.5c0.1,1.5-2,3.7-3.7,1.6c-2.7-1.7,0.5-2.1,1.9-2.7
	C353.6,736.3,354.1,736.8,354.1,737.5L354.1,737.5z M344.7,666c0,1.8-4.2,1.6-3.8-1.8c-1.6-2.5,2.6-0.3,3,0.2
	C344.5,665,344.7,665.6,344.7,666z M341.6,713.7c-5.1,2-8.6-2.6-12.5-5.1c-5.3-2.5-7.2-8-9.7-12.9c-0.5-2.9,0.1-6.8,1.3-9.7
	c4.3-3,6.2-8,8.7-12.5c2.2-2.8-1.9-7-0.1-10.9c-0.3-4-4.1-7.3,2-4.8c6.4,3.6,2.2,11.7,1.6,17.2c-5.6,1.5-0.7,9.9-6.6,11.2l-0.6,0.2
	l-0.7,0.2c-3,6.2-0.4,13.6,4.2,18.3C332.5,708.9,338.5,710.2,341.6,713.7L341.6,713.7z M328.3,719.3c-5.4,0-10.1-3.2-14.5-6
	l-0.4-0.3l-0.6-0.4c1-1.3,7.1-2.4,10.3-2.6C328.4,710.2,326.6,716.2,328.3,719.3L328.3,719.3z M314.9,652.9c0,1.8-0.7,4-1.1,5.5
	c-1.9,6.8-0.7,13.7,0.2,20.5c0.1,1.9-0.3,11.4-2.2,6.5c-0.3-7.8-4.3-15.1-4.1-23c0.2-0.9,0.4-1.9,0.6-2.8c-2.9-3.3-0.7-9.2,3.4-10.1
	C314.2,649.6,314.9,651,314.9,652.9L314.9,652.9z M308.6,703.2c0.1,1.2-1,2.3-1.8,3.4c-3,1.4-1-8.1,1.3-4.6
	C308.4,702.4,308.6,702.8,308.6,703.2L308.6,703.2z M302.9,695.7c-0.1,1.3-2,3.2-3.3,0.9c-0.4-1.5-1.1-1.5,0.8-1.8
	C302.4,694.2,303,694.9,302.9,695.7L302.9,695.7z M300.5,651.1c0.3,1.6-1.1,3.9-2.9,4.6c-3.4,8.4,3.4,18.6-1.3,27.1
	c0.9-9.7-3.1-18.7-5.8-27.8c-2.4-4.3,4.5-5.5,7.4-5.6C299.6,649.4,300.3,650.1,300.5,651.1z"/>
<path id="path36226" inkscape:connector-curvature="0" class="st0" d="M1187.3,65c0.2-2.9-0.7-5.8-2.9-8c-8.8-7.4-21.7-6.2-31.8-2.2
	c-17.8,5.1-33.6,15.7-45.5,29.8c-8.1,8-14.4,17.6-20.7,27c-2.2,2.9-3.6,7-5,9.8c-1.6-2.6-1.7-5.9-2-8.9c-0.6-13,13.5-20,15.4-32.3
	c0.5-1.9,0.1-10.5-2.2-6.1c-0.6,3.7,0.4,7.9-1.8,11.5c-4.4,8.3-13.1,14.5-13.8,24.6c0.1,2.6-2.8,7.2-3.8,2.4
	c-0.3-8.8-6.5-15.7-11.4-22.6c-1.7-3.2-5.6-6.8-3.9-10.4c0.6-2-0.5-8.6-2.8-6.3c-2.5,11,6.6,19.4,11.9,27.8c4.9,5.5,4.1,14,0.7,20
	c-2.8-9.8-10.2-17-15.4-25.5c-10.5-12.3-21.4-25-35.9-32.7c-8.7-4.3-17.7-8.5-27.1-10.7c-8.8-1-20.2-1.4-25.9,6.7
	c-3.8,8.7,4,16.5,6.9,24.2c2,9.4,3,19.2,4.6,28.7c1.5,6.8,2.2,13.8,4.3,20.5c2.9,8.6,12.7,14.7,21.6,11.2
	c-4.1,7.8-11.6,13.8-13.8,22.6c-0.7,1.6,0,2.3,1.3,3.1c5.7,5.6-3.6,12.9-0.1,19.2c5.1-0.5,9.6,4,9.1,9.1c0.4,3.4-2.2,7.3,2.1,9
	c5,3.6,8.5,10.4,4.8,16.2c0.8,10.6-10.1,17.8-9.6,28.3c-0.2,3.4,2.4,6.8,5.9,4.5c4.8-4.7,2.5-12.4,5-18.2c2.3-3.2,3.2-7.9,7.3-9.4
	c3.6-1.8,6.7,2.7,9.2,2.8c5.9-3.3,9.2,5.1,14.4,6.1c4.1-1.3,2.6-5.9,2.6-9.1c-0.2-4,4.6-4.7,6.9-2.2c1.2-4.8,2.4-9.6,3.7-14.4
	c4.1-13.2,9.4-25.9,13.4-39.2c2.2-5.3,2.1-12.1,6.5-16.1c1,11.3-1,23.2,3.8,33.9c6.1-2.2,6.1-9.9,6.1-15.4
	c0.4-5.6-1.3-11.8,0.9-16.9c3.4,3.3,3.9,9,5.3,13.5c3.4,10.4,7.4,20.7,10.9,31.1c2.4,5.4,4,11,4.6,17c0.4,3.8,2.6,7.9,6.6,5
	c3.5,1.6,1.9,6.6,2.6,9.7c-0.3,4.7,6,3.6,7,0.3c2.9-6.8,12.9-0.1,15.7-7c6.8,1.2,10.2,8.2,11.7,14.3c2,4.9-0.5,11.9,4.5,15.3
	c6.2,0.8,9.3-8.8,4.5-12.5c-6-9.7-11.5-21.7-8.2-33.2c2.5-3.6,10-5.2,7.7-11c-2.6-3.6-1-8.5,3.3-9.8c3.2-1.3,9.1-4.1,5.9-8.4
	c-2.6-2.5-4.3-6.2-2.1-9.5c2.3-3.6,4.9-9.7-0.3-12.3c-2.9-3-4.6-7.4-7.6-10.6c-2.2-2.6-5.6-7.2,0.2-5c11,1.3,19.2-9.7,19.3-19.8
	c4.2-17.1,3.6-35.6,12-51.5C1186,70.9,1187.2,67.9,1187.3,65L1187.3,65z M1151.2,177.5c0,0.4-0.3,0.7-1,0.9
	c-7.1,0.9-9.8,10.1-5.3,15.3c0.3,0.4,0.7,0.8,1,1.2c-5.7,3.1-15.2,3.4-16.5,11.4c0.4,4.3-5.8,0.6-8.5,2.5c-4.1,0.8-3.6,6.2-7.2,7.3
	c-4.1-0.8-4-7.7-8.8-7.9c-2.6-7.7-5-15.5-7.7-23.2c-3.2-10.3-8.3-19.9-12.5-29.8c-1.4-3.8,2.9-5.4,5.9-4.4c-1.9-1.5-7-3.1-5.7-6.1
	c11.8-0.5,24.4-2.4,35.8,2.2c4,0.6,4.5,3.7,6.8,5.8c4,1.3,5.2,3.3,2.7,6.1c3.2,3.7,9.2,3.3,13.6,4.7c3.5,0.1-0.8,5.2,2.1,7.2
	C1146.9,172.8,1151.4,175.8,1151.2,177.5L1151.2,177.5z M1150.3,132.4c-3.6,1.9-7.8,1.3-11.7,1.9c-3.5-0.8-7.7,3.7-2,3.3
	c2.2,0.7,7.5,1.1,7,3.7c-6.9,1.6-14.4,0.4-21.5,0.6c-8.9-0.7-17.8-1.9-26.8-1.2c-4.2-0.3-9,1.7-12.7-0.2c1-4.5,6.7-6.1,8.8-10.1
	c-1.2-0.5-3.9,1.1-5.7,0.5c-4-0.2-2.8-4.9,0.1-5.9c3.5-6.9,8.7-13,14.5-18.3c5.5-4.7,9.4-10.8,13-16.9c3.7-4.9,6.6-10.8,11.5-14.5
	c4.2-0.2,3.9,6.5,7.8,7.5c0,1.1-0.6,6.2,4.2,5.5c5.2-0.5,3.7,3.2,0.1,4.6c-2.7,3.9,3.8,4.5,6.2,5.6c-0.9,2.8-6.8,2-7.4,5.2
	c3.8,2.1,8.3,2.8,12.3,4.7c5.3,1.4-2.5,2.7-4.5,2.5c-3.1,0.6-7.6-0.9-9.8,1.6c3.4,4.5,9.9,4.5,14.2,7.7c-2.8,1.6-6.6,0-9.8,0.6
	c-2.7,0.6-8.2-0.2-8.8,3C1136.3,126.3,1143.3,129.5,1150.3,132.4L1150.3,132.4z M1066.5,138.3c0.1,1.9-1.3,3.7-3.8,3.6
	c-6.1-0.4-12.1-2.3-18.3-1.4c-9.1,1.1-18.3,1.2-27.4,1.7c-3.7-0.2-9.8,1.3-11.4-3c3.4-0.9,7.5,0,10.3-2.6c0.5-3.4-5.5-1.3-7.7-2.3
	c-2-0.7-8.5-0.3-7.4-2.9c4-0.6,7-3.2,10.9-4.3c2.5-1.5,8-1.5,8.2-4.7c-5.9-2.9-13-0.3-19.1-2.4c2.7-1.9,6.9-1.4,9.8-3.5
	c2.3-0.7,8.1-5.4,2.9-5.7c-3.7,0.2-7.5,0.7-11-0.4c-4-1.8,2.3-3.4,4-3.8c2-1.3,7.6-1.3,6.8-4.5c-1.1-2.1-8.7-1.6-5.6-4
	c2.3-0.8,8.2-2.4,4.8-5.5c-4.8-2-1.1-4.9,2.3-5.2c4.7-1,0.3-6.1,4.5-6.5c2.5-1.3,3.4-7.8,7-5c6.7,7.7,10.9,17.2,17.5,25
	c8.6,8.3,16.4,17.5,22.5,27.8c0.3,3.7-5.5,1.9-7.9,2.2c-2.2,1.6,4.7,3.1,6.1,4.8C1065.8,136.1,1066.4,137.2,1066.5,138.3
	L1066.5,138.3z M1065.9,153.4c-0.1,0.5-0.4,1-1,1.7c-7.7,15.5-14.1,31.7-18.8,48.4c-0.4,4.3-3.3,5.6-6.2,8.2c-1.5,2.3-4.3,6.5-6.9,3
	c-2-1.7-0.5-5.6-4-6.1c-3.4-0.4-9.4,2.7-10.1-2.5c0.7-6.1-6-8.1-10.7-9.1c-3.7-0.1-5.7-4.2-2.6-6.7c4.1-2.9,1.1-8.4-2.8-9.9
	c-3-1.1-6.7-5-2.1-6.9c5.2-1.3,1.8-8,5.1-10.7c3-0.4,6.1,0.9,9-0.9c2.6-0.6,7.2-4.1,3.3-6.3c3.2-1.2,4.6-4.5,6.9-6.7
	c9.4-5.1,20.6-5.4,31.1-4.5c2.7,0.9,8.9-0.3,9.4,1.9c-0.8,2.5-7.2,3.1-5.6,5.4C1061.9,151.2,1066.2,151.4,1065.9,153.4L1065.9,153.4
	z"/>
<path id="path38250" inkscape:connector-curvature="0" class="st0" d="M1023,458.8c-0.4-2.9-6.1-1.7-8.1-4.1
	c-1.5-2.4-5.5-3.2-8.1-3.3c0.8,3.2,5.2,3.2,7.2,5.5C1016.3,458.9,1020.7,463.3,1023,458.8L1023,458.8z M1008.5,539
	c-1.8-4-7.5-5.4-8.3-10c-8.3-7.1-7-19-8.1-28.8c-1.4-9.3,3.3-20.9-4.6-28.2c-6.2-2.5-9.2-9.4-8.8-15.8c0.6-9.8-1.1-19.6-0.8-29.4
	c-0.3-4.2,4.2-6.6,7.5-3.9c5.8,6.5,6.9,16.2,12.4,23.1c1.5,1.9,5.9,6.1,7.2,3.8c-1-8.1-8.3-13.5-11.3-20.9
	c-1.7-6.6-5.5-15.9-13.9-14.7c-4.8,2.6-4-4.1-2.3-6.6c1.5-4.3,7-8.7,4.5-13.5c-6-3.8-14.2-1.6-20.3-5.7c-2-3.4,4.3-4.5,6.5-5.5
	c8-2.3,12.9-10.8,10.9-18.8c-1-3.7-2-7.3-1.2-11.2c1.6-3.8-1.3-7.3-4.4-3.4c0.4,5,1.3,10,1.2,15.1c0.5,6.9-4.6,13.4-11.7,13.7
	c-6.6,7-20.5,5.5-23.8-4c-0.9-8.8-12.6-13.6-10.6-23.2c5.1-10.5,10.9-21.5,20.6-28.5c5.6-5.6,13.7-7.8,19.7-12.7
	c-4.4-0.2-8.9,3.6-13.2,5.2c-3,2.7-6.8,4.4-10.3,6.6c-2.9,4.7-8.6,7.2-10.2,12.7c-3.4,3.5-4.9,8.3-7.7,12.1
	c-2.1,3.9-6.1,1.6-9.3,2.2c-5.8-2.4-5.5-10.5-10.2-14.3c-2.7-4.7-5.8-9.5-10.3-12.9c-7.8-5.6-15.7-13-25.6-13.7
	c9.4,5.5,19.6,10.5,27,18.7c6.6,9.3,15.6,19.3,14,31.5c-9.9,6.3-9.9,20.9-20.7,26.3c-7.2-3.3-15.6-4.4-21.7-9.7
	c-7.5-7.2,1.4-18.6-4.2-26.5c-4.4-2.4-6.6-7.2-9.8-10.9c-1.3-2.6-5.6-4.5-6.1-0.3c4.7,3.2,9.2,7,11.8,12.1c6,8.9-2.8,19.3,1.9,28.4
	c2.9,4.8,9.5,4,13.3,7.8c2.4,1.3,7.1,5.7,2.4,7.2c-6.6,1.1-15.2,1.3-18.7,8.2c-1.9,6.3,7.3,7.1,7.9,12.5c-1.1,4.1-7,3-10.2,2.6
	c-7.2,11.1-11.4,24.1-19.9,34.4c-4.6,4.4-11.8,4.9-16,9.5c1.9,4.5,6.7-0.6,9-2.2c3.7-4.3,9.9-3.9,13.5-8.2c5.2-6.2,8.1-14,11.4-21.2
	c0.8-5.7,8.4-6.6,11.5-2.3c4.7,4.6-0.3,10.7,0.9,16.1c0.2,8.8,4.4,19.8-3.3,26.7c-5.5,2.8-9.7,8.2-9.7,14.5
	c-0.6,12,1.1,24.3-2.1,36.1c-0.3,2.4-2.8,10.6,1.4,5.6c5.8-7.6,3.3-17.8,4.6-26.7c1.4-3.7-0.5-7.2,0.2-10.9
	c0.3-4.9,4.7-12.3,10.4-8.9c2.7,12.7,4.8,25.8,11,37.4c8.2,12.9,16.1,26.9,28.9,35.8c9.6,7.5,23.2,4.7,32.1-2.5
	c18.8-15.7,26.8-40.2,32.4-63.3c-0.1-3.7,0.4-10.3,5.6-9.6c7,1.6,6.3,9.8,6.1,15.4c0.5,10.1,1.4,20.3,3.8,30.2c-0.1,4.1,5,3.1,6,6.9
	c1,3.4,3.7,5.6,5.6,8.3C1003.4,540.9,1006,542.1,1008.5,539L1008.5,539z M991,334.8c0-0.4-0.2-0.8-0.5-1.2c-3.8-3.6-4,2.9-5.5,5
	c-2.8,1.3-5.4,3.4-5.9,6.6c1.2,3.8,5.4-1.9,6.1-3.8C986.2,338.9,991.2,337.4,991,334.8L991,334.8z M976.7,400.6
	c-5.5,8.6-16.3,14.4-26.7,13.5c-13.4-3.5-27.3-2.7-40.9-1.4c-8.8,2.9-18.3,1.4-26.8-1.9c-4.3-2.6-10.6-0.8-13.5-5.6
	c-2.7-3.5,1.4-7.6,5.1-6c12.7,1.4,25.5,3.1,38.3,3.9c18.2,2.4,36.7,0.3,54.1-5.2C969.6,396.6,976.9,395,976.7,400.6L976.7,400.6z
	 M971.5,417.3c0.3,10.2-1.9,20.4-4.2,30.4c-3.7,10.3-4.4,21.8-10.3,31.2c-4.7,5-12.7,6-17.1,11.6c-3.4,5,3.1,8.6,5.5,12.2
	c4.7,6.1,12.5,13.7,8.6,22.1c-6.2,7.9-11.8,17.5-21.7,21.4c-10.5,4.3-20.9-3.6-27-11.6c-3-4.8-8.1-8.7-9.1-14.5
	c-0.3-11.9,12-18.8,15-29.6c-7.6-4.6-18.3-7.6-20.8-17.2c-0.8-18-10.8-33.8-14.6-51.2c-0.7-2.7-2.4-8.4,2.4-7.4
	c3.5,1,7.2,1.3,10.5,2.9c4.3,1,5.7,6.3,2.2,9.1c8.6,12.9,17.8,25.3,26.6,37.9c2.9,3,4.3,9.8,9.5,8.3c7.5-3.6,7.8-13.6,13.4-19.2
	c5.5-9.5,13.3-17.8,17-28.4c-1.4-1.5-4.2-5.2-0.5-7.2C961,415.5,967.9,412.9,971.5,417.3L971.5,417.3z M934.1,371.8
	c0,0.4-0.2,0.8-0.4,1.3c-1.3,1.3-4-0.6-3.9-2.3C930.2,366.1,934.3,368.8,934.1,371.8L934.1,371.8z M911.5,369.9
	c0.3,1.3-2.8,4.8-3.9,3.4C907,371,910.7,365,911.5,369.9z M852.3,527.6c0-0.3-0.1-0.5-0.2-0.8c-4.5,3.4-7.4,8.8-11.9,12.5
	c1.7-1.2,3.4-2.4,5-3.7C847.5,533.1,852.6,531.3,852.3,527.6L852.3,527.6z"/>
<path id="path38436" inkscape:connector-curvature="0" class="st0" d="M705.1,441c-0.8-1.6-3.2-6.2-4.3-1.3
	c-8.6,1.9-16.3-4.3-24.7-4.9c-9.8-1.8-18.7-7.4-27.7-11.6c-4.2-3.5-7.7-8.1-12.7-10.8c-5-4-12.6-4.9-15.3-11.2
	c-0.8-2-4.2-7.2-0.4-7.8c5.6,2.7,11.7,4.5,17.9,5.2c13.9,2.1,29.2-0.8,39.5-11.1c4.7-4.1,8.6-9.7,7.7-16.3c0.6-5.5-3.5-4.5-3.5,0.3
	c-6.2,5.2-9.4,15.2-18.6,15.8c-5.6,1.7-11.1,4.5-17.2,4.4c-8.3,0.9-15.6-4.2-23.8-4c-3.7-0.5-11,0.2-10.9-5.2
	c6.8-5.8,17.2-1.4,24.1-6.8c10.2,1.4,18.7-6.1,24.3-13.8c2.3-4.1-0.5-9.6-2.8-13.3c-5.3-8.5-15.1-12.5-20.9-20.4
	c-2.4-3.4-7.9-4.7-10-0.3c8.6,1.7,12.4,10.6,16.8,17.1c2.5,5.2,10.8,9,7.9,15.7c-3,7.5-11.9,7.2-18.5,8.9c-6.7-1.3-13,2.7-19.2,4.8
	c-3.5,0.8-6.8,0.7-9.9,2.7c-5.2,1-5.3-6.6-2.1-9c2.4-8.2,0.9-17.8-3.1-25.4c-1.2-2.8-4.9-8.3-6.6-2.9c-0.9,7.5,1.1,15.3,4.3,22
	c1.9,3.4-2.1,6.5-4.7,3.4c-3.6-1.9-3.3-7.2,0.6-8.6c-0.3-2.7-2.7-7.1-3.1-10.6c-0.2-4.5-3.3-5.5-3.3-0.3c0.2,4.4-5.3,8.8-2.4,12.9
	c4.5,1.5,0.9,7.4-2.5,7.7c-4.2,1.9-4.3-3.4-1.5-5.2c1.5-5,2.9-10.3,3.9-15.5c0.8-2.5,0.1-8.8-2.9-7.8c-7.1,8.2-11.7,21-6.4,31.2
	c4.2,4.3-0.6,11.6-6.2,10.1c-9.5-4.9-19.4-9.8-30.1-11.8c-6.7,0.9-13.7-3.9-15.2-10.6c-1.4-4.5,3.3-6.5,5.7-9.2
	c5-5,9.7-13.2,17.8-12.6c-3.4-0.6-0.4-5.5-4.9-3.8c-10.5,5.6-21.8,11.9-28.4,22.2c1.6,12.4,14.3,19.9,25.6,22c5.4,3,12,2.6,17.6,5.1
	c2.5,1.6,4.6,4.3,6,6.6c-4.1,1.2-9.5-1.3-12.8,2.3c-9.9,1.3-18.5,8.1-28.6,7.8c-3.5-0.8-6.7-0.6-10.3-0.3
	c-9.7-1.2-12.4-12.2-17-19.1c-2.2-2.2-8.3-2.2-4.7,0c-6.2,0.2-0.3,2.4,2.3,3.5c4.1,1.6,2.6,5.6,2.5,8.8c0.4,9,10.3,13.3,18.3,12.1
	c8.2,3.2,17.5,2,25.6-1.2c5-1,8.3-5,13-6.4c3.3-1.3,5.8,2.1,3.5,4.8c-6.3,8.1-17,11.2-24.8,17.6c-7.5,7.6-16.4,13.6-24.5,20.4
	c-9,2.4-13.7,12.5-23.2,13.9c-2.1,2.8-6.1,2.5-9.2,1.4c0.9,0.7-1,3.9,1.1,4.5c6,0.3,13,0.3,17.9-3.5c10.6-1.3,16.4-11.8,25.7-15.7
	c7.7-7.6,17.2-13,25.1-20.4c1.3-2.1,6.7-5.9,5.9-0.8c-1.4,5.7-3.6,12.8-9.2,15.5c-5.7,7.7-13.3,16.5-11.3,26.8
	c-4.4,7.7-10.1,16.2-7.7,25.4c-5.6,10.5-0.1,22.1,1,33c3.5,9.5,6.7,20.3,14.8,27c5.3,3.8,0.8-0.4,4.8-1.3c-1.1-1.7-5.2-2.5-6.1-5.3
	c-2.7-7.2-2-15.4-5-22.6c-0.4-3.7-4.8-7.2-0.9-10c0.5-6.5-2-13.1-1.1-19.6c3.7-7.9,3.7-17,6.7-25.3c2.9-3,3.4-7.4,4.9-11.2
	c0.9-0.5,2.5-6.2,3.6-3.7c0.3,8.3-0.8,16.7,1.1,24.9c2.2,15.4,11.4,31.9,27.7,35.3c17.1,4.6,37.9,2.9,50.5-10.7
	c13.3-12.9,14.6-32.9,13-50.3c-0.9-5.9,2.6,3,3.5,4.9c0.7,3.7,4,4.7,5.6,7.6c0.1,5.2,2.2,9.9,2.9,15c0.2,3.7,0,7,2.8,9.6
	c1.6,7.8-2.4,16.2,0.8,23.8c-4.8,9.9-6.6,20.8-9.7,31.3c-0.8,4.1-1.6,6.9-6,6.8c0.2,3.4,5.9,0.8,1.1,4.6c4,0.3,9.6-3.6,8.4-8.2
	c6.6-9.8,11.4-20.9,13.4-32.6c3.8-5.8,2.3-13.1,0.8-19.4c-0.3-3.4-2.9-7.2,0.2-9.8c1.4-7.8-5.5-13.9-7.5-21
	c-0.1-6.9-2.4-13.7-7-18.9c-4.2-6.5-12.1-10.1-14.9-17.5c-2.4-4.1,1.4-6.2,3.4-1.7c6.4,5.9,14.1,10.3,21.6,14.7
	c10,6.8,22.3,7.8,33.5,11.2C692.5,445.7,700.1,445.3,705.1,441L705.1,441z M620.8,417c0,1.4-0.1,2.9-0.4,4.4
	c0.5,18.8-17.2,36.5-36.2,33.9c-7.8,0.1-15.5-3-20.9-8.8c-15.1-14.9-13.1-40.8,0.2-56.2c2.5-2.5,4.7-5.5,7.9-7.2
	c2.9-2.4,5.7,1.2,5,4.1c2.9,4.6,1.3,10.3-1.2,14.8c-1.1,3.5-5.6,7.9-2.7,11.3c1.3-9.9,10.5-19.3,5.5-29.5c0.5-3.8,6.4-4.7,9.8-4
	c5.9,0.3,11.1,7,7.1,12.4c-2.4,9.7,8.3,18,4.8,27.8c3.5-7.9-2.2-15.6-3.3-23.3c-0.3-5,1.2-10.2,1.6-14.8c4.5,0.4,7.7,4.8,11,7.6
	C615.3,397.2,620.8,406.9,620.8,417L620.8,417z"/>
<path id="path38628" inkscape:connector-curvature="0" class="st0" d="M1332.6,412c0.1-1.8-5.3-1.5-7.1-1
	c-13.4-1.2-25.7-7.2-38.9-9.8c-5.5,0.2-10.9,2.9-16.3,4.1c-1.8-4.5-3.6-9.1-6.3-13.2c-1.4-3.7-5.9-6.1-6.3-10.1
	c2.5-4.1,5-8.3,7.5-12.5c5.1-6.4,4.5-14.8,5.3-22.5c1-3.4-1.9-8.1,2.1-10c1.5-1.6,9.5-6.9,4-4.8c-2.8,1.9-7.2,2.4-5.6-2.2
	c-0.7-4.6,1.6-8.6,3.1-12.7c1.4-4.9-3.6-2-3.1,1.3c-2.2,5.6-3,11.7-4.8,17.3c-5.1,5.1-14.2,5.1-18.6,11.4c0.6-3.4,0.4-7.3-1.5-10.3
	c-2.8-2.1-4.9,2.9-3.8,5.2c0.8,3.6-3.3,5.2-4.7,1.5c-4-2.1-9.2-2.4-13.1-5.2c-4.9-2.6-6.1-8.1-6.6-13.1c-0.2-1.9-3.6-8.4-4.2-3.6
	c3.1,3.2,5.1,8.3,3.4,12.7c-1.9,3.6-5.8,0.5-8.5,0.6c2,1.8,6.1,2,8.8,3.3c-0.7,7.8-1.4,15.7-1.4,23.6c3.3,7.7,8.3,14.9,13.5,21.6
	c-4.5,4.4-7.6,10-10.7,15.4c-1.1,5.4-5.5,2.6-9,1.3c-5.4-1.5-10.6-5.5-16.3-4.5c-7.7,0-15.3,0.2-23,0.2c-5.5-0.8-11,0.8-16.4-0.3
	c-1.7-1.5-9.6-2.6-5.1,0.5c4.2,0.8,8.4,1.7,12.5,3.1c8.6-0.1,17.2-0.6,25.8,0.1c9.8,2.9,19.5,6.2,28.8,10.4c1,6.3,1.1,12.7,1.3,19.1
	c-3.1,3.6-5.5,7.8-8.3,11.6c-6.9,3.7-14.6,6.6-21.2,11.2c-3.8,1.3-3.3,5.4-2.3,8.5c4.4,14.9,9.1,29.8,12.7,44.9
	c1.9,3.9,0.6,7.7-0.5,11.6c-2.6,3.3,0.5,7.8,2.7,3c-0.1-4.8,0.7-9.5,1.7-14.2c-5-15.5-9.2-31.3-14.5-46.7c6.6-3.2,13-6.5,19.4-10
	c-3,14-6.4,28.4-3.3,42.7c2.9,17.1,5.2,36.6,19.4,48.5c7.8,5,14,14,23.9,14.6c9.4-9.9,24.5-14.7,29.6-28.5
	c8.3-18.6,9.5-39.6,7.5-59.6c-1.3-4.4,3.3-5.1,4.7-1.2c3.4,2.1,6.1,5.9,5.1,10.1c-3.7,15.4-6.5,31-10.4,46.4
	c0.8,3.2,2.8,6.4,3.8,9.7c1.1,1.8,2.1,8.2,5,5.5c-0.8-4.4-5.8-7.5-5.4-12.5c2.2-10.9,4.8-21.9,6.9-32.8c1.2-7.8,3.9-15.5,4.7-23.3
	c-1.6-5.5-7.1-8.8-10.8-13c-5.3-3.8-6.7-10.2-9.6-15.7c-2.1-5.6-8.4-9.3-7.8-15.8c1.2-3.6-1.7-8.1,1.1-11c6.2-2.3,12.6-4.6,18.8-7.2
	c5.7,0.5,11.4,3.1,17,4.5c5.6,2.1,11.5,2.6,17.5,2.2c2.5,0.1,5,0.3,7.4,0.4C1332.5,412.6,1332.6,412.3,1332.6,412L1332.6,412z
	 M1281.7,465.2c0.1,0.5-0.1,1.2-0.5,2c0,0.9,0,1.8-0.1,2.7c0.3,3.7,0.1,7.1-3.3,9.2c-3,4.4-4.1,0.3-3.4-3.1c0.5-3.4-1-8.4,1.3-10.7
	C1277.7,463.6,1281.5,463,1281.7,465.2L1281.7,465.2z M1281.5,494.8c-0.3,3.2-4.5,3.9-7.3,4.1c-2.4-1.6,0.1-6.4,0-9.3
	c-0.9-3.6,6.6-5.8,7.2-2.3c0,2,0,4,0,6C1281.5,493.9,1281.5,494.4,1281.5,494.8L1281.5,494.8z M1279.1,450c0,1.6-0.6,3.5-1.3,4.3
	c-0.9,3.3-6,4.2-5.2-0.3l0,0c1.4-2.3,1.6-5.4,4.6-6.2C1278.6,447.2,1279.1,448.4,1279.1,450L1279.1,450z M1276.2,507
	c-2,4.1-3.7,8.3-5.7,12.5c1.3,1.7-1.8,4.3-3.4,6.5c-0.2,0.2-0.3,0.4-0.5,0.6c-0.3,0.4-0.5,0.8-0.8,1.2c-3.4,5.7-1.7,1.6,0.8-1.2
	c1.5-2.3,2.8-4.7,4-7.1c-0.3-0.4-0.9-0.8-1.8-1C1267.6,513.8,1270.7,506.5,1276.2,507L1276.2,507z M1268.5,501.2
	c-1.8,13.4-6.1,26.8-14,37.9c-5.5,8-17.7,5.9-23-1.1c-6.3-9.8-11.9-20.9-12.4-32.9c-1.5-18.8,7.4-36.4,17.5-51.7
	c2-4.6,9.3-8.9,12.8-3.4C1259.3,465.4,1268.4,482.5,1268.5,501.2L1268.5,501.2z M1267.3,341.1c0.1,1.9-0.8,4.5-0.5,6
	c2.1,8.5-4.8,15.2-9.6,21.2c-2.4,2.1-3.4,7.9-7.6,5.5c-1.8-4.9,4.9-9.9,2.1-14.8c-4.5-6.7-0.2-16.4,7.7-17.9
	c2.2-0.1,3.8-1.9,5.9-2.1C1266.8,339.1,1267.2,340,1267.3,341.1L1267.3,341.1z M1263.3,403.2c-0.5,8.3-10.7,10.7-17.5,9.8
	c-5.8-0.8-11.9,0-17.6-2.2c-5.2-1.4-6.4-7.7-3.6-11.8c5.4-5.6,8.9-12.7,13.9-18.6c2.6-1.7,6.4,0.4,9.7-0.6
	c6.3,2.4,5.6,11.1,10.1,15.3C1261.3,396.6,1263.1,399.7,1263.3,403.2L1263.3,403.2z M1250.9,361c0.1,0.4-0.1,1-0.5,1.8l-0.2,0.2
	l-0.4,0.4C1247.1,360.7,1250.6,359.2,1250.9,361L1250.9,361z M1250.5,416c-0.1,7.2-6.6,13.5-4.9,21c-0.8,4.8-4.9-1.2-3.6-3.6
	c1.2-4.4-2.6-8.2-4.3-11.9c-1.6-2-3.3-7.2,1.1-6.5C1242.5,416.2,1247.3,413.3,1250.5,416L1250.5,416z M1239.6,360.8
	c0,0.4-0.1,0.9-0.3,1.6v0.1l-0.4,0C1234.3,361.9,1239.4,358,1239.6,360.8L1239.6,360.8z M1238.9,352.2c-0.1,3.4-1.2,6.6-3.6,9.2
	c2.4,2.4,0.7,6.5,2.9,9c2.2,3.7-3.5,5.1-6,3.1c-4.3-4.8-8.2-10.4-12.7-15.3c-0.9-4.8,0.4-10.2,0.9-15.1c-0.9-6.2,3.8-3,7.4-1.8
	c3.8,2.1,10.5,1.5,10.9,7.1l0,0.4C1238.8,350,1238.9,351.1,1238.9,352.2L1238.9,352.2z M1225.2,535.9c-0.3,1.4-1.9,1.7-3.9-1.1
	c-1.9-1.3-4.9-8.6-0.3-6.2c0.9,1.3,1.9,2.5,2.8,3.8C1224.9,533.7,1225.3,535.1,1225.2,535.9L1225.2,535.9z M1215.6,448.6
	c0,1.3-0.3,2.6-0.6,3.6c-3.4-0.7-5.3-6.8-1.9-8.7C1215.1,444.3,1215.7,446.5,1215.6,448.6L1215.6,448.6z M1215.6,512.5
	c0.1,1.3,0,2.7-0.7,3.9c-1.1,5.5-3.7-0.4-3.9-3.1c-0.9-2.8,1.1-7.8,4.4-4.8C1215.3,509.8,1215.5,511.2,1215.6,512.5L1215.6,512.5z
	 M1215.2,498.5c0.2,3.4-3.9,1.9-6.9,0.8c-1.6-2.8-0.8-7.5-1.5-10.9c-1-3.4,6.9-1.8,7.4,0.9c-0.1,2.5,0.3,5,0.6,7.4
	C1215,497.5,1215.2,498.1,1215.2,498.5L1215.2,498.5z M1213.2,469.8c0,0.4-0.1,0.8-0.2,1.2c-0.8,2.4,1.7,11.3-1.9,7.8
	c-0.4-0.4-0.9-0.8-1.3-1.1c-5.7-1.4-5.4-9.3-1.9-12.9C1211,462.5,1213.3,466.7,1213.2,469.8L1213.2,469.8z"/>
<path id="path1248" inkscape:connector-curvature="0" class="st0" d="M1110.7,603.8C1112.8,599,1107.5,605.1,1110.7,603.8z
	 M1108.4,606.9c-5.8,9,17.1,18.8,2.4,24.4c-3.2,6-16.8,3.3-7.4-0.5c10.3-6.8-1.1-25.3-10.3-14.5c-11.8-11.1-19.3,11-7.7,16.4
	c0,6.6-24.5-0.6-15-9.8c5.6-4.6,2.5-20,0.1-16.7c8.9,9.3-11.2,20.8-0.6,28.2c5.4,1.9,19.5,7.5,13.3,13.1
	c-11.7-3.5-23.2-7.7-35.7-7.2c-15.2,0.3-28.1-8-42.6-11.1c-12-2.6-34-6.1-34.2,12.1c1.6,13.1,16.5,18,26.4,24.1
	c19.8,10.9,43,15.9,65.4,12.1c7,0.3,18.1-1.8,22.2-3.3c-8.9,7.4-23.6,3.2-35,6.8c-22,3.4-44.4,7.8-64.4,17.8
	c-14.5,4.5-14.5,24.6,0.6,28.1c19,6.7,39.5,9.5,59.5,8.4c13.3-3.1,33-3.2,40-16.3c-0.6-5.5,1.8-21.7,3.3-8.4
	c0.6,6.7-3.1,26.3,8.4,17.8c2.4-6-3.1-23.3,3.1-22.6c-5.1,14.4,9.1,24.1,22,25.9c22.1,6.8,45.6,3.6,67.6-1.4
	c14.9-0.9,31.8-18.3,14.4-29.4c-14.4-9.2-31.7-12.4-48-16.5c-16.2-3.9-32.9-4.6-49.3-7.1c-7.6-0.6-6.6-6.2-0.5-1.5
	c11,1.5,22.2,2.2,33.3,2.8c24.7-0.2,48.3-10.8,68-25.1c15.8-7.5,4.1-32.1-11.7-26.4c-14,0.5-27.3,5-40,10.4
	c-17.1,4.5-36.3,0.9-51.7,10.9c-10-8.9,12-11.9,13.1-20.5c1.3-9.5-12.6-13.3-8-22.7L1108.4,606.9L1108.4,606.9z M1089.3,609.9
	c-1.4,9.2,16.2-2.2,2.5-0.9L1089.3,609.9z M1085.5,627.2c5.9-5.8,11.5-6.3,16.5,0.7C1097.9,626.2,1083.5,628.9,1085.5,627.2z
	 M977.4,638.5c6.7-3.7,22.2,0.1,23,2C993.6,637.8,980.4,639.1,977.4,638.5z M1201.3,637.1c5-1.2,12.8,4.5,3.4,1.5
	c-5.5-2.7-21.9,4.5-20.1,1.6C1189.9,637.9,1195.7,637.3,1201.3,637.1L1201.3,637.1z M1004.7,642.2
	C997.5,641.1,1007.7,640.9,1004.7,642.2z M1181.2,641.9L1181.2,641.9L1181.2,641.9z M1181.2,642.1L1181.2,642.1L1181.2,642.1z
	 M1015.2,646.5c-2.5,3.2-13.1-7.5-4.9-1.7l2.3,1.1L1015.2,646.5z M1169.7,646.8c5.4-1.5,13.7-5.6,4.4-0.3
	C1172.9,647.3,1170.7,648.4,1169.7,646.8z M1158.8,652.4c-19.2-7.6-38.3,4.1-57.4,5.7c-6.5-6.2,13.4-1.2,17.1-5.6
	c12.4-4.7,27.5-2.5,38.9-6.8c11,1.4,3.9,3.9-2.9,3.1C1155.3,650.7,1167.4,652.7,1158.8,652.4L1158.8,652.4z M1030.2,647.3
	c13.6,1.5,27.7,1.5,40.6,6.5c4.6-1.1,23.7,4,10.2,3.9c-17-2.4-33.8-11.2-51.2-6.2c-4,1.5-19.3,4.6-7.5,0.8c6.6-0.5,11.4-4.4,1.9-3.5
	C1018.3,648,1032.2,643.4,1030.2,647.3L1030.2,647.3z M1166.6,652.6C1180.8,658.9,1156.1,651.5,1166.6,652.6z M1015.8,654.8
	L1015.8,654.8L1015.8,654.8z M1015.8,655L1015.8,655L1015.8,655z M1014.5,655.7C1014.9,654.1,1016.4,656.4,1014.5,655.7z
	 M1011.9,657.5C1013.5,654.5,1013.6,658.3,1011.9,657.5z M1174,656.8C1173.9,659.2,1171.8,654.9,1174,656.8z M1011.6,658L1011.6,658
	L1011.6,658z M1010.9,659.5C1009.9,658.7,1012.2,658.3,1010.9,659.5z M1204.9,707.9c-9.8-8.6-23.6-9.8-35.8-6.8
	c-11.3,1.9-23.3-5.4-33.1-4.7c-5.5-4.1-26.4-8.8-15.1,3.4c-1.6-0.2-13.4-21.1-22.8-10.5c-2.4-4.5,1.5-13,5.4-4.7
	c13.5,5.1,28.6,7.1,42,11c1.9-4.3,11.3,7.4,18.3,4.3c14-2,30.3-3.5,41.5,7.1C1208.7,708.3,1205.2,709.2,1204.9,707.9L1204.9,707.9z
	 M1087.4,688.6c-8.9-7.4-18.6,8.5-22.3,10.9c7.1-7.4,2.9-10.7-5.8-6.7c-10.1,4.4-19,3.5-29.6,7.7c-13,2.5-26.6-4.3-39.3,1.8
	c-4.1,1.7-15.2,10.1-6.2,2c10.7-7.2,24-6.5,36.2-4.5c12.5,0.9,18.8-7.3,30.4-6.5c12-4.8,26.8-3.4,36.8-12.5
	C1088.1,681.1,1089.4,694.3,1087.4,688.6L1087.4,688.6z M1145.1,692.1C1144,692.3,1145.3,690.5,1145.1,692.1z M1034.5,704
	c3.6-2.9,16.3-8.8,6.1-2.4C1039.7,701.8,1033.8,706.9,1034.5,704z M1153.5,705.3c4.4,2.1,10.8,9.8,2.8,3.2
	c-4.7-3.4-23.6-15.1-9.1-7.2C1149.3,702.7,1151.4,704,1153.5,705.3z M1064.3,703.6C1061.6,703.9,1066.3,699.8,1064.3,703.6z
	 M1122.4,704.3C1125,705.4,1121.6,707.8,1122.4,704.3z M1033,706.3c-4.9,3.7-16,11.9-5.4,2.9C1028.5,709.1,1033.4,703.3,1033,706.3z
	 M1062.8,705.4C1064.4,707.2,1061,707.8,1062.8,705.4z M1123.7,706.9L1123.7,706.9L1123.7,706.9z M1124.1,708.7
	C1122.4,706.9,1124.5,706,1124.1,708.7z M1207.1,709.8L1207.1,709.8L1207.1,709.8z M1207,709.6L1207,709.6L1207,709.6z
	 M1061.8,712.1l-0.1-0.2L1061.8,712.1z M1062.1,714.2c0.1,8.5-2.9-1.1-0.5-1.9L1062.1,714.2z M1164.2,714.2
	C1164.7,717.5,1159.7,708.8,1164.2,714.2z M1125,715.6C1128.3,722.3,1121.5,716.4,1125,715.6z M1020.3,718.3
	C1018,717.1,1022.9,715,1020.3,718.3z M1165.7,718C1164,716.4,1167,716.6,1165.7,718z M1166.4,719.7
	C1165.6,717.6,1168.1,720.4,1166.4,719.7z M1018.7,721.4C1018.6,719.8,1019.6,720.4,1018.7,721.4z M1127.4,723.6L1127.4,723.6
	L1127.4,723.6z M1058,724.9C1057.8,723.2,1059.4,724.4,1058,724.9z M1128.5,725.2C1130.4,726.2,1127.2,726.3,1128.5,725.2z
	 M1056.3,727.4C1056.1,725.8,1058.4,727,1056.3,727.4z M1090.3,731.9c-6.7,6.2,2.9,23.7,6.8,11.4
	C1096.8,738.9,1098.2,728.4,1090.3,731.9z M1095.5,734.8c4,5-4.4,15.5-2.2,4.1C1093.4,737.8,1092.7,732.7,1095.5,734.8z
	 M1090.2,750.3c-7.1,6.7,4.7,23.3,7,9.9C1096.8,755.5,1098.2,745.7,1090.2,750.3z M1096.1,755.3c1.1,15.1-7.6-2.2-0.2-1.6
	L1096.1,755.3z M1090.5,767.4c-7.8,5.6,2.7,24.3,6.3,11.5C1096.6,774.7,1098.2,763.7,1090.5,767.4z M1095.6,770.7
	c3.6,7.3-4.4,13.3-2.3,2.5C1092.7,771.6,1093.5,768.2,1095.6,770.7z M1089.4,785.8c-8,6.1,4.2,24,6.6,10
	C1096,791.2,1097.2,781.5,1089.4,785.8z M1094.6,790.1c3.5,6.2-5.7,12.2-2.8,2C1091.4,790.4,1093.8,785.7,1094.6,790.1z
	 M1089.4,803.3c-9.4,4.2,1,24.8,4.8,10.7C1094.3,810.2,1096.8,800.6,1089.4,803.3z M1093.4,808.2c3.2,5.8-6.7,12-3.2,2.9
	C1090.2,808.7,1092.4,802.3,1093.4,808.2z M1087.1,827.9c-0.2,7,6.3-2,2.7,6.4c-1.9,6.4-0.3,12.5,2.6,2.7c6.1-6-0.9-24.1-7-12.8
	c-0.8,3.7-3.3,20.9,1.2,15.7C1086.7,835.9,1086.1,831.8,1087.1,827.9L1087.1,827.9z"/>
<path id="path1259" inkscape:connector-curvature="0" class="st0" d="M783.3,581.2c-4.5,6.4-4-3.8,0.6-4.5
	C785.4,578.2,783.8,579.6,783.3,581.2z M778.2,589.4c-4.2,6.4-4.2-1.9-0.3-3.9C779.6,585.7,779.2,588.5,778.2,589.4z M769.3,604.5
	c-0.4,7-6.9,4.4-2.7-0.8C768.1,602.3,770.6,600.8,769.3,604.5z M763.8,841.2c-6.8,6.2-21.6,6.2-24.1-4.3c-3.4-3.2-0.9-8.2,3.7-7.3
	c7.6-1.3,15.1,1.5,22.5-0.4C770.8,830.8,765.1,838.4,763.8,841.2L763.8,841.2z M741.8,616.7c-3.2-6.3,2.4-5.2,3.1,0.2
	C746.7,621.5,742.4,619.5,741.8,616.7z M734,601c-4.7-3.7,0.8-10.1,1.3-2.3C735.8,600.2,735.3,600.5,734,601z M772.9,598
	c-3.3,6.6-4.8-0.2-1.2-3.3C774.5,590.8,774.2,596.8,772.9,598z M728.4,591.4c-5-6.3,2.6-5,3.4,0.5
	C731.6,593.8,728.9,592.5,728.4,591.4z M736.8,606.6c-2.1-8.2,8.5,4.3,2.5,2.9C738.4,608.8,737.7,607.5,736.8,606.6z M757.7,624.8
	c-0.3-8.5,6.7,0.2,0.2,1.7C757.4,626.9,758.2,624.7,757.7,624.8z M763.8,616.3c-4.1,6.2-3.4-3.3,0.3-5.1
	C766,611.1,764.1,615.2,763.8,616.3z M747.2,626.9c-6.8-3.7,2-9.3,1.2-1.4C748.1,626.5,749,628.8,747.2,626.9z M741.9,811.6
	c5.9-3.5,12.5-3.9,18.9-1.6c6.9,0.7,14.6,6.4,11.2,14.1c-9,9.2-22.5,0.8-33.4,4.3c-9.2,0-9-17.1,0.7-16
	C740.1,812.2,741,811.9,741.9,811.6L741.9,811.6z M722.5,581.9c-4.3-7.4,3.1-1.9,3.9,2C726,585.6,722.6,582.8,722.5,581.9z
	 M748.3,636.7c-3.4-6.1-9.1,7.7-2.4,5C748.2,640.3,750.2,639.6,748.3,636.7z M807,794.4c-6.4-18.7-12.4-37.5-19.2-56.1
	c-6.2-11.7-10.7-24.7-18.3-35.6c-3.6-4.5-11.6-1.3-9.3,4.6c7.4,21.5,14,43.1,22.9,64c4.5,12.5,8.7,25,13,37.5
	c1.9,4.3,4.5,12.5,10.6,9.6C811.2,811.7,808.8,801.9,807,794.4L807,794.4z M755.5,742.3c-7.1-2.5-17.7,3.4-16.9,11.4
	c6.7,2.2,14.6-5.2,21,0c5.2,3.1,5.9-4.6,2.7-7.2C760.8,744,758,743.4,755.5,742.3L755.5,742.3z M729.4,707.9
	c-8.4,16.5-16.9,33-22.2,50.8c-3.8,11.4-7.7,22.9-11.6,34.3c-1.7,6.9-3.5,14.3-2.9,21.4c1.1,6.8,11.1,6.4,11.8-0.4
	c6.1-18.3,13.4-36.1,19.2-54.4c6.5-17.3,12.6-34.7,18.1-52.3c2.1-8.2-10.1-7-11.5-0.7l-0.5,0.8L729.4,707.9z M763.9,659.7
	c-4.4-12.4-27.5-6.2-23.9,7c1.1,7.6,9.5,13,16.4,8.6C762.1,672.5,765.5,665.9,763.9,659.7z M761.1,636.4c-3.6-3.8-8,1.9-3.1,4.3
	C761.2,643.4,763.2,638.6,761.1,636.4z M699.5,635.4c6.6,3.7,12.8,9.4,13.4,17.4c1.4,4.4,5.9,13.1,11.3,8c2.8-7,9.1-11.1,14.3-16.2
	c3-4.2,0.6-9.7,6-12.7c2.7-3.5,7.6-4.5,10.9-1.9c2.8-3.6,8.5,3.7,9.6,7.2c-0.7,5.6,1.9,8.1,6.5,11.4c4,3.5,7.6,7.8,9.5,12.8
	c8.8,1.3,8.3-10.1,10.9-15.6c2.9-4.4,7.6-7.3,11.1-11.3c4.6-0.1,2.9,2,4,5.5c-10.4,0-11.6,12.8-15.7,19.9c1.4,6.9-10.8,5.5-8.6,12
	c3.8,6.9-2.2,14.2-9.3,14.8c-2.8,1.4-14.7,0-8.7,4c4.4,0.9,10.9-0.2,13.1,4.7c7.7-1.2,16.2,0.5,22.8,4.2c3.8,6.4-6.4,1.5-9.2,0.4
	c-4.5-3.2-12.1,1.7-7.9,6.8c7.5,17.7,15.2,35.6,22.7,53.4c3.9,5.3,10.5,8,15.5,11.4c-0.2,7.3-7.9,0.5-10.2-2.2
	c-5.9-4.7,0.3,7,0.3,10.1c3.2,13.9,7.4,27.8,8.5,42.1c0,8.8-8.6,19.1-18,14.6c-11-9.6-12-25.4-19.6-37.3c-4.3-8.3-4.6-18.5-9.8-26.2
	c-1.5,4.5,3.3,10.6,1.8,14.9c-7.2,6.1,3.6,14.8-1.1,21.9c-10.7,3.1-22.5-8.2-32.2,0.1c-5.1,5-12.8,0.3-12-6.4c-1.6-4.1,4-8.2,1.8-11
	c-4.2-4.9-1.9-11.5,0.4-16.5c-0.8-6.6-5,4.2-5.3,6.6c-5.6,16.7-13.7,32.7-20.4,49c-4.7,8.6-20,8-21.6-2.6
	c-2.4-14.6,2.2-29.2,5.2-43.3c1-4.6,5.9-10.3,2.6-14.7c-3.4,0.4-5.2,7.3-8.5,3.9c-1.9-5,5.9-5.7,9.1-8.5c6.8-4.2,6.6-13.5,10.3-20
	c5.3-12.4,9.2-25.3,15.8-37.1c3.9-6.1-4-10.8-9.4-8.4c-7.5,2.5-14.8,5.6-22.8,5.2c-3.9,2.7-7-0.6-6.3-3.9c5.8,0.3,12.6,0.5,18.4-1.9
	c8.6-2.3,17.4-5.7,26.4-4.2c2.8-6.3,12.9-1.7,15.4-7.3c-3.1-1.4-9.1,0-12.9-2.4c-6.5-2.3-10.3-10.1-6.9-16.3
	c-10-5.7-10.1-19-16.9-27c-3.2-1.5-10.2-4.5-4.9-7.5L699.5,635.4z M753.7,736.2c6.2,4.7,4.6-4.1,2.2-7.4c-1.2-2.8-2.2-11.6-6.4-6.4
	c-2.5,4.3-3.6,9.2-5.6,13.5C745.9,739.9,750.9,734.9,753.7,736.2L753.7,736.2z M744.2,771.6c7.7-4.7,19.3,4.4,24.6-4.9
	c0.1-8-10-8.5-15.8-9.3c-5.8,0.2-11.4,2.9-17,4.4C729.8,766.3,739,775.1,744.2,771.6L744.2,771.6z M753.2,703.2
	c4.9-4.5-7.9-5.3-4.5-0.5C750.4,704,751.6,705.6,753.2,703.2z M767.6,780.7c-1.3-5.2-8.6-3.6-12.9-4.8c-4.6-1.2-8.6,3.1-12.8,0.6
	c-9.1-1.3-9.5,15.8,0,13.8c4-1.3,7.9-4.3,12.5-2.3c4.5,1,13.1,4.6,14-2.7C769,783.6,768,782.2,767.6,780.7L767.6,780.7z"/>
<g id="g1342" transform="matrix(0.26458333,0,0,0.26458333,124.69523,-303.46376)" inkscape:label="0">
</g>
</svg>
