<?xml version="1.0" encoding="utf-8"?>
<!-- Generator: Adobe Illustrator 24.3.0, SVG Export Plug-In . SVG Version: 6.00 Build 0)  -->
<svg version="1.1" id="Capa_1" xmlns="http://www.w3.org/2000/svg" xmlns:xlink="http://www.w3.org/1999/xlink" x="0px" y="0px"
	 viewBox="0 0 1920 1080" style="enable-background:new 0 0 1920 1080;" xml:space="preserve">
<style type="text/css">
	.st0{fill:none;stroke:#000000;stroke-miterlimit:10;}
</style>
<image style="overflow:visible;opacity:0.15;enable-background:new    ;" width="482" height="357" xlink:href="../maqueta_imprimir/colony_title.png"  transform="matrix(3.0252 0 0 3.0252 222.9356 -1.297598e-05)">
</image>
<g>
	<polygon class="st0" points="607.5,756.5 573.5,686.5 524.5,686.5 448.5,741.5 439.4,900.8 481.5,960.5 547.5,970.5 601.5,920.5 
		601.5,875.5 566.5,852.5 544.5,870.5 529.5,855.5 547.5,786.5 563.5,794.5 581.5,794.5 	"/>
	<polygon class="st0" points="688.5,782.5 628.5,885.5 705.5,1009.5 816.5,1006.5 885.5,889.5 821.1,782.5 	"/>
	<polygon class="st0" points="903.5,760.5 899.5,933.5 882.5,959.5 905.5,985.5 1016.2,1009.5 1044.5,964.5 1018.5,924.5 
		973.5,919.5 1000.5,760.5 985.5,744.5 927.7,744.5 	"/>
	<polygon class="st0" points="1040.5,774.5 1147.5,723.5 1254.5,800.5 1242.5,927.5 1141.5,978.5 1022.5,894.5 	"/>
	<polygon class="st0" points="1272.5,1014.5 1279.5,794.5 1297.5,775.5 1332.1,775.5 1365.5,829.5 1365.5,790.3 1386.5,773.5 
		1425,773.5 1438.5,787.5 1438.5,992.6 1394.5,1029.5 1377,1029.5 1346.5,968.5 1346.5,1011.5 1327.5,1029.5 1291.3,1029.5 	"/>
	<polygon class="st0" points="1420.5,734.5 1500.5,843.5 1500.5,962.5 1517.9,978.5 1534.7,978.5 1577.5,943.5 1577.5,842.5 
		1636.6,734.5 1621.5,719.5 1569.5,728.5 1538.5,773.5 1490,719.5 1431.5,719.5 	"/>
</g>
<g>
	<polygon class="st0" points="274.6,169.9 317,591.8 378,565.8 448,584.8 461,496.8 498,497.8 506,611.8 590,584.8 607.5,617.8 
		635,234.8 607.5,244.8 561,236.8 530,223.8 505,374.8 471,376.8 456,274.8 439.4,272.8 420,234.8 406,242.8 289.3,156.8 	"/>
	<polygon class="st0" points="664.8,671.9 688.8,376.2 730.6,352.9 736,311.9 761.5,286.4 766.2,299.5 839.7,301.9 859.9,659.5 
		762.3,699.8 762.3,667.3 718.2,679.7 	"/>
	<polygon class="st0" points="904.8,350.6 917.2,653.3 1022.5,678.1 1199.7,318.1 1127,274.8 1101.4,286.4 1085.2,314.2 
		1085.2,375.4 1044.5,424.2 1037.2,269.3 	"/>
	<polygon class="st0" points="1272.5,311.1 1097.5,656.4 1185,636.3 1226.8,686.5 1342.2,686.5 1433.5,596 1386.3,596 1292.6,554.2 
		1355.5,531 1363.1,483 1298.8,466.8 1319,435.8 1438.5,445.9 1471.5,331.3 1415.7,316.6 1400.3,299.5 1370.8,308.8 1355.5,338.2 
		1315.9,350.6 1301.2,299.5 	"/>
	<polygon class="st0" points="811.1,92 762.3,167.9 811.1,236 885.5,236 928,164 859.9,92 	"/>
</g>
</svg>
