<?xml version="1.0" encoding="utf-8"?>
<!-- Generator: Adobe Illustrator 24.3.0, SVG Export Plug-In . SVG Version: 6.00 Build 0)  -->
<svg version="1.1"
	 id="svg8" inkscape:version="1.1.2 (0a00cf5339, 2022-02-04, custom)" sodipodi:docname="Colony Tiles.svg" xmlns:cc="http://creativecommons.org/ns#" xmlns:dc="http://purl.org/dc/elements/1.1/" xmlns:inkscape="http://www.inkscape.org/namespaces/inkscape" xmlns:rdf="http://www.w3.org/1999/02/22-rdf-syntax-ns#" xmlns:sodipodi="http://sodipodi.sourceforge.net/DTD/sodipodi-0.dtd" xmlns:svg="http://www.w3.org/2000/svg"
	 xmlns="http://www.w3.org/2000/svg" xmlns:xlink="http://www.w3.org/1999/xlink" x="0px" y="0px" viewBox="0 0 1700.8 850.4"
	 style="enable-background:new 0 0 1700.8 850.4;" xml:space="preserve">
<style type="text/css">
	.st0{fill:#1D1D1B;stroke:#1D1D1B;stroke-width:10;stroke-miterlimit:3;}
</style>
<sodipodi:namedview  bordercolor="#666666" borderopacity="1.0" id="base" inkscape:current-layer="layer1" inkscape:cx="469.25" inkscape:cy="237.75" inkscape:document-rotation="0" inkscape:document-units="mm" inkscape:pagecheckerboard="false" inkscape:pageopacity="0.0" inkscape:pageshadow="2" inkscape:window-height="2128" inkscape:window-maximized="0" inkscape:window-width="1824" inkscape:window-x="273" inkscape:window-y="0" inkscape:zoom="2" objecttolerance="2" pagecolor="#ffffff" showgrid="false" showguides="false">
	</sodipodi:namedview>
<g id="g1253" transform="matrix(0.26458333,0,0,0.26458333,199.80943,123.19876)">
	<path id="Perimeter-0" class="st0" d="M4066.1,601.8l-1.1-30.5L4062,541l-5.1-30l-7-29.6l-8.9-29.1l-10.8-28.5l-12.6-27.7
		l-14.3-26.8l-15.9-25.8l-17.6-24.8l-19.2-23.6l-20.6-22.3l-22.1-20.8l-23.5-19.3l-24.7-17.7l-25.8-16.1l-955.8-551.8l-26.9-14.3
		l-27.8-12.4l-28.5-10.6l-29.1-8.7l-29.7-6.8l-30-4.9l-30.2-2.9l-30.4-1.1l-30.4,0.9l-30.2,2.8l-30,4.8l-29.6,6.8l-29.1,8.8
		l-28.5,10.7l-27.7,12.6l-26.9,14.4L1457.1,199c-143.9,83.1-232.5,236.6-232.6,402.7v1103.7c0,166.1,88.7,319.7,232.6,402.7
		l955.7,551.8c143.9,83.1,321.2,83.1,465.1,0l955.8-551.8c143.9-83.1,232.5-236.6,232.5-402.7V601.8z"/>
</g>
<g id="g1342" transform="matrix(0.26458333,0,0,0.26458333,124.69523,-303.46376)" inkscape:label="0">
</g>
</svg>
