<?xml version="1.0" encoding="utf-8"?>
<svg xmlns="http://www.w3.org/2000/svg" xmlns:xlink="http://www.w3.org/1999/xlink" xml:space="preserve" width="696" height="696" viewBox="0 0 696 696"><g fill="#000000">
<g transform="translate(288,48) scale(4.12)"><path d="M0.8,0L0.8,0C2.2,0,6,4.6,6,6l0,0H0V0.8C0,0.4,0.4,0,0.8,0z"/></g>
<g transform="translate(336,48) scale(4.12)"><path d="M5.4,2.8C4.5,1.1,2.6-0.1,1.2,0c-1.3,0.1-1.6,1.6-0.7,3.2c1,1.7,2.8,2.9,4.2,2.8C6.1,5.9,6.4,4.4,5.4,2.8z"/></g>
<g transform="translate(432,48) scale(4.12)"><path d="M0.8,0L0.8,0C2.2,0,6,4.6,6,6l0,0H0V0.8C0,0.4,0.4,0,0.8,0z"/></g>
<g transform="translate(288,72) scale(4.12)"><rect width="6" height="6"/></g>
<g transform="translate(360,72) scale(4.12)"><path d="M5.4,2.8C4.5,1.1,2.6-0.1,1.2,0c-1.3,0.1-1.6,1.6-0.7,3.2c1,1.7,2.8,2.9,4.2,2.8C6.1,5.9,6.4,4.4,5.4,2.8z"/></g>
<g transform="translate(408,72) scale(4.12)"><path d="M0,5.2L0,5.2C0,3.8,4.6,0,6,0l0,0v6H0.8C0.4,6,0,5.6,0,5.2z"/></g>
<g transform="translate(432,72) scale(4.12)"><rect width="6" height="6"/></g>
<g transform="translate(240,96) scale(4.12)"><path d="M6,6H0V2c0-1.1,0.9-2,2-2h4V6z"/></g>
<g transform="translate(264,96) scale(4.12)"><rect width="6" height="6"/></g>
<g transform="translate(288,96) scale(4.12)"><rect width="6" height="6"/></g>
<g transform="translate(312,96) scale(4.12)"><path d="M0,6V0h4c1.1,0,2,0.9,2,2v4H0z"/></g>
<g transform="translate(384,96) scale(4.12)"><path d="M0.8,0L0.8,0C2.2,0,6,4.6,6,6l0,0H0V0.8C0,0.4,0.4,0,0.8,0z"/></g>
<g transform="translate(432,96) scale(4.12)"><path d="M5.2,6L5.2,6C3.8,6,0,1.4,0,0l0,0h6v5.2C6,5.6,5.6,6,5.2,6z"/></g>
<g transform="translate(240,120) scale(4.12)"><rect width="6" height="6"/></g>
<g transform="translate(288,120) scale(4.12)"><path d="M6,0v6H2C0.9,6,0,5.1,0,4V0H6z"/></g>
<g transform="translate(312,120) scale(4.12)"><rect width="6" height="6"/></g>
<g transform="translate(336,120) scale(4.12)"><rect width="6" height="6"/></g>
<g transform="translate(360,120) scale(4.12)"><rect width="6" height="6"/></g>
<g transform="translate(384,120) scale(4.12)"><path d="M0,0h6v4c0,1.1-0.9,2-2,2H0V0z"/></g>
<g transform="translate(240,144) scale(4.12)"><rect width="6" height="6"/></g>
<g transform="translate(264,144) scale(4.12)"><path d="M0,6V0h4c1.1,0,2,0.9,2,2v4H0z"/></g>
<g transform="translate(336,144) scale(4.12)"><path d="M5.2,6L5.2,6C3.8,6,0,1.4,0,0l0,0h6v5.2C6,5.6,5.6,6,5.2,6z"/></g>
<g transform="translate(240,168) scale(4.12)"><rect width="6" height="6"/></g>
<g transform="translate(264,168) scale(4.12)"><path d="M0,0h6v4c0,1.1-0.9,2-2,2H0V0z"/></g>
<g transform="translate(312,168) scale(4.12)"><path d="M5.4,2.8C4.5,1.1,2.6-0.1,1.2,0c-1.3,0.1-1.6,1.6-0.7,3.2c1,1.7,2.8,2.9,4.2,2.8C6.1,5.9,6.4,4.4,5.4,2.8z"/></g>
<g transform="translate(408,168) scale(4.12)"><path d="M0,5.2L0,5.2C0,3.8,4.6,0,6,0l0,0v6H0.8C0.4,6,0,5.6,0,5.2z"/></g>
<g transform="translate(432,168) scale(4.12)"><path d="M0,6V0h4c1.1,0,2,0.9,2,2v4H0z"/></g>
<g transform="translate(240,192) scale(4.12)"><rect width="6" height="6"/></g>
<g transform="translate(288,192) scale(4.12)"><path d="M0.8,0L0.8,0C2.2,0,6,4.6,6,6l0,0H0V0.8C0,0.4,0.4,0,0.8,0z"/></g>
<g transform="translate(336,192) scale(4.12)"><path d="M0.8,0L0.8,0C2.2,0,6,4.6,6,6l0,0H0V0.8C0,0.4,0.4,0,0.8,0z"/></g>
<g transform="translate(384,192) scale(4.12)"><path d="M0.8,0L0.8,0C2.2,0,6,4.6,6,6l0,0H0V0.8C0,0.4,0.4,0,0.8,0z"/></g>
<g transform="translate(432,192) scale(4.12)"><rect width="6" height="6"/></g>
<g transform="translate(240,216) scale(4.12)"><path d="M5.2,6L5.2,6C3.8,6,0,1.4,0,0l0,0h6v5.2C6,5.6,5.6,6,5.2,6z"/></g>
<g transform="translate(288,216) scale(4.12)"><rect width="6" height="6"/></g>
<g transform="translate(336,216) scale(4.12)"><rect width="6" height="6"/></g>
<g transform="translate(384,216) scale(4.12)"><rect width="6" height="6"/></g>
<g transform="translate(408,216) scale(4.12)"><rect width="6" height="6"/></g>
<g transform="translate(432,216) scale(4.12)"><path d="M0,0h6v4c0,1.1-0.9,2-2,2H0V0z"/></g>
<g transform="translate(48,240) scale(4.12)"><path d="M0.8,0L0.8,0C2.2,0,6,4.6,6,6l0,0H0V0.8C0,0.4,0.4,0,0.8,0z"/></g>
<g transform="translate(96,240) scale(4.12)"><path d="M6,6H0V2c0-1.1,0.9-2,2-2h4V6z"/></g>
<g transform="translate(120,240) scale(4.12)"><rect width="6" height="6"/></g>
<g transform="translate(144,240) scale(4.12)"><rect width="6" height="6"/></g>
<g transform="translate(168,240) scale(4.12)"><rect width="6" height="6"/></g>
<g transform="translate(192,240) scale(4.12)"><path d="M6,0.8L6,0.8C6,2.2,1.4,6,0,6l0,0V0h5.2C5.6,0,6,0.4,6,0.8z"/></g>
<g transform="translate(288,240) scale(4.12)"><rect width="6" height="6"/></g>
<g transform="translate(312,240) scale(4.12)"><rect width="6" height="6"/></g>
<g transform="translate(336,240) scale(4.12)"><rect width="6" height="6"/></g>
<g transform="translate(360,240) scale(4.12)"><rect width="6" height="6"/></g>
<g transform="translate(384,240) scale(4.12)"><rect width="6" height="6"/></g>
<g transform="translate(408,240) scale(4.12)"><path d="M0,0h6v4c0,1.1-0.9,2-2,2H0V0z"/></g>
<g transform="translate(480,240) scale(4.12)"><path d="M0,5.2L0,5.2C0,3.8,4.6,0,6,0l0,0v6H0.8C0.4,6,0,5.6,0,5.2z"/></g>
<g transform="translate(504,240) scale(4.12)"><rect width="6" height="6"/></g>
<g transform="translate(528,240) scale(4.12)"><rect width="6" height="6"/></g>
<g transform="translate(552,240) scale(4.12)"><rect width="6" height="6"/></g>
<g transform="translate(576,240) scale(4.12)"><path d="M6,0.8L6,0.8C6,2.2,1.4,6,0,6l0,0V0h5.2C5.6,0,6,0.4,6,0.8z"/></g>
<g transform="translate(48,264) scale(4.12)"><path d="M5.2,6L5.2,6C3.8,6,0,1.4,0,0l0,0h6v5.2C6,5.6,5.6,6,5.2,6z"/></g>
<g transform="translate(96,264) scale(4.12)"><path d="M6,0v6H2C0.9,6,0,5.1,0,4V0H6z"/></g>
<g transform="translate(120,264) scale(4.12)"><rect width="6" height="6"/></g>
<g transform="translate(144,264) scale(4.12)"><rect width="6" height="6"/></g>
<g transform="translate(288,264) scale(4.12)"><path d="M5.2,6L5.2,6C3.8,6,0,1.4,0,0l0,0h6v5.2C6,5.6,5.6,6,5.2,6z"/></g>
<g transform="translate(336,264) scale(4.12)"><path d="M5.2,6L5.2,6C3.8,6,0,1.4,0,0l0,0h6v5.2C6,5.6,5.6,6,5.2,6z"/></g>
<g transform="translate(384,264) scale(4.12)"><path d="M5.2,6L5.2,6C3.8,6,0,1.4,0,0l0,0h6v5.2C6,5.6,5.6,6,5.2,6z"/></g>
<g transform="translate(432,264) scale(4.12)"><path d="M0.8,0L0.8,0C2.2,0,6,4.6,6,6l0,0H0V0.8C0,0.4,0.4,0,0.8,0z"/></g>
<g transform="translate(504,264) scale(4.12)"><rect width="6" height="6"/></g>
<g transform="translate(600,264) scale(4.12)"><path d="M0.8,0L0.8,0C2.2,0,6,4.6,6,6l0,0H0V0.8C0,0.4,0.4,0,0.8,0z"/></g>
<g transform="translate(144,288) scale(4.12)"><rect width="6" height="6"/></g>
<g transform="translate(192,288) scale(4.12)"><path d="M5.4,2.8C4.5,1.1,2.6-0.1,1.2,0c-1.3,0.1-1.6,1.6-0.7,3.2c1,1.7,2.8,2.9,4.2,2.8C6.1,5.9,6.4,4.4,5.4,2.8z"/></g>
<g transform="translate(360,288) scale(4.12)"><path d="M5.4,2.8C4.5,1.1,2.6-0.1,1.2,0c-1.3,0.1-1.6,1.6-0.7,3.2c1,1.7,2.8,2.9,4.2,2.8C6.1,5.9,6.4,4.4,5.4,2.8z"/></g>
<g transform="translate(408,288) scale(4.12)"><path d="M6,6H0V2c0-1.1,0.9-2,2-2h4V6z"/></g>
<g transform="translate(432,288) scale(4.12)"><rect width="6" height="6"/></g>
<g transform="translate(456,288) scale(4.12)"><path d="M6,0.8L6,0.8C6,2.2,1.4,6,0,6l0,0V0h5.2C5.6,0,6,0.4,6,0.8z"/></g>
<g transform="translate(504,288) scale(4.12)"><path d="M5.2,6L5.2,6C3.8,6,0,1.4,0,0l0,0h6v5.2C6,5.6,5.6,6,5.2,6z"/></g>
<g transform="translate(552,288) scale(4.12)"><path d="M5.4,2.8C4.5,1.1,2.6-0.1,1.2,0c-1.3,0.1-1.6,1.6-0.7,3.2c1,1.7,2.8,2.9,4.2,2.8C6.1,5.9,6.4,4.4,5.4,2.8z"/></g>
<g transform="translate(600,288) scale(4.12)"><path d="M6,0v6H2C0.9,6,0,5.1,0,4V0H6z"/></g>
<g transform="translate(624,288) scale(4.12)"><path d="M0,6V0h4c1.1,0,2,0.9,2,2v4H0z"/></g>
<g transform="translate(48,312) scale(4.12)"><path d="M0,5.2L0,5.2C0,3.8,4.6,0,6,0l0,0v6H0.8C0.4,6,0,5.6,0,5.2z"/></g>
<g transform="translate(72,312) scale(4.12)"><path d="M6,0.8L6,0.8C6,2.2,1.4,6,0,6l0,0V0h5.2C5.6,0,6,0.4,6,0.8z"/></g>
<g transform="translate(120,312) scale(4.12)"><path d="M6,6H0V2c0-1.1,0.9-2,2-2h4V6z"/></g>
<g transform="translate(144,312) scale(4.12)"><path d="M0,0h6v4c0,1.1-0.9,2-2,2H0V0z"/></g>
<g transform="translate(312,312) scale(4.12)"><path d="M0,5.2L0,5.2C0,3.8,4.6,0,6,0l0,0v6H0.8C0.4,6,0,5.6,0,5.2z"/></g>
<g transform="translate(336,312) scale(4.12)"><path d="M0,6V0h4c1.1,0,2,0.9,2,2v4H0z"/></g>
<g transform="translate(384,312) scale(4.12)"><path d="M6,6H0V2c0-1.1,0.9-2,2-2h4V6z"/></g>
<g transform="translate(408,312) scale(4.12)"><rect width="6" height="6"/></g>
<g transform="translate(432,312) scale(4.12)"><path d="M0,0h6v4c0,1.1-0.9,2-2,2H0V0z"/></g>
<g transform="translate(528,312) scale(4.12)"><path d="M0.8,0L0.8,0C2.2,0,6,4.6,6,6l0,0H0V0.8C0,0.4,0.4,0,0.8,0z"/></g>
<g transform="translate(624,312) scale(4.12)"><rect width="6" height="6"/></g>
<g transform="translate(96,336) scale(4.12)"><path d="M0,5.2L0,5.2C0,3.8,4.6,0,6,0l0,0v6H0.8C0.4,6,0,5.6,0,5.2z"/></g>
<g transform="translate(120,336) scale(4.12)"><path d="M0,0h6v4c0,1.1-0.9,2-2,2H0V0z"/></g>
<g transform="translate(168,336) scale(4.12)"><path d="M6,6H0V2c0-1.1,0.9-2,2-2h4V6z"/></g>
<g transform="translate(192,336) scale(4.12)"><path d="M6,0.8L6,0.8C6,2.2,1.4,6,0,6l0,0V0h5.2C5.6,0,6,0.4,6,0.8z"/></g>
<g transform="translate(264,336) scale(4.12)"><path d="M0,5.2L0,5.2C0,3.8,4.6,0,6,0l0,0v6H0.8C0.4,6,0,5.6,0,5.2z"/></g>
<g transform="translate(288,336) scale(4.12)"><path d="M6,0.8L6,0.8C6,2.2,1.4,6,0,6l0,0V0h5.2C5.6,0,6,0.4,6,0.8z"/></g>
<g transform="translate(336,336) scale(4.12)"><rect width="6" height="6"/></g>
<g transform="translate(360,336) scale(4.12)"><rect width="6" height="6"/></g>
<g transform="translate(384,336) scale(4.12)"><rect width="6" height="6"/></g>
<g transform="translate(408,336) scale(4.12)"><path d="M0,0h6v4c0,1.1-0.9,2-2,2H0V0z"/></g>
<g transform="translate(456,336) scale(4.12)"><path d="M0,5.2L0,5.2C0,3.8,4.6,0,6,0l0,0v6H0.8C0.4,6,0,5.6,0,5.2z"/></g>
<g transform="translate(480,336) scale(4.12)"><path d="M6,0.8L6,0.8C6,2.2,1.4,6,0,6l0,0V0h5.2C5.6,0,6,0.4,6,0.8z"/></g>
<g transform="translate(528,336) scale(4.12)"><path d="M5.2,6L5.2,6C3.8,6,0,1.4,0,0l0,0h6v5.2C6,5.6,5.6,6,5.2,6z"/></g>
<g transform="translate(576,336) scale(4.12)"><path d="M0,5.2L0,5.2C0,3.8,4.6,0,6,0l0,0v6H0.8C0.4,6,0,5.6,0,5.2z"/></g>
<g transform="translate(600,336) scale(4.12)"><rect width="6" height="6"/></g>
<g transform="translate(624,336) scale(4.12)"><path d="M0,0h6v4c0,1.1-0.9,2-2,2H0V0z"/></g>
<g transform="translate(48,360) scale(4.12)"><path d="M6,6H0V2c0-1.1,0.9-2,2-2h4V6z"/></g>
<g transform="translate(72,360) scale(4.12)"><path d="M6,0.8L6,0.8C6,2.2,1.4,6,0,6l0,0V0h5.2C5.6,0,6,0.4,6,0.8z"/></g>
<g transform="translate(144,360) scale(4.12)"><path d="M6,6H0V2c0-1.1,0.9-2,2-2h4V6z"/></g>
<g transform="translate(168,360) scale(4.12)"><rect width="6" height="6"/></g>
<g transform="translate(240,360) scale(4.12)"><path d="M5.4,2.8C4.5,1.1,2.6-0.1,1.2,0c-1.3,0.1-1.6,1.6-0.7,3.2c1,1.7,2.8,2.9,4.2,2.8C6.1,5.9,6.4,4.4,5.4,2.8z"/></g>
<g transform="translate(336,360) scale(4.12)"><path d="M5.2,6L5.2,6C3.8,6,0,1.4,0,0l0,0h6v5.2C6,5.6,5.6,6,5.2,6z"/></g>
<g transform="translate(384,360) scale(4.12)"><rect width="6" height="6"/></g>
<g transform="translate(432,360) scale(4.12)"><path d="M5.4,2.8C4.5,1.1,2.6-0.1,1.2,0c-1.3,0.1-1.6,1.6-0.7,3.2c1,1.7,2.8,2.9,4.2,2.8C6.1,5.9,6.4,4.4,5.4,2.8z"/></g>
<g transform="translate(504,360) scale(4.12)"><path d="M5.4,2.8C4.5,1.1,2.6-0.1,1.2,0c-1.3,0.1-1.6,1.6-0.7,3.2c1,1.7,2.8,2.9,4.2,2.8C6.1,5.9,6.4,4.4,5.4,2.8z"/></g>
<g transform="translate(552,360) scale(4.12)"><path d="M0.8,0L0.8,0C2.2,0,6,4.6,6,6l0,0H0V0.8C0,0.4,0.4,0,0.8,0z"/></g>
<g transform="translate(600,360) scale(4.12)"><rect width="6" height="6"/></g>
<g transform="translate(48,384) scale(4.12)"><rect width="6" height="6"/></g>
<g transform="translate(144,384) scale(4.12)"><path d="M6,0v6H2C0.9,6,0,5.1,0,4V0H6z"/></g>
<g transform="translate(168,384) scale(4.12)"><rect width="6" height="6"/></g>
<g transform="translate(192,384) scale(4.12)"><rect width="6" height="6"/></g>
<g transform="translate(216,384) scale(4.12)"><path d="M6,0.8L6,0.8C6,2.2,1.4,6,0,6l0,0V0h5.2C5.6,0,6,0.4,6,0.8z"/></g>
<g transform="translate(264,384) scale(4.12)"><path d="M6,6H0V2c0-1.1,0.9-2,2-2h4V6z"/></g>
<g transform="translate(288,384) scale(4.12)"><path d="M6,0.8L6,0.8C6,2.2,1.4,6,0,6l0,0V0h5.2C5.6,0,6,0.4,6,0.8z"/></g>
<g transform="translate(384,384) scale(4.12)"><path d="M6,0v6H2C0.9,6,0,5.1,0,4V0H6z"/></g>
<g transform="translate(408,384) scale(4.12)"><path d="M6,0.8L6,0.8C6,2.2,1.4,6,0,6l0,0V0h5.2C5.6,0,6,0.4,6,0.8z"/></g>
<g transform="translate(552,384) scale(4.12)"><rect width="6" height="6"/></g>
<g transform="translate(600,384) scale(4.12)"><path d="M6,0v6H2C0.9,6,0,5.1,0,4V0H6z"/></g>
<g transform="translate(624,384) scale(4.12)"><path d="M0,6V0h4c1.1,0,2,0.9,2,2v4H0z"/></g>
<g transform="translate(48,408) scale(4.12)"><rect width="6" height="6"/></g>
<g transform="translate(96,408) scale(4.12)"><path d="M5.4,2.8C4.5,1.1,2.6-0.1,1.2,0c-1.3,0.1-1.6,1.6-0.7,3.2c1,1.7,2.8,2.9,4.2,2.8C6.1,5.9,6.4,4.4,5.4,2.8z"/></g>
<g transform="translate(264,408) scale(4.12)"><path d="M5.2,6L5.2,6C3.8,6,0,1.4,0,0l0,0h6v5.2C6,5.6,5.6,6,5.2,6z"/></g>
<g transform="translate(432,408) scale(4.12)"><path d="M6,6H0V2c0-1.1,0.9-2,2-2h4V6z"/></g>
<g transform="translate(456,408) scale(4.12)"><path d="M0,6V0h4c1.1,0,2,0.9,2,2v4H0z"/></g>
<g transform="translate(504,408) scale(4.12)"><path d="M6,6H0V2c0-1.1,0.9-2,2-2h4V6z"/></g>
<g transform="translate(528,408) scale(4.12)"><rect width="6" height="6"/></g>
<g transform="translate(552,408) scale(4.12)"><path d="M0,0h6v4c0,1.1-0.9,2-2,2H0V0z"/></g>
<g transform="translate(624,408) scale(4.12)"><path d="M5.2,6L5.2,6C3.8,6,0,1.4,0,0l0,0h6v5.2C6,5.6,5.6,6,5.2,6z"/></g>
<g transform="translate(48,432) scale(4.12)"><path d="M5.2,6L5.2,6C3.8,6,0,1.4,0,0l0,0h6v5.2C6,5.6,5.6,6,5.2,6z"/></g>
<g transform="translate(120,432) scale(4.12)"><path d="M0,5.2L0,5.2C0,3.8,4.6,0,6,0l0,0v6H0.8C0.4,6,0,5.6,0,5.2z"/></g>
<g transform="translate(144,432) scale(4.12)"><rect width="6" height="6"/></g>
<g transform="translate(168,432) scale(4.12)"><rect width="6" height="6"/></g>
<g transform="translate(192,432) scale(4.12)"><rect width="6" height="6"/></g>
<g transform="translate(216,432) scale(4.12)"><path d="M6,0.8L6,0.8C6,2.2,1.4,6,0,6l0,0V0h5.2C5.6,0,6,0.4,6,0.8z"/></g>
<g transform="translate(288,432) scale(4.12)"><path d="M0.8,0L0.8,0C2.2,0,6,4.6,6,6l0,0H0V0.8C0,0.4,0.4,0,0.8,0z"/></g>
<g transform="translate(360,432) scale(4.12)"><path d="M0,5.2L0,5.2C0,3.8,4.6,0,6,0l0,0v6H0.8C0.4,6,0,5.6,0,5.2z"/></g>
<g transform="translate(384,432) scale(4.12)"><path d="M0,6V0h4c1.1,0,2,0.9,2,2v4H0z"/></g>
<g transform="translate(432,432) scale(4.12)"><rect width="6" height="6"/></g>
<g transform="translate(456,432) scale(4.12)"><rect width="6" height="6"/></g>
<g transform="translate(480,432) scale(4.12)"><rect width="6" height="6"/></g>
<g transform="translate(504,432) scale(4.12)"><rect width="6" height="6"/></g>
<g transform="translate(528,432) scale(4.12)"><rect width="6" height="6"/></g>
<g transform="translate(576,432) scale(4.12)"><path d="M0.8,0L0.8,0C2.2,0,6,4.6,6,6l0,0H0V0.8C0,0.4,0.4,0,0.8,0z"/></g>
<g transform="translate(240,456) scale(4.12)"><path d="M0,5.2L0,5.2C0,3.8,4.6,0,6,0l0,0v6H0.8C0.4,6,0,5.6,0,5.2z"/></g>
<g transform="translate(264,456) scale(4.12)"><rect width="6" height="6"/></g>
<g transform="translate(288,456) scale(4.12)"><rect width="6" height="6"/></g>
<g transform="translate(312,456) scale(4.12)"><rect width="6" height="6"/></g>
<g transform="translate(336,456) scale(4.12)"><path d="M6,0.8L6,0.8C6,2.2,1.4,6,0,6l0,0V0h5.2C5.6,0,6,0.4,6,0.8z"/></g>
<g transform="translate(384,456) scale(4.12)"><path d="M6,0v6H2C0.9,6,0,5.1,0,4V0H6z"/></g>
<g transform="translate(408,456) scale(4.12)"><rect width="6" height="6"/></g>
<g transform="translate(432,456) scale(4.12)"><rect width="6" height="6"/></g>
<g transform="translate(528,456) scale(4.12)"><rect width="6" height="6"/></g>
<g transform="translate(552,456) scale(4.12)"><rect width="6" height="6"/></g>
<g transform="translate(576,456) scale(4.12)"><rect width="6" height="6"/></g>
<g transform="translate(288,480) scale(4.12)"><path d="M5.2,6L5.2,6C3.8,6,0,1.4,0,0l0,0h6v5.2C6,5.6,5.6,6,5.2,6z"/></g>
<g transform="translate(360,480) scale(4.12)"><path d="M5.4,2.8C4.5,1.1,2.6-0.1,1.2,0c-1.3,0.1-1.6,1.6-0.7,3.2c1,1.7,2.8,2.9,4.2,2.8C6.1,5.9,6.4,4.4,5.4,2.8z"/></g>
<g transform="translate(432,480) scale(4.12)"><rect width="6" height="6"/></g>
<g transform="translate(480,480) scale(4.12)"><path d="M5.4,2.8C4.5,1.1,2.6-0.1,1.2,0c-1.3,0.1-1.6,1.6-0.7,3.2c1,1.7,2.8,2.9,4.2,2.8C6.1,5.9,6.4,4.4,5.4,2.8z"/></g>
<g transform="translate(528,480) scale(4.12)"><rect width="6" height="6"/></g>
<g transform="translate(552,480) scale(4.12)"><rect width="6" height="6"/></g>
<g transform="translate(576,480) scale(4.12)"><rect width="6" height="6"/></g>
<g transform="translate(600,480) scale(4.12)"><rect width="6" height="6"/></g>
<g transform="translate(624,480) scale(4.12)"><path d="M6,0.8L6,0.8C6,2.2,1.4,6,0,6l0,0V0h5.2C5.6,0,6,0.4,6,0.8z"/></g>
<g transform="translate(240,504) scale(4.12)"><path d="M6,6H0V2c0-1.1,0.9-2,2-2h4V6z"/></g>
<g transform="translate(264,504) scale(4.12)"><path d="M0,6V0h4c1.1,0,2,0.9,2,2v4H0z"/></g>
<g transform="translate(336,504) scale(4.12)"><path d="M5.4,2.8C4.5,1.1,2.6-0.1,1.2,0c-1.3,0.1-1.6,1.6-0.7,3.2c1,1.7,2.8,2.9,4.2,2.8C6.1,5.9,6.4,4.4,5.4,2.8z"/></g>
<g transform="translate(408,504) scale(4.12)"><path d="M6,6H0V2c0-1.1,0.9-2,2-2h4V6z"/></g>
<g transform="translate(432,504) scale(4.12)"><rect width="6" height="6"/></g>
<g transform="translate(528,504) scale(4.12)"><rect width="6" height="6"/></g>
<g transform="translate(552,504) scale(4.12)"><rect width="6" height="6"/></g>
<g transform="translate(240,528) scale(4.12)"><rect width="6" height="6"/></g>
<g transform="translate(264,528) scale(4.12)"><rect width="6" height="6"/></g>
<g transform="translate(312,528) scale(4.12)"><path d="M0.8,0L0.8,0C2.2,0,6,4.6,6,6l0,0H0V0.8C0,0.4,0.4,0,0.8,0z"/></g>
<g transform="translate(360,528) scale(4.12)"><path d="M0,5.2L0,5.2C0,3.8,4.6,0,6,0l0,0v6H0.8C0.4,6,0,5.6,0,5.2z"/></g>
<g transform="translate(384,528) scale(4.12)"><rect width="6" height="6"/></g>
<g transform="translate(408,528) scale(4.12)"><rect width="6" height="6"/></g>
<g transform="translate(432,528) scale(4.12)"><rect width="6" height="6"/></g>
<g transform="translate(456,528) scale(4.12)"><rect width="6" height="6"/></g>
<g transform="translate(480,528) scale(4.12)"><rect width="6" height="6"/></g>
<g transform="translate(504,528) scale(4.12)"><rect width="6" height="6"/></g>
<g transform="translate(528,528) scale(4.12)"><rect width="6" height="6"/></g>
<g transform="translate(552,528) scale(4.12)"><rect width="6" height="6"/></g>
<g transform="translate(576,528) scale(4.12)"><path d="M0,6V0h4c1.1,0,2,0.9,2,2v4H0z"/></g>
<g transform="translate(240,552) scale(4.12)"><rect width="6" height="6"/></g>
<g transform="translate(264,552) scale(4.12)"><path d="M0,0h6v4c0,1.1-0.9,2-2,2H0V0z"/></g>
<g transform="translate(312,552) scale(4.12)"><path d="M6,0v6H2C0.9,6,0,5.1,0,4V0H6z"/></g>
<g transform="translate(336,552) scale(4.12)"><path d="M6,0.8L6,0.8C6,2.2,1.4,6,0,6l0,0V0h5.2C5.6,0,6,0.4,6,0.8z"/></g>
<g transform="translate(384,552) scale(4.12)"><rect width="6" height="6"/></g>
<g transform="translate(408,552) scale(4.12)"><rect width="6" height="6"/></g>
<g transform="translate(432,552) scale(4.12)"><rect width="6" height="6"/></g>
<g transform="translate(456,552) scale(4.12)"><rect width="6" height="6"/></g>
<g transform="translate(480,552) scale(4.12)"><path d="M0,0h6v4c0,1.1-0.9,2-2,2H0V0z"/></g>
<g transform="translate(528,552) scale(4.12)"><path d="M5.2,6L5.2,6C3.8,6,0,1.4,0,0l0,0h6v5.2C6,5.6,5.6,6,5.2,6z"/></g>
<g transform="translate(576,552) scale(4.12)"><rect width="6" height="6"/></g>
<g transform="translate(600,552) scale(4.12)"><rect width="6" height="6"/></g>
<g transform="translate(624,552) scale(4.12)"><path d="M0,6V0h4c1.1,0,2,0.9,2,2v4H0z"/></g>
<g transform="translate(240,576) scale(4.12)"><path d="M5.2,6L5.2,6C3.8,6,0,1.4,0,0l0,0h6v5.2C6,5.6,5.6,6,5.2,6z"/></g>
<g transform="translate(384,576) scale(4.12)"><rect width="6" height="6"/></g>
<g transform="translate(408,576) scale(4.12)"><path d="M0,0h6v4c0,1.1-0.9,2-2,2H0V0z"/></g>
<g transform="translate(456,576) scale(4.12)"><rect width="6" height="6"/></g>
<g transform="translate(504,576) scale(4.12)"><path d="M0.8,0L0.8,0C2.2,0,6,4.6,6,6l0,0H0V0.8C0,0.4,0.4,0,0.8,0z"/></g>
<g transform="translate(576,576) scale(4.12)"><path d="M5.2,6L5.2,6C3.8,6,0,1.4,0,0l0,0h6v5.2C6,5.6,5.6,6,5.2,6z"/></g>
<g transform="translate(624,576) scale(4.12)"><rect width="6" height="6"/></g>
<g transform="translate(384,600) scale(4.12)"><rect width="6" height="6"/></g>
<g transform="translate(432,600) scale(4.12)"><path d="M0,5.2L0,5.2C0,3.8,4.6,0,6,0l0,0v6H0.8C0.4,6,0,5.6,0,5.2z"/></g>
<g transform="translate(456,600) scale(4.12)"><rect width="6" height="6"/></g>
<g transform="translate(480,600) scale(4.12)"><rect width="6" height="6"/></g>
<g transform="translate(504,600) scale(4.12)"><rect width="6" height="6"/></g>
<g transform="translate(528,600) scale(4.12)"><rect width="6" height="6"/></g>
<g transform="translate(552,600) scale(4.12)"><path d="M0,6V0h4c1.1,0,2,0.9,2,2v4H0z"/></g>
<g transform="translate(624,600) scale(4.12)"><rect width="6" height="6"/></g>
<g transform="translate(240,624) scale(4.12)"><path d="M0,5.2L0,5.2C0,3.8,4.6,0,6,0l0,0v6H0.8C0.4,6,0,5.6,0,5.2z"/></g>
<g transform="translate(264,624) scale(4.12)"><rect width="6" height="6"/></g>
<g transform="translate(288,624) scale(4.12)"><rect width="6" height="6"/></g>
<g transform="translate(312,624) scale(4.12)"><rect width="6" height="6"/></g>
<g transform="translate(336,624) scale(4.12)"><rect width="6" height="6"/></g>
<g transform="translate(360,624) scale(4.12)"><rect width="6" height="6"/></g>
<g transform="translate(384,624) scale(4.12)"><path d="M0,0h6v4c0,1.1-0.9,2-2,2H0V0z"/></g>
<g transform="translate(480,624) scale(4.12)"><path d="M6,0v6H2C0.9,6,0,5.1,0,4V0H6z"/></g>
<g transform="translate(504,624) scale(4.12)"><rect width="6" height="6"/></g>
<g transform="translate(528,624) scale(4.12)"><rect width="6" height="6"/></g>
<g transform="translate(552,624) scale(4.12)"><rect width="6" height="6"/></g>
<g transform="translate(576,624) scale(4.12)"><rect width="6" height="6"/></g>
<g transform="translate(600,624) scale(4.12)"><rect width="6" height="6"/></g>
<g transform="translate(624,624) scale(4.12)"><path d="M0,0h6v4c0,1.1-0.9,2-2,2H0V0z"/></g>
<g transform="translate(48,48)"><g transform="scale(12)"><path d="M0,0l0,7c0,3.9,3.1,7,7,7h7V7c0-3.9-3.1-7-7-7H0z M12,12H7c-2.8,0-5-2.2-5-5V2h5c2.8,0,5,2.2,5,5V12z"/></g></g>
<g transform="translate(480,48)"><g transform="scale(12) rotate(90 7 7)"><path d="M0,0l0,7c0,3.9,3.1,7,7,7h7V7c0-3.9-3.1-7-7-7H0z M12,12H7c-2.8,0-5-2.2-5-5V2h5c2.8,0,5,2.2,5,5V12z"/></g></g>
<g transform="translate(48,480)"><g transform="scale(12) rotate(-90 7 7)"><path d="M0,0l0,7c0,3.9,3.1,7,7,7h7V7c0-3.9-3.1-7-7-7H0z M12,12H7c-2.8,0-5-2.2-5-5V2h5c2.8,0,5,2.2,5,5V12z"/></g></g>
<g transform="translate(96,96)"><g transform="scale(12)"><path d="M6,6H3C1.3,6,0,4.7,0,3l0-3l3,0c1.7,0,3,1.3,3,3V6z"/></g></g>
<g transform="translate(528,96)"><g transform="scale(12) rotate(90 3 3)"><path d="M6,6H3C1.3,6,0,4.7,0,3l0-3l3,0c1.7,0,3,1.3,3,3V6z"/></g></g>
<g transform="translate(96,528)"><g transform="scale(12) rotate(-90 3 3)"><path d="M6,6H3C1.3,6,0,4.7,0,3l0-3l3,0c1.7,0,3,1.3,3,3V6z"/></g></g>
</g></svg>
