<?xml version="1.0" encoding="utf-8"?>
<!-- Generator: Adobe Illustrator 24.3.0, SVG Export Plug-In . SVG Version: 6.00 Build 0)  -->
<svg version="1.1" id="Capa_1" xmlns="http://www.w3.org/2000/svg" xmlns:xlink="http://www.w3.org/1999/xlink" x="0px" y="0px"
	 viewBox="0 0 792 792" style="enable-background:new 0 0 792 792;" xml:space="preserve">
<g>
	<g transform="translate(336,48) scale(4.12)">
		<path d="M-2.1-5.7L-2.1-5.7c0-1.6,5.2-5.9,6.8-5.9l0,0v6.8h-5.9C-1.6-4.8-2.1-5.3-2.1-5.7z"/>
	</g>
	<g transform="translate(360,48) scale(4.12)">
		<rect x="-1.3" y="-11.7" width="6.8" height="6.8"/>
	</g>
	<g transform="translate(384,48) scale(4.12)">
		<rect x="-0.5" y="-11.7" width="6.8" height="6.8"/>
	</g>
	<g transform="translate(408,48) scale(4.12)">
		<path d="M0.3-4.8v-6.8h4.5c1.3,0,2.3,1,2.3,2.3v4.5H0.3z"/>
	</g>
	<g transform="translate(480,48) scale(4.12)">
		<path d="M2.7-5.7L2.7-5.7c0-1.6,5.2-5.9,6.8-5.9l0,0v6.8H3.6C3.1-4.8,2.7-5.3,2.7-5.7z"/>
	</g>
	<g transform="translate(504,48) scale(4.12)">
		<rect x="3.5" y="-11.7" width="6.8" height="6.8"/>
	</g>
	<g transform="translate(528,48) scale(4.12)">
		<path d="M4.3-4.8v-6.8h4.5c1.3,0,2.3,1,2.3,2.3v4.5H4.3z"/>
	</g>
	<g transform="translate(264,72) scale(4.12)">
		<path d="M1.7-7.7c-1-1.9-3.2-3.3-4.8-3.2C-4.6-10.7-4.9-9-3.9-7.2C-2.8-5.3-0.7-3.9,0.9-4C2.5-4.1,2.8-5.9,1.7-7.7z"/>
	</g>
	<g transform="translate(312,72) scale(4.12)">
		<path d="M-2-10.9L-2-10.9c1.6,0,5.9,5.2,5.9,6.8l0,0h-6.8v-5.9C-2.9-10.4-2.4-10.9-2-10.9z"/>
	</g>
	<g transform="translate(360,72) scale(4.12)">
		<rect x="-1.3" y="-10.9" width="6.8" height="6.8"/>
	</g>
	<g transform="translate(384,72) scale(4.12)">
		<rect x="-0.5" y="-10.9" width="6.8" height="6.8"/>
	</g>
	<g transform="translate(408,72) scale(4.12)">
		<rect x="0.3" y="-10.9" width="6.8" height="6.8"/>
	</g>
	<g transform="translate(432,72) scale(4.12)">
		<rect x="1.1" y="-10.9" width="6.8" height="6.8"/>
	</g>
	<g transform="translate(456,72) scale(4.12)">
		<path d="M8.7-9.9L8.7-9.9C8.7-8.4,3.5-4,1.9-4l0,0v-6.8h5.9C8.3-10.9,8.7-10.4,8.7-9.9z"/>
	</g>
	<g transform="translate(528,72) scale(4.12)">
		<rect x="4.3" y="-10.9" width="6.8" height="6.8"/>
	</g>
	<g transform="translate(240,96) scale(4.12)">
		<path d="M-4.4-10.1L-4.4-10.1c1.6,0,5.9,5.2,5.9,6.8l0,0h-6.8v-5.9C-5.3-9.6-4.8-10.1-4.4-10.1z"/>
	</g>
	<g transform="translate(288,96) scale(4.12)">
		<path d="M-3.7-4.1L-3.7-4.1c0-1.6,5.2-5.9,6.8-5.9l0,0v6.8h-5.9C-3.2-3.2-3.7-3.7-3.7-4.1z"/>
	</g>
	<g transform="translate(312,96) scale(4.12)">
		<rect x="-2.9" y="-10.1" width="6.8" height="6.8"/>
	</g>
	<g transform="translate(336,96) scale(4.12)">
		<rect x="-2.1" y="-10.1" width="6.8" height="6.8"/>
	</g>
	<g transform="translate(360,96) scale(4.12)">
		<path d="M-1.3-10.1h6.8v4.5c0,1.3-1,2.3-2.3,2.3h-4.5V-10.1z"/>
	</g>
	<g transform="translate(408,96) scale(4.12)">
		<rect x="0.3" y="-10.1" width="6.8" height="6.8"/>
	</g>
	<g transform="translate(504,96) scale(4.12)">
		<path d="M10.3-3.2H3.5v-4.5c0-1.3,1-2.3,2.3-2.3h4.5V-3.2z"/>
	</g>
	<g transform="translate(528,96) scale(4.12)">
		<path d="M4.3-10.1h6.8v4.5c0,1.3-1,2.3-2.3,2.3H4.3V-10.1z"/>
	</g>
	<g transform="translate(240,120) scale(4.12)">
		<rect x="-5.3" y="-9.3" width="6.8" height="6.8"/>
	</g>
	<g transform="translate(264,120) scale(4.12)">
		<path d="M2.3-8.4L2.3-8.4c0,1.6-5.2,5.9-6.8,5.9l0,0v-6.8h5.9C1.9-9.3,2.3-8.8,2.3-8.4z"/>
	</g>
	<g transform="translate(312,120) scale(4.12)">
		<rect x="-2.9" y="-9.3" width="6.8" height="6.8"/>
	</g>
	<g transform="translate(336,120) scale(4.12)">
		<path d="M-2.1-9.3h6.8v4.5c0,1.3-1,2.3-2.3,2.3h-4.5V-9.3z"/>
	</g>
	<g transform="translate(384,120) scale(4.12)">
		<path d="M-0.5-3.4L-0.5-3.4c0-1.6,5.2-5.9,6.8-5.9l0,0v6.8H0.4C0-2.4-0.5-2.9-0.5-3.4z"/>
	</g>
	<g transform="translate(408,120) scale(4.12)">
		<rect x="0.3" y="-9.3" width="6.8" height="6.8"/>
	</g>
	<g transform="translate(456,120) scale(4.12)">
		<path d="M8-6.1C7-8,4.8-9.4,3.3-9.3C1.8-9.1,1.4-7.4,2.5-5.6c1.1,1.9,3.2,3.3,4.8,3.2C8.8-2.6,9.2-4.3,8-6.1z"/>
	</g>
	<g transform="translate(504,120) scale(4.12)">
		<rect x="3.5" y="-9.3" width="6.8" height="6.8"/>
	</g>
	<g transform="translate(240,144) scale(4.12)">
		<rect x="-5.3" y="-8.5" width="6.8" height="6.8"/>
	</g>
	<g transform="translate(288,144) scale(4.12)">
		<path d="M-3.7-2.6L-3.7-2.6c0-1.6,5.2-5.9,6.8-5.9l0,0v6.8h-5.9C-3.2-1.6-3.7-2.1-3.7-2.6z"/>
	</g>
	<g transform="translate(312,144) scale(4.12)">
		<rect x="-2.9" y="-8.5" width="6.8" height="6.8"/>
	</g>
	<g transform="translate(408,144) scale(4.12)">
		<path d="M7.1-8.5v6.8H2.6c-1.3,0-2.3-1-2.3-2.3v-4.5H7.1z"/>
	</g>
	<g transform="translate(432,144) scale(4.12)">
		<path d="M7.9-7.6L7.9-7.6c0,1.6-5.2,5.9-6.8,5.9l0,0v-6.8H7C7.5-8.5,7.9-8,7.9-7.6z"/>
	</g>
	<g transform="translate(480,144) scale(4.12)">
		<path d="M9.5-1.6H2.7v-4.5c0-1.3,1-2.3,2.3-2.3h4.5V-1.6z"/>
	</g>
	<g transform="translate(504,144) scale(4.12)">
		<path d="M3.5-8.5h6.8v4.5c0,1.3-1,2.3-2.3,2.3H3.5V-8.5z"/>
	</g>
	<g transform="translate(240,168) scale(4.12)">
		<rect x="-5.3" y="-7.7" width="6.8" height="6.8"/>
	</g>
	<g transform="translate(264,168) scale(4.12)">
		<path d="M2.3-6.8L2.3-6.8c0,1.6-5.2,5.9-6.8,5.9l0,0v-6.8h5.9C1.9-7.7,2.3-7.2,2.3-6.8z"/>
	</g>
	<g transform="translate(312,168) scale(4.12)">
		<path d="M3.9-7.7v6.8h-4.5c-1.3,0-2.3-1-2.3-2.3v-4.5H3.9z"/>
	</g>
	<g transform="translate(336,168) scale(4.12)">
		<path d="M-2.1-0.8v-6.8h4.5c1.3,0,2.3,1,2.3,2.3v4.5H-2.1z"/>
	</g>
	<g transform="translate(480,168) scale(4.12)">
		<rect x="2.7" y="-7.7" width="6.8" height="6.8"/>
	</g>
	<g transform="translate(528,168) scale(4.12)">
		<path d="M5.2-7.7L5.2-7.7c1.6,0,5.9,5.2,5.9,6.8l0,0H4.3v-5.9C4.3-7.2,4.7-7.7,5.2-7.7z"/>
	</g>
	<g transform="translate(240,192) scale(4.12)">
		<rect x="-5.3" y="-6.9" width="6.8" height="6.8"/>
	</g>
	<g transform="translate(288,192) scale(4.12)">
		<path d="M-2.8-6.9L-2.8-6.9c1.6,0,5.9,5.2,5.9,6.8l0,0h-6.8V-6C-3.7-6.4-3.2-6.9-2.8-6.9z"/>
	</g>
	<g transform="translate(336,192) scale(4.12)">
		<path d="M3.8-0.1L3.8-0.1c-1.6,0-5.9-5.2-5.9-6.8l0,0h6.8V-1C4.7-0.5,4.3-0.1,3.8-0.1z"/>
	</g>
	<g transform="translate(384,192) scale(4.12)">
		<path d="M0.4-6.9L0.4-6.9c1.6,0,5.9,5.2,5.9,6.8l0,0h-6.8V-6C-0.5-6.4,0-6.9,0.4-6.9z"/>
	</g>
	<g transform="translate(432,192) scale(4.12)">
		<path d="M2-6.9L2-6.9c1.6,0,5.9,5.2,5.9,6.8l0,0H1.1V-6C1.1-6.4,1.5-6.9,2-6.9z"/>
	</g>
	<g transform="translate(480,192) scale(4.12)">
		<path d="M8.6-0.1L8.6-0.1C7-0.1,2.7-5.3,2.7-6.9l0,0h6.8V-1C9.5-0.5,9.1-0.1,8.6-0.1z"/>
	</g>
	<g transform="translate(528,192) scale(4.12)">
		<rect x="4.3" y="-6.9" width="6.8" height="6.8"/>
	</g>
	<g transform="translate(240,216) scale(4.12)">
		<path d="M1.5-6.1v6.8H-3c-1.3,0-2.3-1-2.3-2.3v-4.5H1.5z"/>
	</g>
	<g transform="translate(264,216) scale(4.12)">
		<rect x="-4.5" y="-6.1" width="6.8" height="6.8"/>
	</g>
	<g transform="translate(288,216) scale(4.12)">
		<rect x="-3.7" y="-6.1" width="6.8" height="6.8"/>
	</g>
	<g transform="translate(312,216) scale(4.12)">
		<path d="M3.9-5.2L3.9-5.2c0,1.6-5.2,5.9-6.8,5.9l0,0v-6.8H3C3.5-6.1,3.9-5.6,3.9-5.2z"/>
	</g>
	<g transform="translate(384,216) scale(4.12)">
		<path d="M5.4,0.7L5.4,0.7c-1.6,0-5.9-5.2-5.9-6.8l0,0h6.8v5.9C6.3,0.3,5.9,0.7,5.4,0.7z"/>
	</g>
	<g transform="translate(432,216) scale(4.12)">
		<rect x="1.1" y="-6.1" width="6.8" height="6.8"/>
	</g>
	<g transform="translate(528,216) scale(4.12)">
		<path d="M10.2,0.7L10.2,0.7c-1.6,0-5.9-5.2-5.9-6.8l0,0h6.8v5.9C11.1,0.3,10.6,0.7,10.2,0.7z"/>
	</g>
	<g transform="translate(48,240) scale(4.12)">
		<path d="M-10.7-5.3L-10.7-5.3c1.6,0,5.9,5.2,5.9,6.8l0,0h-6.8v-5.9C-11.7-4.8-11.2-5.3-10.7-5.3z"/>
	</g>
	<g transform="translate(96,240) scale(4.12)">
		<path d="M-3.2,1.5h-6.8V-3c0-1.3,1-2.3,2.3-2.3h4.5V1.5z"/>
	</g>
	<g transform="translate(120,240) scale(4.12)">
		<rect x="-9.3" y="-5.3" width="6.8" height="6.8"/>
	</g>
	<g transform="translate(144,240) scale(4.12)">
		<rect x="-8.5" y="-5.3" width="6.8" height="6.8"/>
	</g>
	<g transform="translate(168,240) scale(4.12)">
		<rect x="-7.7" y="-5.3" width="6.8" height="6.8"/>
	</g>
	<g transform="translate(192,240) scale(4.12)">
		<path d="M-0.1-4.4L-0.1-4.4c0,1.6-5.2,5.9-6.8,5.9l0,0v-6.8H-1C-0.5-5.3-0.1-4.8-0.1-4.4z"/>
	</g>
	<g transform="translate(264,240) scale(4.12)">
		<rect x="-4.5" y="-5.3" width="6.8" height="6.8"/>
	</g>
	<g transform="translate(432,240) scale(4.12)">
		<path d="M7.9-5.3v6.8H3.4c-1.3,0-2.3-1-2.3-2.3v-4.5H7.9z"/>
	</g>
	<g transform="translate(456,240) scale(4.12)">
		<path d="M1.9,1.5v-6.8h4.5c1.3,0,2.3,1,2.3,2.3v4.5H1.9z"/>
	</g>
	<g transform="translate(504,240) scale(4.12)">
		<path d="M4.4-5.3L4.4-5.3c1.6,0,5.9,5.2,5.9,6.8l0,0H3.5v-5.9C3.5-4.8,3.9-5.3,4.4-5.3z"/>
	</g>
	<g transform="translate(576,240) scale(4.12)">
		<path d="M12.7,1.5H5.9V-3c0-1.3,1-2.3,2.3-2.3h4.5V1.5z"/>
	</g>
	<g transform="translate(600,240) scale(4.12)">
		<rect x="6.7" y="-5.3" width="6.8" height="6.8"/>
	</g>
	<g transform="translate(624,240) scale(4.12)">
		<rect x="7.5" y="-5.3" width="6.8" height="6.8"/>
	</g>
	<g transform="translate(648,240) scale(4.12)">
		<rect x="8.3" y="-5.3" width="6.8" height="6.8"/>
	</g>
	<g transform="translate(672,240) scale(4.12)">
		<path d="M15.9-4.4L15.9-4.4c0,1.6-5.2,5.9-6.8,5.9l0,0v-6.8H15C15.4-5.3,15.9-4.8,15.9-4.4z"/>
	</g>
	<g transform="translate(48,264) scale(4.12)">
		<rect x="-11.7" y="-4.5" width="6.8" height="6.8"/>
	</g>
	<g transform="translate(96,264) scale(4.12)">
		<path d="M-3.2-4.5v6.8h-4.5c-1.3,0-2.3-1-2.3-2.3v-4.5H-3.2z"/>
	</g>
	<g transform="translate(120,264) scale(4.12)">
		<rect x="-9.3" y="-4.5" width="6.8" height="6.8"/>
	</g>
	<g transform="translate(264,264) scale(4.12)">
		<rect x="-4.5" y="-4.5" width="6.8" height="6.8"/>
	</g>
	<g transform="translate(360,264) scale(4.12)">
		<path d="M5.5,2.3h-6.8v-4.5c0-1.3,1-2.3,2.3-2.3h4.5V2.3z"/>
	</g>
	<g transform="translate(384,264) scale(4.12)">
		<rect x="-0.5" y="-4.5" width="6.8" height="6.8"/>
	</g>
	<g transform="translate(408,264) scale(4.12)">
		<path d="M0.3,2.3v-6.8h4.5c1.3,0,2.3,1,2.3,2.3v4.5H0.3z"/>
	</g>
	<g transform="translate(456,264) scale(4.12)">
		<path d="M8.7-4.5v6.8H4.2c-1.3,0-2.3-1-2.3-2.3v-4.5H8.7z"/>
	</g>
	<g transform="translate(480,264) scale(4.12)">
		<rect x="2.7" y="-4.5" width="6.8" height="6.8"/>
	</g>
	<g transform="translate(504,264) scale(4.12)">
		<rect x="3.5" y="-4.5" width="6.8" height="6.8"/>
	</g>
	<g transform="translate(528,264) scale(4.12)">
		<rect x="4.3" y="-4.5" width="6.8" height="6.8"/>
	</g>
	<g transform="translate(552,264) scale(4.12)">
		<rect x="5.1" y="-4.5" width="6.8" height="6.8"/>
	</g>
	<g transform="translate(576,264) scale(4.12)">
		<rect x="5.9" y="-4.5" width="6.8" height="6.8"/>
	</g>
	<g transform="translate(600,264) scale(4.12)">
		<rect x="6.7" y="-4.5" width="6.8" height="6.8"/>
	</g>
	<g transform="translate(624,264) scale(4.12)">
		<path d="M7.5-4.5h6.8v4.5c0,1.3-1,2.3-2.3,2.3H7.5V-4.5z"/>
	</g>
	<g transform="translate(720,264) scale(4.12)">
		<path d="M16.8-1.3c-1-1.9-3.2-3.3-4.8-3.2c-1.5,0.1-1.8,1.8-0.8,3.6c1.1,1.9,3.2,3.3,4.8,3.2C17.6,2.2,17.9,0.5,16.8-1.3z"/>
	</g>
	<g transform="translate(48,288) scale(4.12)">
		<rect x="-11.7" y="-3.7" width="6.8" height="6.8"/>
	</g>
	<g transform="translate(120,288) scale(4.12)">
		<path d="M-2.4-3.7v6.8H-7c-1.3,0-2.3-1-2.3-2.3v-4.5H-2.4z"/>
	</g>
	<g transform="translate(144,288) scale(4.12)">
		<rect x="-8.5" y="-3.7" width="6.8" height="6.8"/>
	</g>
	<g transform="translate(168,288) scale(4.12)">
		<rect x="-7.7" y="-3.7" width="6.8" height="6.8"/>
	</g>
	<g transform="translate(192,288) scale(4.12)">
		<path d="M-0.1-2.8L-0.1-2.8c0,1.6-5.2,5.9-6.8,5.9l0,0v-6.8H-1C-0.5-3.7-0.1-3.2-0.1-2.8z"/>
	</g>
	<g transform="translate(264,288) scale(4.12)">
		<path d="M1.4,3.1L1.4,3.1c-1.6,0-5.9-5.2-5.9-6.8l0,0h6.8v5.9C2.3,2.7,1.9,3.1,1.4,3.1z"/>
	</g>
	<g transform="translate(312,288) scale(4.12)">
		<path d="M-2.9,2.2L-2.9,2.2c0-1.6,5.2-5.9,6.8-5.9l0,0v6.8H-2C-2.4,3.1-2.9,2.7-2.9,2.2z"/>
	</g>
	<g transform="translate(336,288) scale(4.12)">
		<rect x="-2.1" y="-3.7" width="6.8" height="6.8"/>
	</g>
	<g transform="translate(360,288) scale(4.12)">
		<rect x="-1.3" y="-3.7" width="6.8" height="6.8"/>
	</g>
	<g transform="translate(384,288) scale(4.12)">
		<rect x="-0.5" y="-3.7" width="6.8" height="6.8"/>
	</g>
	<g transform="translate(408,288) scale(4.12)">
		<rect x="0.3" y="-3.7" width="6.8" height="6.8"/>
	</g>
	<g transform="translate(432,288) scale(4.12)">
		<path d="M7.9-2.8L7.9-2.8c0,1.6-5.2,5.9-6.8,5.9l0,0v-6.8H7C7.5-3.7,7.9-3.2,7.9-2.8z"/>
	</g>
	<g transform="translate(528,288) scale(4.12)">
		<rect x="4.3" y="-3.7" width="6.8" height="6.8"/>
	</g>
	<g transform="translate(48,312) scale(4.12)">
		<rect x="-11.7" y="-2.9" width="6.8" height="6.8"/>
	</g>
	<g transform="translate(96,312) scale(4.12)">
		<path d="M-3.9,0.3c-1-1.9-3.2-3.3-4.8-3.2c-1.5,0.1-1.8,1.8-0.8,3.6C-8.4,2.7-6.3,4-4.7,3.9C-3.1,3.8-2.8,2.1-3.9,0.3z"/>
	</g>
	<g transform="translate(168,312) scale(4.12)">
		<rect x="-7.7" y="-2.9" width="6.8" height="6.8"/>
	</g>
	<g transform="translate(240,312) scale(4.12)">
		<path d="M-4.4-2.9L-4.4-2.9c1.6,0,5.9,5.2,5.9,6.8l0,0h-6.8V-2C-5.3-2.4-4.8-2.9-4.4-2.9z"/>
	</g>
	<g transform="translate(288,312) scale(4.12)">
		<path d="M-2.8-2.9L-2.8-2.9c1.6,0,5.9,5.2,5.9,6.8l0,0h-6.8V-2C-3.7-2.4-3.2-2.9-2.8-2.9z"/>
	</g>
	<g transform="translate(336,312) scale(4.12)">
		<rect x="-2.1" y="-2.9" width="6.8" height="6.8"/>
	</g>
	<g transform="translate(360,312) scale(4.12)">
		<path d="M-1.3-2.9h6.8v4.5c0,1.3-1,2.3-2.3,2.3h-4.5V-2.9z"/>
	</g>
	<g transform="translate(408,312) scale(4.12)">
		<rect x="0.3" y="-2.9" width="6.8" height="6.8"/>
	</g>
	<g transform="translate(504,312) scale(4.12)">
		<path d="M10.3,3.9H3.5v-4.5c0-1.3,1-2.3,2.3-2.3h4.5V3.9z"/>
	</g>
	<g transform="translate(528,312) scale(4.12)">
		<path d="M4.3-2.9h6.8v4.5c0,1.3-1,2.3-2.3,2.3H4.3V-2.9z"/>
	</g>
	<g transform="translate(576,312) scale(4.12)">
		<path d="M5.9,3L5.9,3c0-1.6,5.2-5.9,6.8-5.9l0,0v6.8H6.8C6.3,3.9,5.9,3.5,5.9,3z"/>
	</g>
	<g transform="translate(600,312) scale(4.12)">
		<path d="M13.5-2L13.5-2c0,1.6-5.2,5.9-6.8,5.9l0,0v-6.8h5.9C13-2.9,13.5-2.4,13.5-2z"/>
	</g>
	<g transform="translate(648,312) scale(4.12)">
		<path d="M9.2-2.9L9.2-2.9c1.6,0,5.9,5.2,5.9,6.8l0,0H8.3V-2C8.3-2.4,8.7-2.9,9.2-2.9z"/>
	</g>
	<g transform="translate(696,312) scale(4.12)">
		<path d="M16,0.3c-1-1.9-3.2-3.3-4.8-3.2c-1.5,0.1-1.8,1.8-0.8,3.6c1.1,1.9,3.2,3.3,4.8,3.2C16.8,3.8,17.1,2.1,16,0.3z"/>
	</g>
	<g transform="translate(48,336) scale(4.12)">
		<rect x="-11.7" y="-2.1" width="6.8" height="6.8"/>
	</g>
	<g transform="translate(72,336) scale(4.12)">
		<path d="M-10.9,4.7v-6.8h4.5c1.3,0,2.3,1,2.3,2.3v4.5H-10.9z"/>
	</g>
	<g transform="translate(120,336) scale(4.12)">
		<path d="M-8.4-2.1L-8.4-2.1c1.6,0,5.9,5.2,5.9,6.8l0,0h-6.8v-5.9C-9.3-1.6-8.8-2.1-8.4-2.1z"/>
	</g>
	<g transform="translate(168,336) scale(4.12)">
		<path d="M-0.8-2.1v6.8h-4.5c-1.3,0-2.3-1-2.3-2.3v-4.5H-0.8z"/>
	</g>
	<g transform="translate(192,336) scale(4.12)">
		<rect x="-6.9" y="-2.1" width="6.8" height="6.8"/>
	</g>
	<g transform="translate(216,336) scale(4.12)">
		<rect x="-6.1" y="-2.1" width="6.8" height="6.8"/>
	</g>
	<g transform="translate(240,336) scale(4.12)">
		<path d="M-5.3-2.1h6.8v4.5c0,1.3-1,2.3-2.3,2.3h-4.5V-2.1z"/>
	</g>
	<g transform="translate(288,336) scale(4.12)">
		<rect x="-3.7" y="-2.1" width="6.8" height="6.8"/>
	</g>
	<g transform="translate(336,336) scale(4.12)">
		<path d="M3.8,4.7L3.8,4.7c-1.6,0-5.9-5.2-5.9-6.8l0,0h6.8v5.9C4.7,4.3,4.3,4.7,3.8,4.7z"/>
	</g>
	<g transform="translate(384,336) scale(4.12)">
		<path d="M-0.5,3.8L-0.5,3.8c0-1.6,5.2-5.9,6.8-5.9l0,0v6.8H0.4C0,4.7-0.5,4.3-0.5,3.8z"/>
	</g>
	<g transform="translate(408,336) scale(4.12)">
		<rect x="0.3" y="-2.1" width="6.8" height="6.8"/>
	</g>
	<g transform="translate(456,336) scale(4.12)">
		<path d="M8,1.1C7-0.8,4.8-2.2,3.3-2.1C1.8-2,1.4-0.3,2.5,1.5c1.1,1.9,3.2,3.3,4.8,3.2S9.2,2.9,8,1.1z"/>
	</g>
	<g transform="translate(504,336) scale(4.12)">
		<rect x="3.5" y="-2.1" width="6.8" height="6.8"/>
	</g>
	<g transform="translate(648,336) scale(4.12)">
		<path d="M15.1-2.1v6.8h-4.5c-1.3,0-2.3-1-2.3-2.3v-4.5H15.1z"/>
	</g>
	<g transform="translate(672,336) scale(4.12)">
		<path d="M15.9-1.2L15.9-1.2c0,1.6-5.2,5.9-6.8,5.9l0,0v-6.8H15C15.4-2.1,15.9-1.6,15.9-1.2z"/>
	</g>
	<g transform="translate(48,360) scale(4.12)">
		<rect x="-11.7" y="-1.3" width="6.8" height="6.8"/>
	</g>
	<g transform="translate(72,360) scale(4.12)">
		<rect x="-10.9" y="-1.3" width="6.8" height="6.8"/>
	</g>
	<g transform="translate(96,360) scale(4.12)">
		<rect x="-10.1" y="-1.3" width="6.8" height="6.8"/>
	</g>
	<g transform="translate(120,360) scale(4.12)">
		<rect x="-9.3" y="-1.3" width="6.8" height="6.8"/>
	</g>
	<g transform="translate(144,360) scale(4.12)">
		<path d="M-1.6-0.4L-1.6-0.4c0,1.6-5.2,5.9-6.8,5.9l0,0v-6.8h5.9C-2.1-1.3-1.6-0.8-1.6-0.4z"/>
	</g>
	<g transform="translate(216,360) scale(4.12)">
		<rect x="-6.1" y="-1.3" width="6.8" height="6.8"/>
	</g>
	<g transform="translate(288,360) scale(4.12)">
		<path d="M3.1-1.3v6.8h-4.5c-1.3,0-2.3-1-2.3-2.3v-4.5H3.1z"/>
	</g>
	<g transform="translate(312,360) scale(4.12)">
		<path d="M3.9-0.4L3.9-0.4c0,1.6-5.2,5.9-6.8,5.9l0,0v-6.8H3C3.5-1.3,3.9-0.8,3.9-0.4z"/>
	</g>
	<g transform="translate(408,360) scale(4.12)">
		<path d="M7.1-1.3v6.8H2.6c-1.3,0-2.3-1-2.3-2.3v-4.5H7.1z"/>
	</g>
	<g transform="translate(432,360) scale(4.12)">
		<path d="M7.9-0.4L7.9-0.4c0,1.6-5.2,5.9-6.8,5.9l0,0v-6.8H7C7.5-1.3,7.9-0.8,7.9-0.4z"/>
	</g>
	<g transform="translate(480,360) scale(4.12)">
		<path d="M2.7,4.6L2.7,4.6c0-1.6,5.2-5.9,6.8-5.9l0,0v6.8H3.6C3.1,5.5,2.7,5.1,2.7,4.6z"/>
	</g>
	<g transform="translate(504,360) scale(4.12)">
		<rect x="3.5" y="-1.3" width="6.8" height="6.8"/>
	</g>
	<g transform="translate(528,360) scale(4.12)">
		<rect x="4.3" y="-1.3" width="6.8" height="6.8"/>
	</g>
	<g transform="translate(552,360) scale(4.12)">
		<rect x="5.1" y="-1.3" width="6.8" height="6.8"/>
	</g>
	<g transform="translate(576,360) scale(4.12)">
		<path d="M12.7-0.4L12.7-0.4c0,1.6-5.2,5.9-6.8,5.9l0,0v-6.8h5.9C12.2-1.3,12.7-0.8,12.7-0.4z"/>
	</g>
	<g transform="translate(624,360) scale(4.12)">
		<path d="M13.6,1.9c-1-1.9-3.2-3.3-4.8-3.2C7.3-1.2,7,0.5,8,2.3c1.1,1.9,3.2,3.3,4.8,3.2C14.4,5.4,14.7,3.7,13.6,1.9z"/>
	</g>
	<g transform="translate(720,360) scale(4.12)">
		<path d="M16.8,1.9c-1-1.9-3.2-3.3-4.8-3.2c-1.5,0.1-1.8,1.8-0.8,3.6c1.1,1.9,3.2,3.3,4.8,3.2C17.6,5.4,17.9,3.7,16.8,1.9z"/>
	</g>
	<g transform="translate(48,384) scale(4.12)">
		<rect x="-11.7" y="-0.5" width="6.8" height="6.8"/>
	</g>
	<g transform="translate(96,384) scale(4.12)">
		<rect x="-10.1" y="-0.5" width="6.8" height="6.8"/>
	</g>
	<g transform="translate(120,384) scale(4.12)">
		<path d="M-9.3-0.5h6.8V4c0,1.3-1,2.3-2.3,2.3h-4.5V-0.5z"/>
	</g>
	<g transform="translate(192,384) scale(4.12)">
		<path d="M-6.9,5.4L-6.9,5.4c0-1.6,5.2-5.9,6.8-5.9l0,0v6.8H-6C-6.4,6.3-6.9,5.9-6.9,5.4z"/>
	</g>
	<g transform="translate(216,384) scale(4.12)">
		<rect x="-6.1" y="-0.5" width="6.8" height="6.8"/>
	</g>
	<g transform="translate(240,384) scale(4.12)">
		<rect x="-5.3" y="-0.5" width="6.8" height="6.8"/>
	</g>
	<g transform="translate(264,384) scale(4.12)">
		<path d="M-4.5,6.3v-6.8h4.5c1.3,0,2.3,1,2.3,2.3v4.5H-4.5z"/>
	</g>
	<g transform="translate(336,384) scale(4.12)">
		<path d="M-1.2-0.5L-1.2-0.5c1.6,0,5.9,5.2,5.9,6.8l0,0h-6.8V0.4C-2.1,0-1.6-0.5-1.2-0.5z"/>
	</g>
	<g transform="translate(528,384) scale(4.12)">
		<path d="M10.2,6.3L10.2,6.3c-1.6,0-5.9-5.2-5.9-6.8l0,0h6.8v5.9C11.1,5.9,10.6,6.3,10.2,6.3z"/>
	</g>
	<g transform="translate(600,384) scale(4.12)">
		<path d="M7.6-0.5L7.6-0.5c1.6,0,5.9,5.2,5.9,6.8l0,0H6.7V0.4C6.7,0,7.1-0.5,7.6-0.5z"/>
	</g>
	<g transform="translate(648,384) scale(4.12)">
		<path d="M8.3,5.4L8.3,5.4c0-1.6,5.2-5.9,6.8-5.9l0,0v6.8H9.2C8.7,6.3,8.3,5.9,8.3,5.4z"/>
	</g>
	<g transform="translate(672,384) scale(4.12)">
		<path d="M15.9,0.4L15.9,0.4c0,1.6-5.2,5.9-6.8,5.9l0,0v-6.8H15C15.4-0.5,15.9,0,15.9,0.4z"/>
	</g>
	<g transform="translate(48,408) scale(4.12)">
		<path d="M-5.7,7.1L-5.7,7.1c-1.6,0-5.9-5.2-5.9-6.8l0,0h6.8v5.9C-4.8,6.7-5.3,7.1-5.7,7.1z"/>
	</g>
	<g transform="translate(96,408) scale(4.12)">
		<path d="M-4.1,7.1L-4.1,7.1c-1.6,0-5.9-5.2-5.9-6.8l0,0h6.8v5.9C-3.2,6.7-3.7,7.1-4.1,7.1z"/>
	</g>
	<g transform="translate(240,408) scale(4.12)">
		<rect x="-5.3" y="0.3" width="6.8" height="6.8"/>
	</g>
	<g transform="translate(264,408) scale(4.12)">
		<rect x="-4.5" y="0.3" width="6.8" height="6.8"/>
	</g>
	<g transform="translate(288,408) scale(4.12)">
		<path d="M-3.7,7.1V0.3h4.5c1.3,0,2.3,1,2.3,2.3v4.5H-3.7z"/>
	</g>
	<g transform="translate(336,408) scale(4.12)">
		<path d="M3.8,7.1L3.8,7.1c-1.6,0-5.9-5.2-5.9-6.8l0,0h6.8v5.9C4.7,6.7,4.3,7.1,3.8,7.1z"/>
	</g>
	<g transform="translate(384,408) scale(4.12)">
		<path d="M5.6,3.5c-1-1.9-3.2-3.3-4.8-3.2C-0.6,0.4-1,2.1,0.1,3.9c1.1,1.9,3.2,3.3,4.8,3.2C6.4,7,6.8,5.3,5.6,3.5z"/>
	</g>
	<g transform="translate(432,408) scale(4.12)">
		<path d="M7.2,3.5C6.2,1.5,4,0.2,2.5,0.3C1,0.4,0.6,2.1,1.7,3.9c1.1,1.9,3.2,3.3,4.8,3.2C8,7,8.4,5.3,7.2,3.5z"/>
	</g>
	<g transform="translate(504,408) scale(4.12)">
		<path d="M9.6,3.5c-1-1.9-3.2-3.3-4.8-3.2C3.4,0.4,3,2.1,4,3.9c1.1,1.9,3.2,3.3,4.8,3.2C10.4,7,10.8,5.3,9.6,3.5z"/>
	</g>
	<g transform="translate(600,408) scale(4.12)">
		<rect x="6.7" y="0.3" width="6.8" height="6.8"/>
	</g>
	<g transform="translate(624,408) scale(4.12)">
		<path d="M14.3,1.2L14.3,1.2c0,1.6-5.2,5.9-6.8,5.9l0,0V0.3h5.9C13.8,0.3,14.3,0.8,14.3,1.2z"/>
	</g>
	<g transform="translate(696,408) scale(4.12)">
		<path d="M16,3.5c-1-1.9-3.2-3.3-4.8-3.2c-1.5,0.1-1.8,1.8-0.8,3.6c1.1,1.9,3.2,3.3,4.8,3.2C16.8,7,17.1,5.3,16,3.5z"/>
	</g>
	<g transform="translate(144,432) scale(4.12)">
		<path d="M-8.5,7L-8.5,7c0-1.6,5.2-5.9,6.8-5.9l0,0v6.8h-5.9C-8,7.9-8.5,7.5-8.5,7z"/>
	</g>
	<g transform="translate(168,432) scale(4.12)">
		<rect x="-7.7" y="1.1" width="6.8" height="6.8"/>
	</g>
	<g transform="translate(192,432) scale(4.12)">
		<rect x="-6.9" y="1.1" width="6.8" height="6.8"/>
	</g>
	<g transform="translate(216,432) scale(4.12)">
		<rect x="-6.1" y="1.1" width="6.8" height="6.8"/>
	</g>
	<g transform="translate(240,432) scale(4.12)">
		<path d="M-5.3,1.1h6.8v4.5c0,1.3-1,2.3-2.3,2.3h-4.5V1.1z"/>
	</g>
	<g transform="translate(288,432) scale(4.12)">
		<rect x="-3.7" y="1.1" width="6.8" height="6.8"/>
	</g>
	<g transform="translate(456,432) scale(4.12)">
		<path d="M8,4.3C7,2.3,4.8,1,3.3,1.1C1.8,1.2,1.4,2.9,2.5,4.7C3.6,6.7,5.6,8,7.2,7.9C8.8,7.8,9.2,6.1,8,4.3z"/>
	</g>
	<g transform="translate(600,432) scale(4.12)">
		<rect x="6.7" y="1.1" width="6.8" height="6.8"/>
	</g>
	<g transform="translate(648,432) scale(4.12)">
		<path d="M8.3,7L8.3,7c0-1.6,5.2-5.9,6.8-5.9l0,0v6.8H9.2C8.7,7.9,8.3,7.5,8.3,7z"/>
	</g>
	<g transform="translate(672,432) scale(4.12)">
		<path d="M9.1,7.9V1.1h4.5c1.3,0,2.3,1,2.3,2.3v4.5H9.1z"/>
	</g>
	<g transform="translate(48,456) scale(4.12)">
		<path d="M-4.8,8.7h-6.8V4.2c0-1.3,1-2.3,2.3-2.3h4.5V8.7z"/>
	</g>
	<g transform="translate(72,456) scale(4.12)">
		<rect x="-10.9" y="1.9" width="6.8" height="6.8"/>
	</g>
	<g transform="translate(96,456) scale(4.12)">
		<path d="M-10.1,8.7V1.9h4.5c1.3,0,2.3,1,2.3,2.3v4.5H-10.1z"/>
	</g>
	<g transform="translate(264,456) scale(4.12)">
		<path d="M-4.5,7.8L-4.5,7.8c0-1.6,5.2-5.9,6.8-5.9l0,0v6.8h-5.9C-4,8.7-4.5,8.3-4.5,7.8z"/>
	</g>
	<g transform="translate(288,456) scale(4.12)">
		<rect x="-3.7" y="1.9" width="6.8" height="6.8"/>
	</g>
	<g transform="translate(336,456) scale(4.12)">
		<path d="M4.7,8.7h-6.8V4.2c0-1.3,1-2.3,2.3-2.3h4.5V8.7z"/>
	</g>
	<g transform="translate(360,456) scale(4.12)">
		<rect x="-1.3" y="1.9" width="6.8" height="6.8"/>
	</g>
	<g transform="translate(384,456) scale(4.12)">
		<rect x="-0.5" y="1.9" width="6.8" height="6.8"/>
	</g>
	<g transform="translate(408,456) scale(4.12)">
		<path d="M0.3,8.7V1.9h4.5c1.3,0,2.3,1,2.3,2.3v4.5H0.3z"/>
	</g>
	<g transform="translate(504,456) scale(4.12)">
		<path d="M3.5,7.8L3.5,7.8c0-1.6,5.2-5.9,6.8-5.9l0,0v6.8H4.4C3.9,8.7,3.5,8.3,3.5,7.8z"/>
	</g>
	<g transform="translate(528,456) scale(4.12)">
		<rect x="4.3" y="1.9" width="6.8" height="6.8"/>
	</g>
	<g transform="translate(552,456) scale(4.12)">
		<rect x="5.1" y="1.9" width="6.8" height="6.8"/>
	</g>
	<g transform="translate(576,456) scale(4.12)">
		<rect x="5.9" y="1.9" width="6.8" height="6.8"/>
	</g>
	<g transform="translate(600,456) scale(4.12)">
		<rect x="6.7" y="1.9" width="6.8" height="6.8"/>
	</g>
	<g transform="translate(624,456) scale(4.12)">
		<path d="M14.3,2.8L14.3,2.8c0,1.6-5.2,5.9-6.8,5.9l0,0V1.9h5.9C13.8,1.9,14.3,2.3,14.3,2.8z"/>
	</g>
	<g transform="translate(672,456) scale(4.12)">
		<rect x="9.1" y="1.9" width="6.8" height="6.8"/>
	</g>
	<g transform="translate(720,456) scale(4.12)">
		<path d="M16.8,5.1c-1-1.9-3.2-3.3-4.8-3.2c-1.5,0.1-1.8,1.8-0.8,3.6c1.1,1.9,3.2,3.3,4.8,3.2C17.6,8.6,17.9,6.9,16.8,5.1z"/>
	</g>
	<g transform="translate(48,480) scale(4.12)">
		<rect x="-11.7" y="2.7" width="6.8" height="6.8"/>
	</g>
	<g transform="translate(96,480) scale(4.12)">
		<rect x="-10.1" y="2.7" width="6.8" height="6.8"/>
	</g>
	<g transform="translate(120,480) scale(4.12)">
		<rect x="-9.3" y="2.7" width="6.8" height="6.8"/>
	</g>
	<g transform="translate(144,480) scale(4.12)">
		<path d="M-8.5,9.5V2.7h4.5c1.3,0,2.3,1,2.3,2.3v4.5H-8.5z"/>
	</g>
	<g transform="translate(192,480) scale(4.12)">
		<path d="M-0.7,5.9c-1-1.9-3.2-3.3-4.8-3.2C-7,2.8-7.3,4.5-6.3,6.3c1.1,1.9,3.2,3.3,4.8,3.2C0.1,9.4,0.4,7.7-0.7,5.9z"/>
	</g>
	<g transform="translate(288,480) scale(4.12)">
		<rect x="-3.7" y="2.7" width="6.8" height="6.8"/>
	</g>
	<g transform="translate(312,480) scale(4.12)">
		<rect x="-2.9" y="2.7" width="6.8" height="6.8"/>
	</g>
	<g transform="translate(336,480) scale(4.12)">
		<rect x="-2.1" y="2.7" width="6.8" height="6.8"/>
	</g>
	<g transform="translate(360,480) scale(4.12)">
		<rect x="-1.3" y="2.7" width="6.8" height="6.8"/>
	</g>
	<g transform="translate(384,480) scale(4.12)">
		<rect x="-0.5" y="2.7" width="6.8" height="6.8"/>
	</g>
	<g transform="translate(408,480) scale(4.12)">
		<rect x="0.3" y="2.7" width="6.8" height="6.8"/>
	</g>
	<g transform="translate(432,480) scale(4.12)">
		<rect x="1.1" y="2.7" width="6.8" height="6.8"/>
	</g>
	<g transform="translate(456,480) scale(4.12)">
		<rect x="1.9" y="2.7" width="6.8" height="6.8"/>
	</g>
	<g transform="translate(480,480) scale(4.12)">
		<path d="M9.5,3.6L9.5,3.6c0,1.6-5.2,5.9-6.8,5.9l0,0V2.7h5.9C9.1,2.7,9.5,3.1,9.5,3.6z"/>
	</g>
	<g transform="translate(576,480) scale(4.12)">
		<rect x="5.9" y="2.7" width="6.8" height="6.8"/>
	</g>
	<g transform="translate(600,480) scale(4.12)">
		<rect x="6.7" y="2.7" width="6.8" height="6.8"/>
	</g>
	<g transform="translate(672,480) scale(4.12)">
		<path d="M15,9.5L15,9.5c-1.6,0-5.9-5.2-5.9-6.8l0,0h6.8v5.9C15.9,9.1,15.4,9.5,15,9.5z"/>
	</g>
	<g transform="translate(48,504) scale(4.12)">
		<rect x="-11.7" y="3.5" width="6.8" height="6.8"/>
	</g>
	<g transform="translate(96,504) scale(4.12)">
		<rect x="-10.1" y="3.5" width="6.8" height="6.8"/>
	</g>
	<g transform="translate(120,504) scale(4.12)">
		<rect x="-9.3" y="3.5" width="6.8" height="6.8"/>
	</g>
	<g transform="translate(144,504) scale(4.12)">
		<path d="M-8.5,3.5h6.8V8c0,1.3-1,2.3-2.3,2.3h-4.5V3.5z"/>
	</g>
	<g transform="translate(216,504) scale(4.12)">
		<path d="M-5.2,3.5L-5.2,3.5c1.6,0,5.9,5.2,5.9,6.8l0,0h-6.8V4.4C-6.1,3.9-5.6,3.5-5.2,3.5z"/>
	</g>
	<g transform="translate(264,504) scale(4.12)">
		<path d="M-4.5,9.4L-4.5,9.4c0-1.6,5.2-5.9,6.8-5.9l0,0v6.8h-5.9C-4,10.3-4.5,9.8-4.5,9.4z"/>
	</g>
	<g transform="translate(288,504) scale(4.12)">
		<rect x="-3.7" y="3.5" width="6.8" height="6.8"/>
	</g>
	<g transform="translate(312,504) scale(4.12)">
		<rect x="-2.9" y="3.5" width="6.8" height="6.8"/>
	</g>
	<g transform="translate(336,504) scale(4.12)">
		<rect x="-2.1" y="3.5" width="6.8" height="6.8"/>
	</g>
	<g transform="translate(360,504) scale(4.12)">
		<path d="M-1.3,3.5h6.8V8c0,1.3-1,2.3-2.3,2.3h-4.5V3.5z"/>
	</g>
	<g transform="translate(408,504) scale(4.12)">
		<rect x="0.3" y="3.5" width="6.8" height="6.8"/>
	</g>
	<g transform="translate(432,504) scale(4.12)">
		<path d="M1.1,3.5h6.8V8c0,1.3-1,2.3-2.3,2.3H1.1V3.5z"/>
	</g>
	<g transform="translate(504,504) scale(4.12)">
		<path d="M10.3,10.3H3.5V5.8c0-1.3,1-2.3,2.3-2.3h4.5V10.3z"/>
	</g>
	<g transform="translate(528,504) scale(4.12)">
		<rect x="4.3" y="3.5" width="6.8" height="6.8"/>
	</g>
	<g transform="translate(552,504) scale(4.12)">
		<rect x="5.1" y="3.5" width="6.8" height="6.8"/>
	</g>
	<g transform="translate(576,504) scale(4.12)">
		<rect x="5.9" y="3.5" width="6.8" height="6.8"/>
	</g>
	<g transform="translate(600,504) scale(4.12)">
		<rect x="6.7" y="3.5" width="6.8" height="6.8"/>
	</g>
	<g transform="translate(624,504) scale(4.12)">
		<path d="M7.5,10.3V3.5H12c1.3,0,2.3,1,2.3,2.3v4.5H7.5z"/>
	</g>
	<g transform="translate(696,504) scale(4.12)">
		<path d="M10.8,3.5L10.8,3.5c1.6,0,5.9,5.2,5.9,6.8l0,0H9.9V4.4C9.9,3.9,10.3,3.5,10.8,3.5z"/>
	</g>
	<g transform="translate(48,528) scale(4.12)">
		<path d="M-5.7,11.1L-5.7,11.1c-1.6,0-5.9-5.2-5.9-6.8l0,0h6.8v5.9C-4.8,10.6-5.3,11.1-5.7,11.1z"/>
	</g>
	<g transform="translate(96,528) scale(4.12)">
		<path d="M-4.1,11.1L-4.1,11.1c-1.6,0-5.9-5.2-5.9-6.8l0,0h6.8v5.9C-3.2,10.6-3.7,11.1-4.1,11.1z"/>
	</g>
	<g transform="translate(192,528) scale(4.12)">
		<path d="M-6.9,10.2L-6.9,10.2c0-1.6,5.2-5.9,6.8-5.9l0,0v6.8H-6C-6.4,11.1-6.9,10.6-6.9,10.2z"/>
	</g>
	<g transform="translate(216,528) scale(4.12)">
		<path d="M-6.1,4.3h6.8v4.5c0,1.3-1,2.3-2.3,2.3h-4.5V4.3z"/>
	</g>
	<g transform="translate(312,528) scale(4.12)">
		<path d="M3.9,4.3v6.8h-4.5c-1.3,0-2.3-1-2.3-2.3V4.3H3.9z"/>
	</g>
	<g transform="translate(336,528) scale(4.12)">
		<path d="M-2.1,4.3h6.8v4.5c0,1.3-1,2.3-2.3,2.3h-4.5V4.3z"/>
	</g>
	<g transform="translate(384,528) scale(4.12)">
		<path d="M-0.5,10.2L-0.5,10.2c0-1.6,5.2-5.9,6.8-5.9l0,0v6.8H0.4C0,11.1-0.5,10.6-0.5,10.2z"/>
	</g>
	<g transform="translate(408,528) scale(4.12)">
		<path d="M0.3,4.3h6.8v4.5c0,1.3-1,2.3-2.3,2.3H0.3V4.3z"/>
	</g>
	<g transform="translate(456,528) scale(4.12)">
		<path d="M8.7,11.1H1.9V6.6c0-1.3,1-2.3,2.3-2.3h4.5V11.1z"/>
	</g>
	<g transform="translate(480,528) scale(4.12)">
		<rect x="2.7" y="4.3" width="6.8" height="6.8"/>
	</g>
	<g transform="translate(504,528) scale(4.12)">
		<rect x="3.5" y="4.3" width="6.8" height="6.8"/>
	</g>
	<g transform="translate(528,528) scale(4.12)">
		<rect x="4.3" y="4.3" width="6.8" height="6.8"/>
	</g>
	<g transform="translate(552,528) scale(4.12)">
		<rect x="5.1" y="4.3" width="6.8" height="6.8"/>
	</g>
	<g transform="translate(576,528) scale(4.12)">
		<rect x="5.9" y="4.3" width="6.8" height="6.8"/>
	</g>
	<g transform="translate(600,528) scale(4.12)">
		<rect x="6.7" y="4.3" width="6.8" height="6.8"/>
	</g>
	<g transform="translate(624,528) scale(4.12)">
		<rect x="7.5" y="4.3" width="6.8" height="6.8"/>
	</g>
	<g transform="translate(672,528) scale(4.12)">
		<path d="M15.9,11.1H9.1V6.6c0-1.3,1-2.3,2.3-2.3h4.5V11.1z"/>
	</g>
	<g transform="translate(696,528) scale(4.12)">
		<rect x="9.9" y="4.3" width="6.8" height="6.8"/>
	</g>
	<g transform="translate(720,528) scale(4.12)">
		<path d="M10.6,11.1V4.3h4.5c1.3,0,2.3,1,2.3,2.3v4.5H10.6z"/>
	</g>
	<g transform="translate(240,552) scale(4.12)">
		<path d="M0.9,8.3c-1-1.9-3.2-3.3-4.8-3.2c-1.5,0.1-1.8,1.8-0.8,3.6c1.1,1.9,3.2,3.3,4.8,3.2S2,10.1,0.9,8.3z"/>
	</g>
	<g transform="translate(432,552) scale(4.12)">
		<path d="M1.1,11L1.1,11c0-1.6,5.2-5.9,6.8-5.9l0,0v6.8H2C1.5,11.9,1.1,11.4,1.1,11z"/>
	</g>
	<g transform="translate(456,552) scale(4.12)">
		<rect x="1.9" y="5.1" width="6.8" height="6.8"/>
	</g>
	<g transform="translate(480,552) scale(4.12)">
		<path d="M2.7,5.1h6.8v4.5c0,1.3-1,2.3-2.3,2.3H2.7V5.1z"/>
	</g>
	<g transform="translate(528,552) scale(4.12)">
		<rect x="4.3" y="5.1" width="6.8" height="6.8"/>
	</g>
	<g transform="translate(624,552) scale(4.12)">
		<rect x="7.5" y="5.1" width="6.8" height="6.8"/>
	</g>
	<g transform="translate(648,552) scale(4.12)">
		<rect x="8.3" y="5.1" width="6.8" height="6.8"/>
	</g>
	<g transform="translate(672,552) scale(4.12)">
		<rect x="9.1" y="5.1" width="6.8" height="6.8"/>
	</g>
	<g transform="translate(696,552) scale(4.12)">
		<rect x="9.9" y="5.1" width="6.8" height="6.8"/>
	</g>
	<g transform="translate(720,552) scale(4.12)">
		<path d="M10.6,5.1h6.8v4.5c0,1.3-1,2.3-2.3,2.3h-4.5V5.1z"/>
	</g>
	<g transform="translate(336,576) scale(4.12)">
		<path d="M4,9.1C3,7.1,0.9,5.8-0.7,5.9C-2.2,6-2.5,7.7-1.5,9.5c1.1,1.9,3.2,3.3,4.8,3.2C4.8,12.6,5.2,10.9,4,9.1z"/>
	</g>
	<g transform="translate(408,576) scale(4.12)">
		<path d="M6.4,9.1c-1-1.9-3.2-3.3-4.8-3.2C0.2,6-0.2,7.7,0.9,9.5C2,11.4,4,12.8,5.6,12.7C7.2,12.6,7.6,10.9,6.4,9.1z"/>
	</g>
	<g transform="translate(456,576) scale(4.12)">
		<path d="M7.8,12.7L7.8,12.7c-1.6,0-5.9-5.2-5.9-6.8l0,0h6.8v5.9C8.7,12.2,8.3,12.7,7.8,12.7z"/>
	</g>
	<g transform="translate(504,576) scale(4.12)">
		<path d="M3.5,11.8L3.5,11.8c0-1.6,5.2-5.9,6.8-5.9l0,0v6.8H4.4C3.9,12.7,3.5,12.2,3.5,11.8z"/>
	</g>
	<g transform="translate(528,576) scale(4.12)">
		<rect x="4.3" y="5.9" width="6.8" height="6.8"/>
	</g>
	<g transform="translate(576,576) scale(4.12)">
		<path d="M12,9.1c-1-1.9-3.2-3.3-4.8-3.2C5.8,6,5.4,7.7,6.4,9.5c1.1,1.9,3.2,3.3,4.8,3.2C12.8,12.6,13.1,10.9,12,9.1z"/>
	</g>
	<g transform="translate(624,576) scale(4.12)">
		<rect x="7.5" y="5.9" width="6.8" height="6.8"/>
	</g>
	<g transform="translate(648,576) scale(4.12)">
		<rect x="8.3" y="5.9" width="6.8" height="6.8"/>
	</g>
	<g transform="translate(672,576) scale(4.12)">
		<path d="M9.1,5.9h6.8v4.5c0,1.3-1,2.3-2.3,2.3H9.1V5.9z"/>
	</g>
	<g transform="translate(240,600) scale(4.12)">
		<path d="M1.5,13.5h-6.8V8.9c0-1.3,1-2.3,2.3-2.3h4.5V13.5z"/>
	</g>
	<g transform="translate(264,600) scale(4.12)">
		<path d="M-4.5,13.5V6.7h4.5c1.3,0,2.3,1,2.3,2.3v4.5H-4.5z"/>
	</g>
	<g transform="translate(384,600) scale(4.12)">
		<path d="M5.6,9.8c-1-1.9-3.2-3.3-4.8-3.2C-0.6,6.8-1,8.5,0.1,10.3c1.1,1.9,3.2,3.3,4.8,3.2C6.4,13.4,6.8,11.7,5.6,9.8z"/>
	</g>
	<g transform="translate(432,600) scale(4.12)">
		<path d="M2,6.7L2,6.7c1.6,0,5.9,5.2,5.9,6.8l0,0H1.1V7.6C1.1,7.1,1.5,6.7,2,6.7z"/>
	</g>
	<g transform="translate(528,600) scale(4.12)">
		<rect x="4.3" y="6.7" width="6.8" height="6.8"/>
	</g>
	<g transform="translate(624,600) scale(4.12)">
		<rect x="7.5" y="6.7" width="6.8" height="6.8"/>
	</g>
	<g transform="translate(696,600) scale(4.12)">
		<path d="M10.8,6.7L10.8,6.7c1.6,0,5.9,5.2,5.9,6.8l0,0H9.9V7.6C9.9,7.1,10.3,6.7,10.8,6.7z"/>
	</g>
	<g transform="translate(240,624) scale(4.12)">
		<rect x="-5.3" y="7.5" width="6.8" height="6.8"/>
	</g>
	<g transform="translate(264,624) scale(4.12)">
		<rect x="-4.5" y="7.5" width="6.8" height="6.8"/>
	</g>
	<g transform="translate(288,624) scale(4.12)">
		<rect x="-3.7" y="7.5" width="6.8" height="6.8"/>
	</g>
	<g transform="translate(312,624) scale(4.12)">
		<rect x="-2.9" y="7.5" width="6.8" height="6.8"/>
	</g>
	<g transform="translate(336,624) scale(4.12)">
		<path d="M-2.1,14.3V7.5h4.5c1.3,0,2.3,1,2.3,2.3v4.5H-2.1z"/>
	</g>
	<g transform="translate(408,624) scale(4.12)">
		<path d="M0.3,13.4L0.3,13.4c0-1.6,5.2-5.9,6.8-5.9l0,0v6.8H1.2C0.8,14.3,0.3,13.8,0.3,13.4z"/>
	</g>
	<g transform="translate(432,624) scale(4.12)">
		<rect x="1.1" y="7.5" width="6.8" height="6.8"/>
	</g>
	<g transform="translate(456,624) scale(4.12)">
		<path d="M1.9,14.3V7.5h4.5c1.3,0,2.3,1,2.3,2.3v4.5H1.9z"/>
	</g>
	<g transform="translate(528,624) scale(4.12)">
		<rect x="4.3" y="7.5" width="6.8" height="6.8"/>
	</g>
	<g transform="translate(552,624) scale(4.12)">
		<rect x="5.1" y="7.5" width="6.8" height="6.8"/>
	</g>
	<g transform="translate(576,624) scale(4.12)">
		<rect x="5.9" y="7.5" width="6.8" height="6.8"/>
	</g>
	<g transform="translate(600,624) scale(4.12)">
		<rect x="6.7" y="7.5" width="6.8" height="6.8"/>
	</g>
	<g transform="translate(624,624) scale(4.12)">
		<path d="M7.5,7.5h6.8V12c0,1.3-1,2.3-2.3,2.3H7.5V7.5z"/>
	</g>
	<g transform="translate(672,624) scale(4.12)">
		<path d="M15.9,14.3H9.1V9.7c0-1.3,1-2.3,2.3-2.3h4.5V14.3z"/>
	</g>
	<g transform="translate(696,624) scale(4.12)">
		<rect x="9.9" y="7.5" width="6.8" height="6.8"/>
	</g>
	<g transform="translate(240,648) scale(4.12)">
		<rect x="-5.3" y="8.3" width="6.8" height="6.8"/>
	</g>
	<g transform="translate(264,648) scale(4.12)">
		<rect x="-4.5" y="8.3" width="6.8" height="6.8"/>
	</g>
	<g transform="translate(288,648) scale(4.12)">
		<rect x="-3.7" y="8.3" width="6.8" height="6.8"/>
	</g>
	<g transform="translate(312,648) scale(4.12)">
		<rect x="-2.9" y="8.3" width="6.8" height="6.8"/>
	</g>
	<g transform="translate(336,648) scale(4.12)">
		<rect x="-2.1" y="8.3" width="6.8" height="6.8"/>
	</g>
	<g transform="translate(360,648) scale(4.12)">
		<rect x="-1.3" y="8.3" width="6.8" height="6.8"/>
	</g>
	<g transform="translate(384,648) scale(4.12)">
		<path d="M6.3,9.2L6.3,9.2c0,1.6-5.2,5.9-6.8,5.9l0,0V8.3h5.9C5.9,8.3,6.3,8.7,6.3,9.2z"/>
	</g>
	<g transform="translate(432,648) scale(4.12)">
		<rect x="1.1" y="8.3" width="6.8" height="6.8"/>
	</g>
	<g transform="translate(456,648) scale(4.12)">
		<rect x="1.9" y="8.3" width="6.8" height="6.8"/>
	</g>
	<g transform="translate(480,648) scale(4.12)">
		<path d="M2.7,15.1V8.3h4.5c1.3,0,2.3,1,2.3,2.3v4.5H2.7z"/>
	</g>
	<g transform="translate(528,648) scale(4.12)">
		<path d="M11.1,8.3v6.8H6.6c-1.3,0-2.3-1-2.3-2.3V8.3H11.1z"/>
	</g>
	<g transform="translate(552,648) scale(4.12)">
		<path d="M5.1,8.3h6.8v4.5c0,1.3-1,2.3-2.3,2.3H5.1V8.3z"/>
	</g>
	<g transform="translate(600,648) scale(4.12)">
		<rect x="6.7" y="8.3" width="6.8" height="6.8"/>
	</g>
	<g transform="translate(648,648) scale(4.12)">
		<path d="M15.1,15.1H8.3v-4.5c0-1.3,1-2.3,2.3-2.3h4.5V15.1z"/>
	</g>
	<g transform="translate(672,648) scale(4.12)">
		<rect x="9.1" y="8.3" width="6.8" height="6.8"/>
	</g>
	<g transform="translate(696,648) scale(4.12)">
		<rect x="9.9" y="8.3" width="6.8" height="6.8"/>
	</g>
	<g transform="translate(720,648) scale(4.12)">
		<path d="M17.5,9.2L17.5,9.2c0,1.6-5.2,5.9-6.8,5.9l0,0V8.3h5.9C17,8.3,17.5,8.7,17.5,9.2z"/>
	</g>
	<g transform="translate(240,672) scale(4.12)">
		<path d="M0.6,15.9L0.6,15.9c-1.6,0-5.9-5.2-5.9-6.8l0,0h6.8V15C1.5,15.4,1.1,15.9,0.6,15.9z"/>
	</g>
	<g transform="translate(336,672) scale(4.12)">
		<rect x="-2.1" y="9.1" width="6.8" height="6.8"/>
	</g>
	<g transform="translate(360,672) scale(4.12)">
		<path d="M-1.3,9.1h6.8v4.5c0,1.3-1,2.3-2.3,2.3h-4.5V9.1z"/>
	</g>
	<g transform="translate(408,672) scale(4.12)">
		<path d="M7.1,15.9H0.3v-4.5c0-1.3,1-2.3,2.3-2.3h4.5V15.9z"/>
	</g>
	<g transform="translate(432,672) scale(4.12)">
		<path d="M1.1,9.1h6.8v4.5c0,1.3-1,2.3-2.3,2.3H1.1V9.1z"/>
	</g>
	<g transform="translate(480,672) scale(4.12)">
		<rect x="2.7" y="9.1" width="6.8" height="6.8"/>
	</g>
	<g transform="translate(576,672) scale(4.12)">
		<path d="M5.9,15L5.9,15c0-1.6,5.2-5.9,6.8-5.9l0,0v6.8H6.8C6.3,15.9,5.9,15.4,5.9,15z"/>
	</g>
	<g transform="translate(600,672) scale(4.12)">
		<rect x="6.7" y="9.1" width="6.8" height="6.8"/>
	</g>
	<g transform="translate(624,672) scale(4.12)">
		<rect x="7.5" y="9.1" width="6.8" height="6.8"/>
	</g>
	<g transform="translate(648,672) scale(4.12)">
		<rect x="8.3" y="9.1" width="6.8" height="6.8"/>
	</g>
	<g transform="translate(672,672) scale(4.12)">
		<rect x="9.1" y="9.1" width="6.8" height="6.8"/>
	</g>
	<g transform="translate(696,672) scale(4.12)">
		<rect x="9.9" y="9.1" width="6.8" height="6.8"/>
	</g>
	<g transform="translate(312,696) scale(4.12)">
		<path d="M-2.9,15.8L-2.9,15.8c0-1.6,5.2-5.9,6.8-5.9l0,0v6.8H-2C-2.4,16.7-2.9,16.2-2.9,15.8z"/>
	</g>
	<g transform="translate(336,696) scale(4.12)">
		<path d="M-2.1,9.9h6.8v4.5c0,1.3-1,2.3-2.3,2.3h-4.5V9.9z"/>
	</g>
	<g transform="translate(384,696) scale(4.12)">
		<path d="M6.3,16.7h-6.8v-4.5c0-1.3,1-2.3,2.3-2.3h4.5V16.7z"/>
	</g>
	<g transform="translate(408,696) scale(4.12)">
		<path d="M0.3,9.9h6.8v4.5c0,1.3-1,2.3-2.3,2.3H0.3V9.9z"/>
	</g>
	<g transform="translate(480,696) scale(4.12)">
		<path d="M9.5,9.9v6.8H5c-1.3,0-2.3-1-2.3-2.3V9.9H9.5z"/>
	</g>
	<g transform="translate(504,696) scale(4.12)">
		<rect x="3.5" y="9.9" width="6.8" height="6.8"/>
	</g>
	<g transform="translate(528,696) scale(4.12)">
		<path d="M11.1,10.8L11.1,10.8c0,1.6-5.2,5.9-6.8,5.9l0,0V9.9h5.9C10.6,9.9,11.1,10.3,11.1,10.8z"/>
	</g>
	<g transform="translate(600,696) scale(4.12)">
		<rect x="6.7" y="9.9" width="6.8" height="6.8"/>
	</g>
	<g transform="translate(648,696) scale(4.12)">
		<rect x="8.3" y="9.9" width="6.8" height="6.8"/>
	</g>
	<g transform="translate(696,696) scale(4.12)">
		<path d="M15.8,16.7L15.8,16.7c-1.6,0-5.9-5.2-5.9-6.8l0,0h6.8v5.9C16.7,16.2,16.2,16.7,15.8,16.7z"/>
	</g>
	<g transform="translate(240,720) scale(4.12)">
		<path d="M0.9,13.8c-1-1.9-3.2-3.3-4.8-3.2c-1.5,0.1-1.8,1.8-0.8,3.6c1.1,1.9,3.2,3.3,4.8,3.2S2,15.7,0.9,13.8z"/>
	</g>
	<g transform="translate(384,720) scale(4.12)">
		<path d="M5.4,17.5L5.4,17.5c-1.6,0-5.9-5.2-5.9-6.8l0,0h6.8v5.9C6.3,17,5.9,17.5,5.4,17.5z"/>
	</g>
	<g transform="translate(456,720) scale(4.12)">
		<path d="M8,13.8c-1-1.9-3.2-3.3-4.8-3.2c-1.5,0.1-1.8,1.8-0.8,3.6c1.1,1.9,3.2,3.3,4.8,3.2S9.2,15.7,8,13.8z"/>
	</g>
	<g transform="translate(552,720) scale(4.12)">
		<path d="M11.2,13.8c-1-1.9-3.2-3.3-4.8-3.2c-1.5,0.1-1.8,1.8-0.8,3.6c1.1,1.9,3.2,3.3,4.8,3.2S12.3,15.7,11.2,13.8z"/>
	</g>
	<g transform="translate(600,720) scale(4.12)">
		<path d="M13.5,10.6v6.8H8.9c-1.3,0-2.3-1-2.3-2.3v-4.5H13.5z"/>
	</g>
	<g transform="translate(624,720) scale(4.12)">
		<rect x="7.5" y="10.6" width="6.8" height="6.8"/>
	</g>
	<g transform="translate(648,720) scale(4.12)">
		<rect x="8.3" y="10.6" width="6.8" height="6.8"/>
	</g>
	<g transform="translate(672,720) scale(4.12)">
		<path d="M15.9,11.6L15.9,11.6c0,1.6-5.2,5.9-6.8,5.9l0,0v-6.8H15C15.4,10.6,15.9,11.1,15.9,11.6z"/>
	</g>
	<g transform="translate(48,48)">
		<g transform="scale(12)">
			<path d="M-4-4v8c0,4.4,3.5,8,8,8h8V4c0-4.4-3.5-8-8-8H-4z M4,9.6L4,9.6C0.8,9.6-1.7,7.1-1.7,4l0,0c0-3.2,2.5-5.7,5.7-5.7l0,0
				c3.2,0,5.7,2.5,5.7,5.7l0,0C9.6,7.1,7.1,9.6,4,9.6z"/>
		</g>
	</g>
	<g transform="translate(576,48)">
		<g transform="scale(12) rotate(90 7 7)">
			<path d="M-4-3.9v8c0,4.4,3.5,8,8,8h8V4c0-4.4-3.5-8-8-8H-4z M4,9.7L4,9.7C0.8,9.7-1.7,7.2-1.7,4l0,0c0-3.2,2.5-5.7,5.7-5.7l0,0
				c3.2,0,5.7,2.5,5.7,5.7l0,0C9.6,7.2,7.1,9.7,4,9.7z"/>
		</g>
	</g>
	<g transform="translate(48,576)">
		<g transform="scale(12) rotate(-90 7 7)">
			<path d="M-3.9-4v8c0,4.4,3.5,8,8,8h8V4c0-4.4-3.5-8-8-8H-3.9z M4,9.6L4,9.6C0.8,9.6-1.7,7.1-1.7,4l0,0c0-3.2,2.5-5.7,5.7-5.7l0,0
				c3.2,0,5.7,2.5,5.7,5.7l0,0C9.7,7.1,7.2,9.6,4,9.6z"/>
		</g>
	</g>
	<g transform="translate(96,96)">
		<g transform="scale(12)">
			<path d="M3.4,3.4H0C-2,3.4-3.5,1.9-3.5,0v-3.4H0C1.9-3.5,3.4-2,3.4,0V3.4z"/>
		</g>
	</g>
	<g transform="translate(624,96)">
		<g transform="scale(12) rotate(90 3 3)">
			<path d="M3.4,3.4H0C-2,3.4-3.5,2-3.5,0v-3.4H0c1.9,0,3.4,1.5,3.4,3.4V3.4z"/>
		</g>
	</g>
	<g transform="translate(96,624)">
		<g transform="scale(12) rotate(-90 3 3)">
			<path d="M3.4,3.4H0c-1.9,0-3.4-1.5-3.4-3.4v-3.4H0C2-3.5,3.4-2,3.4,0V3.4z"/>
		</g>
	</g>
</g>
</svg>
