<?xml version="1.0" encoding="utf-8"?>
<!-- Generator: Adobe Illustrator 24.3.0, SVG Export Plug-In . SVG Version: 6.00 Build 0)  -->
<svg version="1.1" id="Capa_1" xmlns="http://www.w3.org/2000/svg" xmlns:xlink="http://www.w3.org/1999/xlink" x="0px" y="0px"
	 viewBox="0 0 792 792" style="enable-background:new 0 0 792 792;" xml:space="preserve">
<g>
	<path d="M444.4,48h-11.6H432h-11.6c-7,0-12.4,5.4-12.4,12.4c0,7,5.4,12.4,12.4,12.4H432h0.7h11.6c7,0,12.4-5.4,12.4-12.4
		C456.7,53.4,451.4,48,444.4,48z"/>
	<path d="M324.4,48h-11.6H312h-23.3H288h-11.6c-7,0-12.4,5.4-12.4,12.4c0,7,5.4,12.4,12.4,12.4H288v11.6c0,7,5.4,12.4,12.4,12.4
		c7,0,12.4-5.4,12.4-12.4V72.7h11.6c7,0,12.4-5.4,12.4-12.4C336.7,53.4,331.4,48,324.4,48z"/>
	<g transform="translate(384,96) scale(4.12)">
		<circle cx="3" cy="3" r="3"/>
	</g>
	<path d="M468.4,120h-11.6v-11.6c0-7-5.4-12.4-12.4-12.4c-7,0-12.4,5.4-12.4,12.4V120v0.7v11.6c0,7,5.4,12.4,12.4,12.4H456h0.7h11.6
		c7,0,12.4-5.4,12.4-12.4C480.7,125.4,475.4,120,468.4,120z"/>
	<path d="M444.4,168h-11.6v-11.6c0-7-5.4-12.4-12.4-12.4h-11.6H408h-23.3H384h-11.6c-7,0-12.4,5.4-12.4,12.4V168v0.7v11.6
		c0,7,5.4,12.4,12.4,12.4H384v11.6c0,7,5.4,12.4,12.4,12.4c7,0,12.4-5.4,12.4-12.4v-11.6H432v11.6c0,7,5.4,12.4,12.4,12.4
		c7,0,12.4-5.4,12.4-12.4v-11.6V192v-11.6C456.7,173.4,451.4,168,444.4,168z"/>
	<path d="M348.4,72c-7,0-12.4,5.4-12.4,12.4V96h-11.6c-7,0-12.4,5.4-12.4,12.4V120h-23.3v-11.6c0-7-5.4-12.4-12.4-12.4h-11.6H264
		h-11.6c-7,0-12.4,5.4-12.4,12.4V120v0.7V144v0.7V168v0.7V192v0.7V216v0.7v11.6c0,7,5.4,12.4,12.4,12.4c7,0,12.4-5.4,12.4-12.4
		v-11.6V216v-23.3V192v-23.3H288V192v0.7V216v0.7v11.6c0,7,5.4,12.4,12.4,12.4c7,0,12.4-5.4,12.4-12.4v-11.6V216v-23.3V192v-23.3
		h11.6c7,0,12.4-5.4,12.4-12.4v-11.6V144v-23.3h11.6c7,0,12.4-5.4,12.4-12.4V96.7V96V84.4C360.7,77.4,355.4,72,348.4,72z"/>
	<g transform="translate(48,240) scale(4.12)">
		<circle cx="3" cy="3" r="3"/>
	</g>
	<g transform="translate(456,240) scale(4.12)">
		<circle cx="3" cy="3" r="3"/>
	</g>
	<g transform="translate(72,264) scale(4.12)">
		<circle cx="3" cy="3" r="3"/>
	</g>
	<path d="M204.4,240h-11.6H192h-23.3H168h-23.3H144h-23.3H120h-11.6c-7,0-12.4,5.4-12.4,12.4c0,7,5.4,12.4,12.4,12.4H120h0.7H144
		v11.6c0,7,5.4,12.4,12.4,12.4H168h0.7h11.6c7,0,12.4-5.4,12.4-12.4v-11.6h11.6c7,0,12.4-5.4,12.4-12.4
		C216.7,245.4,211.4,240,204.4,240z"/>
	<path d="M444.4,264h-11.6v-23.3V240v-11.6c0-7-5.4-12.4-12.4-12.4c-7,0-12.4,5.4-12.4,12.4V240h-11.6c-7,0-12.4,5.4-12.4,12.4
		c0,7,5.4,12.4,12.4,12.4H408v11.6c0,7,5.4,12.4,12.4,12.4H432h0.7h11.6c7,0,12.4-5.4,12.4-12.4C456.7,269.4,451.4,264,444.4,264z"
		/>
	<g transform="translate(720,264) scale(4.12)">
		<circle cx="3" cy="3" r="3"/>
	</g>
	<g transform="translate(96,288) scale(4.12)">
		<circle cx="3" cy="3" r="3"/>
	</g>
	<path d="M60.4,288c-7,0-12.4,5.4-12.4,12.4V312v0.7v11.6c0,7,5.4,12.4,12.4,12.4c7,0,12.4-5.4,12.4-12.4v-11.6V312v-11.6
		C72.7,293.4,67.4,288,60.4,288z"/>
	<g transform="translate(120,312) scale(4.12)">
		<circle cx="3" cy="3" r="3"/>
	</g>
	<g transform="translate(168,312) scale(4.12)">
		<circle cx="3" cy="3" r="3"/>
	</g>
	<g transform="translate(384,312) scale(4.12)">
		<circle cx="3" cy="3" r="3"/>
	</g>
	<g transform="translate(432,312) scale(4.12)">
		<circle cx="3" cy="3" r="3"/>
	</g>
	<path d="M684.4,240h-11.6H672h-23.3H648h-23.3H624h-23.3H600h-11.6c-7,0-12.4,5.4-12.4,12.4V264h-23.3v-23.3V240v-23.3V216v-23.3
		V192v-23.3V168v-11.6c0-7-5.4-12.4-12.4-12.4h-11.6v-23.3h11.6c7,0,12.4-5.4,12.4-12.4V96.7V96V72.7V72V60.4
		c0-7-5.4-12.4-12.4-12.4h-11.6H528h-11.6c-7,0-12.4,5.4-12.4,12.4c0,7,5.4,12.4,12.4,12.4H528V96h-23.3V84.4
		c0-7-5.4-12.4-12.4-12.4h-11.6H480h-11.6c-7,0-12.4,5.4-12.4,12.4c0,7,5.4,12.4,12.4,12.4H480v11.6c0,7,5.4,12.4,12.4,12.4H504V144
		h-11.6c-7,0-12.4,5.4-12.4,12.4c0,7,5.4,12.4,12.4,12.4H504h0.7H528V192v0.7V216h-23.3v-11.6c0-7-5.4-12.4-12.4-12.4
		c-7,0-12.4,5.4-12.4,12.4V216v0.7v11.6c0,7,5.4,12.4,12.4,12.4H504h0.7H528V264h-11.6c-7,0-12.4,5.4-12.4,12.4
		c0,7,5.4,12.4,12.4,12.4H528h0.7H552h0.7H576V312v0.7v11.6c0,7,5.4,12.4,12.4,12.4c7,0,12.4-5.4,12.4-12.4v-11.6h11.6
		c7,0,12.4-5.4,12.4-12.4v-11.6h11.6c7,0,12.4-5.4,12.4-12.4v-11.6H672h0.7h11.6c7,0,12.4-5.4,12.4-12.4
		C696.7,245.4,691.4,240,684.4,240z"/>
	<g transform="translate(624,312) scale(4.12)">
		<circle cx="3" cy="3" r="3"/>
	</g>
	<g transform="translate(696,312) scale(4.12)">
		<circle cx="3" cy="3" r="3"/>
	</g>
	<g transform="translate(144,336) scale(4.12)">
		<circle cx="3" cy="3" r="3"/>
	</g>
	<g transform="translate(456,336) scale(4.12)">
		<circle cx="3" cy="3" r="3"/>
	</g>
	<path d="M540.4,312h-11.6H528h-23.3v-11.6c0-7-5.4-12.4-12.4-12.4c-7,0-12.4,5.4-12.4,12.4V312v0.7v11.6c0,7,5.4,12.4,12.4,12.4
		H504V360v0.7v11.6c0,7,5.4,12.4,12.4,12.4c7,0,12.4-5.4,12.4-12.4v-11.6V360v-23.3h11.6c7,0,12.4-5.4,12.4-12.4
		C552.7,317.4,547.4,312,540.4,312z"/>
	<g transform="translate(720,360) scale(4.12)">
		<circle cx="3" cy="3" r="3"/>
	</g>
	<g transform="translate(528,384) scale(4.12)">
		<circle cx="3" cy="3" r="3"/>
	</g>
	<path d="M684.4,336h-11.6H672h-11.6c-7,0-12.4,5.4-12.4,12.4c0,7,5.4,12.4,12.4,12.4H672V384v0.7v11.6c0,7,5.4,12.4,12.4,12.4
		c7,0,12.4-5.4,12.4-12.4v-11.6V384v-23.3V360v-11.6C696.7,341.4,691.4,336,684.4,336z"/>
	<path d="M108.4,360c-7,0-12.4,5.4-12.4,12.4V384H72.7v-11.6c0-7-5.4-12.4-12.4-12.4c-7,0-12.4,5.4-12.4,12.4V384v0.7V408v0.7v11.6
		c0,7,5.4,12.4,12.4,12.4c7,0,12.4-5.4,12.4-12.4v-11.6H96h0.7h11.6c7,0,12.4-5.4,12.4-12.4v-11.6V384v-11.6
		C120.7,365.4,115.4,360,108.4,360z"/>
	<g transform="translate(144,408) scale(4.12)">
		<circle cx="3" cy="3" r="3"/>
	</g>
	<path d="M516.4,408h-11.6v-11.6c0-7-5.4-12.4-12.4-12.4h-11.6H480h-23.3H456h-23.3v-11.6c0-7-5.4-12.4-12.4-12.4h-11.6H408h-23.3
		H384h-11.6c-7,0-12.4,5.4-12.4,12.4V384v0.7V408h-11.6c-7,0-12.4,5.4-12.4,12.4c0,7,5.4,12.4,12.4,12.4H360h0.7h11.6
		c7,0,12.4-5.4,12.4-12.4v-11.6H408v11.6c0,7,5.4,12.4,12.4,12.4H432h0.7h11.6c7,0,12.4-5.4,12.4-12.4v-11.6H480v11.6
		c0,7,5.4,12.4,12.4,12.4H504h0.7h11.6c7,0,12.4-5.4,12.4-12.4C528.7,413.4,523.4,408,516.4,408z"/>
	<g transform="translate(552,408) scale(4.12)">
		<circle cx="3" cy="3" r="3"/>
	</g>
	<path d="M636.4,360h-11.6H624h-23.3H600h-23.3H576h-11.6c-7,0-12.4,5.4-12.4,12.4c0,7,5.4,12.4,12.4,12.4H576v11.6
		c0,7,5.4,12.4,12.4,12.4H600v11.6c0,7,5.4,12.4,12.4,12.4H624h0.7h11.6c7,0,12.4-5.4,12.4-12.4v-11.6V408v-23.3V384v-11.6
		C648.7,365.4,643.4,360,636.4,360z"/>
	<g transform="translate(696,408) scale(4.12)">
		<circle cx="3" cy="3" r="3"/>
	</g>
	<g transform="translate(192,432) scale(4.12)">
		<circle cx="3" cy="3" r="3"/>
	</g>
	<g transform="translate(384,432) scale(4.12)">
		<circle cx="3" cy="3" r="3"/>
	</g>
	<g transform="translate(456,432) scale(4.12)">
		<circle cx="3" cy="3" r="3"/>
	</g>
	<g transform="translate(168,456) scale(4.12)">
		<circle cx="3" cy="3" r="3"/>
	</g>
	<g transform="translate(720,456) scale(4.12)">
		<circle cx="3" cy="3" r="3"/>
	</g>
	<path d="M348.4,456h-11.6v-11.6c0-7-5.4-12.4-12.4-12.4h-11.6H312h-11.6c-7,0-12.4,5.4-12.4,12.4V456v0.7v11.6
		c0,7,5.4,12.4,12.4,12.4H312h0.7H336v11.6c0,7,5.4,12.4,12.4,12.4c7,0,12.4-5.4,12.4-12.4v-11.6V480v-11.6
		C360.7,461.4,355.4,456,348.4,456z"/>
	<path d="M372.4,216h-11.6v-11.6c0-7-5.4-12.4-12.4-12.4c-7,0-12.4,5.4-12.4,12.4V216v0.7V240h-11.6c-7,0-12.4,5.4-12.4,12.4V264
		v0.7v11.6c0,7,5.4,12.4,12.4,12.4H336V312v0.7V336h-23.3v-23.3V312v-11.6c0-7-5.4-12.4-12.4-12.4h-11.6v-11.6
		c0-7-5.4-12.4-12.4-12.4h-11.6H264h-23.3H240h-11.6c-7,0-12.4,5.4-12.4,12.4V288h-11.6c-7,0-12.4,5.4-12.4,12.4
		c0,7,5.4,12.4,12.4,12.4H216V336h-11.6c-7,0-12.4,5.4-12.4,12.4c0,7,5.4,12.4,12.4,12.4H216V384h-23.3v-11.6
		c0-7-5.4-12.4-12.4-12.4c-7,0-12.4,5.4-12.4,12.4V384v0.7v11.6c0,7,5.4,12.4,12.4,12.4H192h0.7H216v11.6c0,7,5.4,12.4,12.4,12.4
		H240V456h-11.6c-7,0-12.4,5.4-12.4,12.4V480h-11.6c-7,0-12.4,5.4-12.4,12.4c0,7,5.4,12.4,12.4,12.4H216v11.6
		c0,7,5.4,12.4,12.4,12.4c7,0,12.4-5.4,12.4-12.4v-11.6V504v-23.3h11.6c7,0,12.4-5.4,12.4-12.4v-11.6V456v-23.3h11.6
		c7,0,12.4-5.4,12.4-12.4c0-7-5.4-12.4-12.4-12.4h-11.6H264h-23.3v-23.3h11.6c7,0,12.4-5.4,12.4-12.4c0-7-5.4-12.4-12.4-12.4h-11.6
		v-23.3V336v-23.3H264v11.6c0,7,5.4,12.4,12.4,12.4H288v11.6c0,7,5.4,12.4,12.4,12.4H312h0.7H336h0.7h11.6c7,0,12.4-5.4,12.4-12.4
		v-11.6V336v-23.3V312v-23.3V288v-23.3V264v-23.3h11.6c7,0,12.4-5.4,12.4-12.4C384.7,221.4,379.4,216,372.4,216z"/>
	<g transform="translate(384,504) scale(4.12)">
		<circle cx="3" cy="3" r="3"/>
	</g>
	<path d="M444.4,456c-7,0-12.4,5.4-12.4,12.4V480h-11.6c-7,0-12.4,5.4-12.4,12.4c0,7,5.4,12.4,12.4,12.4H432v11.6
		c0,7,5.4,12.4,12.4,12.4c7,0,12.4-5.4,12.4-12.4v-11.6V504v-23.3V480v-11.6C456.7,461.4,451.4,456,444.4,456z"/>
	<path d="M84.4,432c-7,0-12.4,5.4-12.4,12.4V456H60.4c-7,0-12.4,5.4-12.4,12.4V480v0.7V504v0.7V528v0.7v11.6c0,7,5.4,12.4,12.4,12.4
		c7,0,12.4-5.4,12.4-12.4v-11.6V528v-23.3V504v-23.3h11.6c7,0,12.4-5.4,12.4-12.4v-11.6V456v-11.6C96.7,437.4,91.4,432,84.4,432z"/>
	<path d="M156.4,504h-11.6H144h-23.3H120h-11.6c-7,0-12.4,5.4-12.4,12.4V528v0.7v11.6c0,7,5.4,12.4,12.4,12.4H120h0.7h11.6
		c7,0,12.4-5.4,12.4-12.4v-11.6h11.6c7,0,12.4-5.4,12.4-12.4C168.7,509.4,163.4,504,156.4,504z"/>
	<g transform="translate(192,528) scale(4.12)">
		<circle cx="3" cy="3" r="3"/>
	</g>
	<g transform="translate(456,528) scale(4.12)">
		<circle cx="3" cy="3" r="3"/>
	</g>
	<g transform="translate(576,576) scale(4.12)">
		<circle cx="3" cy="3" r="3"/>
	</g>
	<path d="M420.4,624h-11.6H408h-11.6c-7,0-12.4,5.4-12.4,12.4c0,7,5.4,12.4,12.4,12.4H408h0.7h11.6c7,0,12.4-5.4,12.4-12.4
		C432.7,629.4,427.4,624,420.4,624z"/>
	<g transform="translate(456,624) scale(4.12)">
		<circle cx="3" cy="3" r="3"/>
	</g>
	<g transform="translate(432,648) scale(4.12)">
		<circle cx="3" cy="3" r="3"/>
	</g>
	<g transform="translate(504,648) scale(4.12)">
		<circle cx="3" cy="3" r="3"/>
	</g>
	<path d="M276.4,576c-7,0-12.4,5.4-12.4,12.4V600h-11.6c-7,0-12.4,5.4-12.4,12.4V624v0.7V648v0.7V672v0.7v11.6
		c0,7,5.4,12.4,12.4,12.4c7,0,12.4-5.4,12.4-12.4v-11.6V672v-23.3V648v-23.3h11.6c7,0,12.4-5.4,12.4-12.4v-11.6V600v-11.6
		C288.7,581.4,283.4,576,276.4,576z"/>
	<g transform="translate(408,672) scale(4.12)">
		<circle cx="3" cy="3" r="3"/>
	</g>
	<path d="M492.4,672h-11.6H480h-11.6c-7,0-12.4,5.4-12.4,12.4c0,7,5.4,12.4,12.4,12.4H480h0.7h11.6c7,0,12.4-5.4,12.4-12.4
		C504.7,677.4,499.4,672,492.4,672z"/>
	<path d="M300.4,672c-7,0-12.4,5.4-12.4,12.4V696v0.7v11.6c0,7,5.4,12.4,12.4,12.4c7,0,12.4-5.4,12.4-12.4v-11.6V696v-11.6
		C312.7,677.4,307.4,672,300.4,672z"/>
	<g transform="translate(432,696) scale(4.12)">
		<circle cx="3" cy="3" r="3"/>
	</g>
	<path d="M732.4,648h-11.6v-11.6c0-7-5.4-12.4-12.4-12.4h-11.6H696h-11.6c-7,0-12.4,5.4-12.4,12.4V648v0.7v11.6
		c0,7,5.4,12.4,12.4,12.4H696V696v0.7v11.6c0,7,5.4,12.4,12.4,12.4c7,0,12.4-5.4,12.4-12.4v-11.6V696v-23.3h11.6
		c7,0,12.4-5.4,12.4-12.4C744.7,653.4,739.4,648,732.4,648z"/>
	<path d="M276.4,720h-11.6H264h-11.6c-7,0-12.4,5.4-12.4,12.4c0,7,5.4,12.4,12.4,12.4H264h0.7h11.6c7,0,12.4-5.4,12.4-12.4
		C288.7,725.4,283.4,720,276.4,720z"/>
	<path d="M396.4,696c-7,0-12.4,5.4-12.4,12.4V720h-11.6c-7,0-12.4,5.4-12.4,12.4c0,7,5.4,12.4,12.4,12.4H384h0.7h11.6
		c7,0,12.4-5.4,12.4-12.4v-11.6V720v-11.6C408.7,701.4,403.4,696,396.4,696z"/>
	<path d="M732.4,528h-11.6v-11.6c0-7-5.4-12.4-12.4-12.4c-7,0-12.4,5.4-12.4,12.4V528h-11.6c-7,0-12.4,5.4-12.4,12.4V552h-23.3
		v-23.3V528v-11.6c0-7-5.4-12.4-12.4-12.4h-11.6H624h-23.3v-23.3H624h0.7H648v11.6c0,7,5.4,12.4,12.4,12.4H672h0.7h11.6
		c7,0,12.4-5.4,12.4-12.4v-11.6V480v-23.3V456v-11.6c0-7-5.4-12.4-12.4-12.4c-7,0-12.4,5.4-12.4,12.4V456h-23.3H648h-23.3H624h-23.3
		H600h-23.3H576h-23.3v-11.6c0-7-5.4-12.4-12.4-12.4c-7,0-12.4,5.4-12.4,12.4V456h-23.3H504h-11.6c-7,0-12.4,5.4-12.4,12.4
		c0,7,5.4,12.4,12.4,12.4H504h0.7H528V504v0.7V528v0.7V552v0.7V576h-23.3H504h-23.3H480h-23.3v-11.6c0-7-5.4-12.4-12.4-12.4
		c-7,0-12.4,5.4-12.4,12.4V576h-23.3v-11.6c0-7-5.4-12.4-12.4-12.4h-11.6H384h-23.3v-11.6c0-7-5.4-12.4-12.4-12.4h-11.6v-11.6
		c0-7-5.4-12.4-12.4-12.4h-11.6H312h-11.6c-7,0-12.4,5.4-12.4,12.4V528h-23.3H264h-11.6c-7,0-12.4,5.4-12.4,12.4V552v0.7v11.6
		c0,7,5.4,12.4,12.4,12.4c7,0,12.4-5.4,12.4-12.4v-11.6H288v11.6c0,7,5.4,12.4,12.4,12.4H312V600v0.7V624v0.7V648v0.7v11.6
		c0,7,5.4,12.4,12.4,12.4H336h0.7H360h0.7h11.6c7,0,12.4-5.4,12.4-12.4c0-7-5.4-12.4-12.4-12.4h-11.6H360h-23.3v-23.3V624v-23.3H360
		v11.6c0,7,5.4,12.4,12.4,12.4c7,0,12.4-5.4,12.4-12.4v-11.6H408h0.7H432h0.7H456h0.7H480h0.7H504v11.6c0,7,5.4,12.4,12.4,12.4H528
		v11.6c0,7,5.4,12.4,12.4,12.4H552h0.7H576h0.7H600V672h-23.3H576h-23.3H552h-11.6c-7,0-12.4,5.4-12.4,12.4V696h-11.6
		c-7,0-12.4,5.4-12.4,12.4V720h-23.3H480h-11.6c-7,0-12.4,5.4-12.4,12.4c0,7,5.4,12.4,12.4,12.4H480h0.7H504h0.7h11.6
		c7,0,12.4-5.4,12.4-12.4v-11.6h11.6c7,0,12.4-5.4,12.4-12.4v-11.6H576V720h-11.6c-7,0-12.4,5.4-12.4,12.4c0,7,5.4,12.4,12.4,12.4
		H576h0.7h11.6c7,0,12.4-5.4,12.4-12.4v-11.6H624h0.7H648h0.7h11.6c7,0,12.4-5.4,12.4-12.4c0-7-5.4-12.4-12.4-12.4h-11.6v-11.6
		c0-7-5.4-12.4-12.4-12.4h-11.6v-23.3h11.6c7,0,12.4-5.4,12.4-12.4v-11.6h11.6c7,0,12.4-5.4,12.4-12.4v-11.6h11.6
		c7,0,12.4-5.4,12.4-12.4v-11.6H720h0.7h11.6c7,0,12.4-5.4,12.4-12.4v-11.6V552v-11.6C744.7,533.4,739.4,528,732.4,528z M552.7,504
		v-23.3H576V504v0.7V528h-23.3v-23.3V504z M576.7,624H576h-23.3v-23.3V600v-23.3V576v-23.3H576h0.7H600h0.7H624V576v0.7V600v0.7V624
		h-23.3H600H576.7z"/>
	<g transform="translate(672,720) scale(4.12)">
		<circle cx="3" cy="3" r="3"/>
	</g>
	<g transform="translate(48,48)">
		<g transform="scale(12)">
			<path d="M0,7L0,7c0,3.9,3.1,7,7,7l0,0c3.9,0,7-3.1,7-7l0,0c0-3.9-3.1-7-7-7l0,0C3.1,0,0,3.1,0,7z M7,12L7,12c-2.8,0-5-2.2-5-5
				l0,0c0-2.8,2.2-5,5-5l0,0c2.8,0,5,2.2,5,5l0,0C12,9.8,9.8,12,7,12z"/>
		</g>
	</g>
	<g transform="translate(576,48)">
		<g transform="scale(12)">
			<path d="M0,7L0,7c0,3.9,3.1,7,7,7l0,0c3.9,0,7-3.1,7-7l0,0c0-3.9-3.1-7-7-7l0,0C3.1,0,0,3.1,0,7z M7,12L7,12c-2.8,0-5-2.2-5-5
				l0,0c0-2.8,2.2-5,5-5l0,0c2.8,0,5,2.2,5,5l0,0C12,9.8,9.8,12,7,12z"/>
		</g>
	</g>
	<g transform="translate(48,576)">
		<g transform="scale(12)">
			<path d="M0,7L0,7c0,3.9,3.1,7,7,7l0,0c3.9,0,7-3.1,7-7l0,0c0-3.9-3.1-7-7-7l0,0C3.1,0,0,3.1,0,7z M7,12L7,12c-2.8,0-5-2.2-5-5
				l0,0c0-2.8,2.2-5,5-5l0,0c2.8,0,5,2.2,5,5l0,0C12,9.8,9.8,12,7,12z"/>
		</g>
	</g>
	<g transform="translate(96,96)">
		<g transform="scale(12)">
			<circle cx="3" cy="3" r="3"/>
		</g>
	</g>
	<g transform="translate(624,96)">
		<g transform="scale(12)">
			<circle cx="3" cy="3" r="3"/>
		</g>
	</g>
	<g transform="translate(96,624)">
		<g transform="scale(12)">
			<circle cx="3" cy="3" r="3"/>
		</g>
	</g>
</g>
</svg>
